<?xml version="1.0" encoding="utf-8" standalone="no"?>
<!DOCTYPE svg PUBLIC "-//W3C//DTD SVG 1.1//EN"
  "http://www.w3.org/Graphics/SVG/1.1/DTD/svg11.dtd">
<svg xmlns:xlink="http://www.w3.org/1999/xlink" width="792pt" height="504pt" viewBox="0 0 792 504" xmlns="http://www.w3.org/2000/svg" version="1.1">
 <metadata>
  <rdf:RDF xmlns:dc="http://purl.org/dc/elements/1.1/" xmlns:cc="http://creativecommons.org/ns#" xmlns:rdf="http://www.w3.org/1999/02/22-rdf-syntax-ns#">
   <cc:Work>
    <dc:type rdf:resource="http://purl.org/dc/dcmitype/StillImage"/>
    <dc:date>2026-01-17T16:59:50.729597</dc:date>
    <dc:format>image/svg+xml</dc:format>
    <dc:creator>
     <cc:Agent>
      <dc:title>Matplotlib v3.10.5, https://matplotlib.org/</dc:title>
     </cc:Agent>
    </dc:creator>
   </cc:Work>
  </rdf:RDF>
 </metadata>
 <defs>
  <style type="text/css">*{stroke-linejoin: round; stroke-linecap: butt}</style>
 </defs>
 <g id="figure_1">
  <g id="patch_1">
   <path d="M 0 504 
L 792 504 
L 792 0 
L 0 0 
z
" style="fill: #ffffff"/>
  </g>
  <g id="axes_1">
   <g id="patch_2">
    <path d="M 64.9 218.88 
L 387.465 218.88 
L 387.465 47.52 
L 64.9 47.52 
z
" style="fill: #ffffff"/>
   </g>
   <g id="FillBetweenPolyCollection_1">
    <defs>
     <path id="mc8b36f5558" d="M 64.9 -372.544646 
L 64.9 -285.12 
L 129.413 -285.12 
L 193.926 -285.12 
L 258.439 -285.12 
L 322.952 -285.12 
L 387.465 -285.12 
L 387.465 -294.396876 
L 387.465 -294.396876 
L 322.952 -357.028341 
L 258.439 -368.598845 
L 193.926 -370.554503 
L 129.413 -372.444857 
L 64.9 -372.544646 
z
" style="stroke: #2e5c8a; stroke-opacity: 0.16"/>
    </defs>
    <g clip-path="url(#pd28f1326b5)">
     <use xlink:href="#mc8b36f5558" x="0" y="504" style="fill: #2e5c8a; fill-opacity: 0.16; stroke: #2e5c8a; stroke-opacity: 0.16"/>
    </g>
   </g>
   <g id="FillBetweenPolyCollection_2">
    <defs>
     <path id="m0a495d69cb" d="M 64.9 -434.128696 
L 64.9 -285.12 
L 129.413 -285.12 
L 193.926 -285.12 
L 258.439 -285.12 
L 322.952 -285.12 
L 387.465 -285.12 
L 387.465 -286.494867 
L 387.465 -286.494867 
L 322.952 -287.890793 
L 258.439 -290.223764 
L 193.926 -304.268705 
L 129.413 -370.425113 
L 64.9 -434.128696 
z
" style="stroke: #e67e22; stroke-opacity: 0.2"/>
    </defs>
    <g clip-path="url(#pd28f1326b5)">
     <use xlink:href="#m0a495d69cb" x="0" y="504" style="fill: #e67e22; fill-opacity: 0.2; stroke: #e67e22; stroke-opacity: 0.2"/>
    </g>
   </g>
   <g id="matplotlib.axis_1">
    <g id="xtick_1">
     <g id="line2d_1">
      <defs>
       <path id="mab8e9c2be2" d="M 0 0 
L 0 3.5 
" style="stroke: #000000; stroke-width: 0.8"/>
      </defs>
      <g>
       <use xlink:href="#mab8e9c2be2" x="64.9" y="218.88" style="stroke: #000000; stroke-width: 0.8"/>
      </g>
     </g>
     <g id="text_1">
      <!-- S0 -->
      <g transform="translate(56.002344 236.517812) scale(0.14 -0.14)">
       <defs>
        <path id="DejaVuSans-53" d="M 3425 4513 
L 3425 3897 
Q 3066 4069 2747 4153 
Q 2428 4238 2131 4238 
Q 1616 4238 1336 4038 
Q 1056 3838 1056 3469 
Q 1056 3159 1242 3001 
Q 1428 2844 1947 2747 
L 2328 2669 
Q 3034 2534 3370 2195 
Q 3706 1856 3706 1288 
Q 3706 609 3251 259 
Q 2797 -91 1919 -91 
Q 1588 -91 1214 -16 
Q 841 59 441 206 
L 441 856 
Q 825 641 1194 531 
Q 1563 422 1919 422 
Q 2459 422 2753 634 
Q 3047 847 3047 1241 
Q 3047 1584 2836 1778 
Q 2625 1972 2144 2069 
L 1759 2144 
Q 1053 2284 737 2584 
Q 422 2884 422 3419 
Q 422 4038 858 4394 
Q 1294 4750 2059 4750 
Q 2388 4750 2728 4690 
Q 3069 4631 3425 4513 
z
" transform="scale(0.015625)"/>
        <path id="DejaVuSans-30" d="M 2034 4250 
Q 1547 4250 1301 3770 
Q 1056 3291 1056 2328 
Q 1056 1369 1301 889 
Q 1547 409 2034 409 
Q 2525 409 2770 889 
Q 3016 1369 3016 2328 
Q 3016 3291 2770 3770 
Q 2525 4250 2034 4250 
z
M 2034 4750 
Q 2819 4750 3233 4129 
Q 3647 3509 3647 2328 
Q 3647 1150 3233 529 
Q 2819 -91 2034 -91 
Q 1250 -91 836 529 
Q 422 1150 422 2328 
Q 422 3509 836 4129 
Q 1250 4750 2034 4750 
z
" transform="scale(0.015625)"/>
       </defs>
       <use xlink:href="#DejaVuSans-53"/>
       <use xlink:href="#DejaVuSans-30" transform="translate(63.476562 0)"/>
      </g>
     </g>
    </g>
    <g id="xtick_2">
     <g id="line2d_2">
      <g>
       <use xlink:href="#mab8e9c2be2" x="129.413" y="218.88" style="stroke: #000000; stroke-width: 0.8"/>
      </g>
     </g>
     <g id="text_2">
      <!-- S1 -->
      <g transform="translate(120.515344 236.517812) scale(0.14 -0.14)">
       <defs>
        <path id="DejaVuSans-31" d="M 794 531 
L 1825 531 
L 1825 4091 
L 703 3866 
L 703 4441 
L 1819 4666 
L 2450 4666 
L 2450 531 
L 3481 531 
L 3481 0 
L 794 0 
L 794 531 
z
" transform="scale(0.015625)"/>
       </defs>
       <use xlink:href="#DejaVuSans-53"/>
       <use xlink:href="#DejaVuSans-31" transform="translate(63.476562 0)"/>
      </g>
     </g>
    </g>
    <g id="xtick_3">
     <g id="line2d_3">
      <g>
       <use xlink:href="#mab8e9c2be2" x="193.926" y="218.88" style="stroke: #000000; stroke-width: 0.8"/>
      </g>
     </g>
     <g id="text_3">
      <!-- S2 -->
      <g transform="translate(185.028344 236.517812) scale(0.14 -0.14)">
       <defs>
        <path id="DejaVuSans-32" d="M 1228 531 
L 3431 531 
L 3431 0 
L 469 0 
L 469 531 
Q 828 903 1448 1529 
Q 2069 2156 2228 2338 
Q 2531 2678 2651 2914 
Q 2772 3150 2772 3378 
Q 2772 3750 2511 3984 
Q 2250 4219 1831 4219 
Q 1534 4219 1204 4116 
Q 875 4013 500 3803 
L 500 4441 
Q 881 4594 1212 4672 
Q 1544 4750 1819 4750 
Q 2544 4750 2975 4387 
Q 3406 4025 3406 3419 
Q 3406 3131 3298 2873 
Q 3191 2616 2906 2266 
Q 2828 2175 2409 1742 
Q 1991 1309 1228 531 
z
" transform="scale(0.015625)"/>
       </defs>
       <use xlink:href="#DejaVuSans-53"/>
       <use xlink:href="#DejaVuSans-32" transform="translate(63.476562 0)"/>
      </g>
     </g>
    </g>
    <g id="xtick_4">
     <g id="line2d_4">
      <g>
       <use xlink:href="#mab8e9c2be2" x="258.439" y="218.88" style="stroke: #000000; stroke-width: 0.8"/>
      </g>
     </g>
     <g id="text_4">
      <!-- S3 -->
      <g transform="translate(249.541344 236.517812) scale(0.14 -0.14)">
       <defs>
        <path id="DejaVuSans-33" d="M 2597 2516 
Q 3050 2419 3304 2112 
Q 3559 1806 3559 1356 
Q 3559 666 3084 287 
Q 2609 -91 1734 -91 
Q 1441 -91 1130 -33 
Q 819 25 488 141 
L 488 750 
Q 750 597 1062 519 
Q 1375 441 1716 441 
Q 2309 441 2620 675 
Q 2931 909 2931 1356 
Q 2931 1769 2642 2001 
Q 2353 2234 1838 2234 
L 1294 2234 
L 1294 2753 
L 1863 2753 
Q 2328 2753 2575 2939 
Q 2822 3125 2822 3475 
Q 2822 3834 2567 4026 
Q 2313 4219 1838 4219 
Q 1578 4219 1281 4162 
Q 984 4106 628 3988 
L 628 4550 
Q 988 4650 1302 4700 
Q 1616 4750 1894 4750 
Q 2613 4750 3031 4423 
Q 3450 4097 3450 3541 
Q 3450 3153 3228 2886 
Q 3006 2619 2597 2516 
z
" transform="scale(0.015625)"/>
       </defs>
       <use xlink:href="#DejaVuSans-53"/>
       <use xlink:href="#DejaVuSans-33" transform="translate(63.476562 0)"/>
      </g>
     </g>
    </g>
    <g id="xtick_5">
     <g id="line2d_5">
      <g>
       <use xlink:href="#mab8e9c2be2" x="322.952" y="218.88" style="stroke: #000000; stroke-width: 0.8"/>
      </g>
     </g>
     <g id="text_5">
      <!-- S4 -->
      <g transform="translate(314.054344 236.517812) scale(0.14 -0.14)">
       <defs>
        <path id="DejaVuSans-34" d="M 2419 4116 
L 825 1625 
L 2419 1625 
L 2419 4116 
z
M 2253 4666 
L 3047 4666 
L 3047 1625 
L 3713 1625 
L 3713 1100 
L 3047 1100 
L 3047 0 
L 2419 0 
L 2419 1100 
L 313 1100 
L 313 1709 
L 2253 4666 
z
" transform="scale(0.015625)"/>
       </defs>
       <use xlink:href="#DejaVuSans-53"/>
       <use xlink:href="#DejaVuSans-34" transform="translate(63.476562 0)"/>
      </g>
     </g>
    </g>
    <g id="xtick_6">
     <g id="line2d_6">
      <g>
       <use xlink:href="#mab8e9c2be2" x="387.465" y="218.88" style="stroke: #000000; stroke-width: 0.8"/>
      </g>
     </g>
     <g id="text_6">
      <!-- S5 -->
      <g transform="translate(378.567344 236.517812) scale(0.14 -0.14)">
       <defs>
        <path id="DejaVuSans-35" d="M 691 4666 
L 3169 4666 
L 3169 4134 
L 1269 4134 
L 1269 2991 
Q 1406 3038 1543 3061 
Q 1681 3084 1819 3084 
Q 2600 3084 3056 2656 
Q 3513 2228 3513 1497 
Q 3513 744 3044 326 
Q 2575 -91 1722 -91 
Q 1428 -91 1123 -41 
Q 819 9 494 109 
L 494 744 
Q 775 591 1075 516 
Q 1375 441 1709 441 
Q 2250 441 2565 725 
Q 2881 1009 2881 1497 
Q 2881 1984 2565 2268 
Q 2250 2553 1709 2553 
Q 1456 2553 1204 2497 
Q 953 2441 691 2322 
L 691 4666 
z
" transform="scale(0.015625)"/>
       </defs>
       <use xlink:href="#DejaVuSans-53"/>
       <use xlink:href="#DejaVuSans-35" transform="translate(63.476562 0)"/>
      </g>
     </g>
    </g>
   </g>
   <g id="matplotlib.axis_2">
    <g id="ytick_1">
     <g id="line2d_7">
      <defs>
       <path id="m49efcfc595" d="M 0 0 
L -3.5 0 
" style="stroke: #000000; stroke-width: 0.8"/>
      </defs>
      <g>
       <use xlink:href="#m49efcfc595" x="64.9" y="218.88" style="stroke: #000000; stroke-width: 0.8"/>
      </g>
     </g>
     <g id="text_7">
      <!-- 0 -->
      <g transform="translate(48.9925 224.198906) scale(0.14 -0.14)">
       <use xlink:href="#DejaVuSans-30"/>
      </g>
     </g>
    </g>
    <g id="ytick_2">
     <g id="line2d_8">
      <g>
       <use xlink:href="#m49efcfc595" x="64.9" y="185.970583" style="stroke: #000000; stroke-width: 0.8"/>
      </g>
     </g>
     <g id="text_8">
      <!-- 25 -->
      <g transform="translate(40.085 191.289489) scale(0.14 -0.14)">
       <use xlink:href="#DejaVuSans-32"/>
       <use xlink:href="#DejaVuSans-35" transform="translate(63.623047 0)"/>
      </g>
     </g>
    </g>
    <g id="ytick_3">
     <g id="line2d_9">
      <g>
       <use xlink:href="#m49efcfc595" x="64.9" y="153.061166" style="stroke: #000000; stroke-width: 0.8"/>
      </g>
     </g>
     <g id="text_9">
      <!-- 50 -->
      <g transform="translate(40.085 158.380073) scale(0.14 -0.14)">
       <use xlink:href="#DejaVuSans-35"/>
       <use xlink:href="#DejaVuSans-30" transform="translate(63.623047 0)"/>
      </g>
     </g>
    </g>
    <g id="ytick_4">
     <g id="line2d_10">
      <g>
       <use xlink:href="#m49efcfc595" x="64.9" y="120.15175" style="stroke: #000000; stroke-width: 0.8"/>
      </g>
     </g>
     <g id="text_10">
      <!-- 75 -->
      <g transform="translate(40.085 125.470656) scale(0.14 -0.14)">
       <defs>
        <path id="DejaVuSans-37" d="M 525 4666 
L 3525 4666 
L 3525 4397 
L 1831 0 
L 1172 0 
L 2766 4134 
L 525 4134 
L 525 4666 
z
" transform="scale(0.015625)"/>
       </defs>
       <use xlink:href="#DejaVuSans-37"/>
       <use xlink:href="#DejaVuSans-35" transform="translate(63.623047 0)"/>
      </g>
     </g>
    </g>
    <g id="ytick_5">
     <g id="line2d_11">
      <g>
       <use xlink:href="#m49efcfc595" x="64.9" y="87.242333" style="stroke: #000000; stroke-width: 0.8"/>
      </g>
     </g>
     <g id="text_11">
      <!-- 100 -->
      <g transform="translate(31.1775 92.561239) scale(0.14 -0.14)">
       <use xlink:href="#DejaVuSans-31"/>
       <use xlink:href="#DejaVuSans-30" transform="translate(63.623047 0)"/>
       <use xlink:href="#DejaVuSans-30" transform="translate(127.246094 0)"/>
      </g>
     </g>
    </g>
    <g id="ytick_6">
     <g id="line2d_12">
      <g>
       <use xlink:href="#m49efcfc595" x="64.9" y="54.332916" style="stroke: #000000; stroke-width: 0.8"/>
      </g>
     </g>
     <g id="text_12">
      <!-- 125 -->
      <g transform="translate(31.1775 59.651822) scale(0.14 -0.14)">
       <use xlink:href="#DejaVuSans-31"/>
       <use xlink:href="#DejaVuSans-32" transform="translate(63.623047 0)"/>
       <use xlink:href="#DejaVuSans-35" transform="translate(127.246094 0)"/>
      </g>
     </g>
    </g>
    <g id="text_13">
     <!-- CIDEr -->
     <g transform="translate(25.681875 151.874062) rotate(-90) scale(0.12 -0.12)">
      <defs>
       <path id="DejaVuSans-Bold-43" d="M 4288 256 
Q 3956 84 3597 -3 
Q 3238 -91 2847 -91 
Q 1681 -91 1000 561 
Q 319 1213 319 2328 
Q 319 3447 1000 4098 
Q 1681 4750 2847 4750 
Q 3238 4750 3597 4662 
Q 3956 4575 4288 4403 
L 4288 3438 
Q 3953 3666 3628 3772 
Q 3303 3878 2944 3878 
Q 2300 3878 1931 3465 
Q 1563 3053 1563 2328 
Q 1563 1606 1931 1193 
Q 2300 781 2944 781 
Q 3303 781 3628 887 
Q 3953 994 4288 1222 
L 4288 256 
z
" transform="scale(0.015625)"/>
       <path id="DejaVuSans-Bold-49" d="M 588 4666 
L 1791 4666 
L 1791 0 
L 588 0 
L 588 4666 
z
" transform="scale(0.015625)"/>
       <path id="DejaVuSans-Bold-44" d="M 1791 3756 
L 1791 909 
L 2222 909 
Q 2959 909 3348 1275 
Q 3738 1641 3738 2338 
Q 3738 3031 3350 3393 
Q 2963 3756 2222 3756 
L 1791 3756 
z
M 588 4666 
L 1856 4666 
Q 2919 4666 3439 4514 
Q 3959 4363 4331 4000 
Q 4659 3684 4818 3271 
Q 4978 2859 4978 2338 
Q 4978 1809 4818 1395 
Q 4659 981 4331 666 
Q 3956 303 3431 151 
Q 2906 0 1856 0 
L 588 0 
L 588 4666 
z
" transform="scale(0.015625)"/>
       <path id="DejaVuSans-Bold-45" d="M 588 4666 
L 3834 4666 
L 3834 3756 
L 1791 3756 
L 1791 2888 
L 3713 2888 
L 3713 1978 
L 1791 1978 
L 1791 909 
L 3903 909 
L 3903 0 
L 588 0 
L 588 4666 
z
" transform="scale(0.015625)"/>
       <path id="DejaVuSans-Bold-72" d="M 3138 2547 
Q 2991 2616 2845 2648 
Q 2700 2681 2553 2681 
Q 2122 2681 1889 2404 
Q 1656 2128 1656 1613 
L 1656 0 
L 538 0 
L 538 3500 
L 1656 3500 
L 1656 2925 
Q 1872 3269 2151 3426 
Q 2431 3584 2822 3584 
Q 2878 3584 2943 3579 
Q 3009 3575 3134 3559 
L 3138 2547 
z
" transform="scale(0.015625)"/>
      </defs>
      <use xlink:href="#DejaVuSans-Bold-43"/>
      <use xlink:href="#DejaVuSans-Bold-49" transform="translate(73.388672 0)"/>
      <use xlink:href="#DejaVuSans-Bold-44" transform="translate(110.595703 0)"/>
      <use xlink:href="#DejaVuSans-Bold-45" transform="translate(193.603516 0)"/>
      <use xlink:href="#DejaVuSans-Bold-72" transform="translate(261.914062 0)"/>
     </g>
    </g>
   </g>
   <g id="line2d_13">
    <path d="M 64.9 131.455354 
L 129.413 131.555143 
L 193.926 133.445497 
L 258.439 135.401155 
L 322.952 146.971659 
L 387.465 209.603124 
" clip-path="url(#pd28f1326b5)" style="fill: none; stroke: #2e5c8a; stroke-width: 2.4; stroke-linecap: square"/>
    <defs>
     <path id="ma84e08b483" d="M 0 3 
C 0.795609 3 1.55874 2.683901 2.12132 2.12132 
C 2.683901 1.55874 3 0.795609 3 0 
C 3 -0.795609 2.683901 -1.55874 2.12132 -2.12132 
C 1.55874 -2.683901 0.795609 -3 0 -3 
C -0.795609 -3 -1.55874 -2.683901 -2.12132 -2.12132 
C -2.683901 -1.55874 -3 -0.795609 -3 0 
C -3 0.795609 -2.683901 1.55874 -2.12132 2.12132 
C -1.55874 2.683901 -0.795609 3 0 3 
z
" style="stroke: #2e5c8a"/>
    </defs>
    <g clip-path="url(#pd28f1326b5)">
     <use xlink:href="#ma84e08b483" x="64.9" y="131.455354" style="fill: #2e5c8a; stroke: #2e5c8a"/>
     <use xlink:href="#ma84e08b483" x="129.413" y="131.555143" style="fill: #2e5c8a; stroke: #2e5c8a"/>
     <use xlink:href="#ma84e08b483" x="193.926" y="133.445497" style="fill: #2e5c8a; stroke: #2e5c8a"/>
     <use xlink:href="#ma84e08b483" x="258.439" y="135.401155" style="fill: #2e5c8a; stroke: #2e5c8a"/>
     <use xlink:href="#ma84e08b483" x="322.952" y="146.971659" style="fill: #2e5c8a; stroke: #2e5c8a"/>
     <use xlink:href="#ma84e08b483" x="387.465" y="209.603124" style="fill: #2e5c8a; stroke: #2e5c8a"/>
    </g>
   </g>
   <g id="line2d_14">
    <path d="M 64.9 69.871304 
L 129.413 133.574887 
L 193.926 199.731295 
L 258.439 213.776236 
L 322.952 216.109207 
L 387.465 217.505133 
" clip-path="url(#pd28f1326b5)" style="fill: none; stroke-dasharray: 7.4,3.2; stroke-dashoffset: 0; stroke: #e67e22; stroke-opacity: 0.8; stroke-width: 2"/>
    <defs>
     <path id="m42728747e3" d="M -3 3 
L 3 3 
L 3 -3 
L -3 -3 
z
" style="stroke: #e67e22; stroke-opacity: 0.8; stroke-linejoin: miter"/>
    </defs>
    <g clip-path="url(#pd28f1326b5)">
     <use xlink:href="#m42728747e3" x="64.9" y="69.871304" style="fill: #e67e22; fill-opacity: 0.8; stroke: #e67e22; stroke-opacity: 0.8; stroke-linejoin: miter"/>
     <use xlink:href="#m42728747e3" x="129.413" y="133.574887" style="fill: #e67e22; fill-opacity: 0.8; stroke: #e67e22; stroke-opacity: 0.8; stroke-linejoin: miter"/>
     <use xlink:href="#m42728747e3" x="193.926" y="199.731295" style="fill: #e67e22; fill-opacity: 0.8; stroke: #e67e22; stroke-opacity: 0.8; stroke-linejoin: miter"/>
     <use xlink:href="#m42728747e3" x="258.439" y="213.776236" style="fill: #e67e22; fill-opacity: 0.8; stroke: #e67e22; stroke-opacity: 0.8; stroke-linejoin: miter"/>
     <use xlink:href="#m42728747e3" x="322.952" y="216.109207" style="fill: #e67e22; fill-opacity: 0.8; stroke: #e67e22; stroke-opacity: 0.8; stroke-linejoin: miter"/>
     <use xlink:href="#m42728747e3" x="387.465" y="217.505133" style="fill: #e67e22; fill-opacity: 0.8; stroke: #e67e22; stroke-opacity: 0.8; stroke-linejoin: miter"/>
    </g>
   </g>
   <g id="patch_3">
    <path d="M 64.9 218.88 
L 64.9 47.52 
" style="fill: none; stroke: #000000; stroke-width: 0.8; stroke-linejoin: miter; stroke-linecap: square"/>
   </g>
   <g id="patch_4">
    <path d="M 64.9 218.88 
L 387.465 218.88 
" style="fill: none; stroke: #000000; stroke-width: 0.8; stroke-linejoin: miter; stroke-linecap: square"/>
   </g>
   <g id="text_14">
    <g id="patch_5">
     <path d="M 228.548391 85.037562 
L 352.842609 85.037562 
Q 360.642609 85.037562 360.642609 77.237562 
L 360.642609 64.656 
Q 360.642609 56.856 352.842609 56.856 
L 228.548391 56.856 
Q 220.748391 56.856 220.748391 64.656 
L 220.748391 77.237562 
Q 220.748391 85.037562 228.548391 85.037562 
z
" style="fill: #ffffff; opacity: 0.9; stroke: #808080; stroke-width: 1.5; stroke-linejoin: miter"/>
    </g>
    <!-- (a) RBBF × CIDEr -->
    <g transform="translate(228.548391 74.533969) scale(0.13 -0.13)">
     <defs>
      <path id="DejaVuSans-Bold-28" d="M 2413 -844 
L 1484 -844 
Q 1006 -72 778 623 
Q 550 1319 550 2003 
Q 550 2688 779 3389 
Q 1009 4091 1484 4856 
L 2413 4856 
Q 2013 4116 1813 3408 
Q 1613 2700 1613 2009 
Q 1613 1319 1811 609 
Q 2009 -100 2413 -844 
z
" transform="scale(0.015625)"/>
      <path id="DejaVuSans-Bold-61" d="M 2106 1575 
Q 1756 1575 1579 1456 
Q 1403 1338 1403 1106 
Q 1403 894 1545 773 
Q 1688 653 1941 653 
Q 2256 653 2472 879 
Q 2688 1106 2688 1447 
L 2688 1575 
L 2106 1575 
z
M 3816 1997 
L 3816 0 
L 2688 0 
L 2688 519 
Q 2463 200 2181 54 
Q 1900 -91 1497 -91 
Q 953 -91 614 226 
Q 275 544 275 1050 
Q 275 1666 698 1953 
Q 1122 2241 2028 2241 
L 2688 2241 
L 2688 2328 
Q 2688 2594 2478 2717 
Q 2269 2841 1825 2841 
Q 1466 2841 1156 2769 
Q 847 2697 581 2553 
L 581 3406 
Q 941 3494 1303 3539 
Q 1666 3584 2028 3584 
Q 2975 3584 3395 3211 
Q 3816 2838 3816 1997 
z
" transform="scale(0.015625)"/>
      <path id="DejaVuSans-Bold-29" d="M 513 -844 
Q 913 -100 1113 609 
Q 1313 1319 1313 2009 
Q 1313 2700 1113 3408 
Q 913 4116 513 4856 
L 1441 4856 
Q 1916 4091 2145 3389 
Q 2375 2688 2375 2003 
Q 2375 1319 2147 623 
Q 1919 -72 1441 -844 
L 513 -844 
z
" transform="scale(0.015625)"/>
      <path id="DejaVuSans-Bold-20" transform="scale(0.015625)"/>
      <path id="DejaVuSans-Bold-52" d="M 2297 2597 
Q 2675 2597 2839 2737 
Q 3003 2878 3003 3200 
Q 3003 3519 2839 3656 
Q 2675 3794 2297 3794 
L 1791 3794 
L 1791 2597 
L 2297 2597 
z
M 1791 1766 
L 1791 0 
L 588 0 
L 588 4666 
L 2425 4666 
Q 3347 4666 3776 4356 
Q 4206 4047 4206 3378 
Q 4206 2916 3982 2619 
Q 3759 2322 3309 2181 
Q 3556 2125 3751 1926 
Q 3947 1728 4147 1325 
L 4800 0 
L 3519 0 
L 2950 1159 
Q 2778 1509 2601 1637 
Q 2425 1766 2131 1766 
L 1791 1766 
z
" transform="scale(0.015625)"/>
      <path id="DejaVuSans-Bold-42" d="M 2456 2859 
Q 2741 2859 2887 2984 
Q 3034 3109 3034 3353 
Q 3034 3594 2887 3720 
Q 2741 3847 2456 3847 
L 1791 3847 
L 1791 2859 
L 2456 2859 
z
M 2497 819 
Q 2859 819 3042 972 
Q 3225 1125 3225 1434 
Q 3225 1738 3044 1889 
Q 2863 2041 2497 2041 
L 1791 2041 
L 1791 819 
L 2497 819 
z
M 3616 2497 
Q 4003 2384 4215 2081 
Q 4428 1778 4428 1338 
Q 4428 663 3972 331 
Q 3516 0 2584 0 
L 588 0 
L 588 4666 
L 2394 4666 
Q 3366 4666 3802 4372 
Q 4238 4078 4238 3431 
Q 4238 3091 4078 2852 
Q 3919 2613 3616 2497 
z
" transform="scale(0.015625)"/>
      <path id="DejaVuSans-Bold-46" d="M 588 4666 
L 3834 4666 
L 3834 3756 
L 1791 3756 
L 1791 2888 
L 3713 2888 
L 3713 1978 
L 1791 1978 
L 1791 0 
L 588 0 
L 588 4666 
z
" transform="scale(0.015625)"/>
      <path id="DejaVuSans-Bold-d7" d="M 4563 3359 
L 3206 2003 
L 4563 653 
L 4038 128 
L 2681 1478 
L 1325 128 
L 800 653 
L 2156 2003 
L 800 3359 
L 1325 3884 
L 2681 2528 
L 4038 3884 
L 4563 3359 
z
" transform="scale(0.015625)"/>
     </defs>
     <use xlink:href="#DejaVuSans-Bold-28"/>
     <use xlink:href="#DejaVuSans-Bold-61" transform="translate(45.703125 0)"/>
     <use xlink:href="#DejaVuSans-Bold-29" transform="translate(113.183594 0)"/>
     <use xlink:href="#DejaVuSans-Bold-20" transform="translate(158.886719 0)"/>
     <use xlink:href="#DejaVuSans-Bold-52" transform="translate(193.701172 0)"/>
     <use xlink:href="#DejaVuSans-Bold-42" transform="translate(270.703125 0)"/>
     <use xlink:href="#DejaVuSans-Bold-42" transform="translate(346.923828 0)"/>
     <use xlink:href="#DejaVuSans-Bold-46" transform="translate(423.144531 0)"/>
     <use xlink:href="#DejaVuSans-Bold-20" transform="translate(491.455078 0)"/>
     <use xlink:href="#DejaVuSans-Bold-d7" transform="translate(526.269531 0)"/>
     <use xlink:href="#DejaVuSans-Bold-20" transform="translate(610.058594 0)"/>
     <use xlink:href="#DejaVuSans-Bold-43" transform="translate(644.873047 0)"/>
     <use xlink:href="#DejaVuSans-Bold-49" transform="translate(718.261719 0)"/>
     <use xlink:href="#DejaVuSans-Bold-44" transform="translate(755.46875 0)"/>
     <use xlink:href="#DejaVuSans-Bold-45" transform="translate(838.476562 0)"/>
     <use xlink:href="#DejaVuSans-Bold-72" transform="translate(906.787109 0)"/>
    </g>
   </g>
  </g>
  <g id="axes_2">
   <g id="patch_6">
    <path d="M 445.36 218.88 
L 767.925 218.88 
L 767.925 47.52 
L 445.36 47.52 
z
" style="fill: #ffffff"/>
   </g>
   <g id="FillBetweenPolyCollection_3">
    <defs>
     <path id="m1e5786ab1b" d="M 445.36 -372.544646 
L 445.36 -285.12 
L 509.873 -285.12 
L 574.386 -285.12 
L 638.899 -285.12 
L 703.412 -285.12 
L 767.925 -285.12 
L 767.925 -297.357168 
L 767.925 -297.357168 
L 703.412 -351.672298 
L 638.899 -369.172994 
L 574.386 -371.920491 
L 509.873 -371.678322 
L 445.36 -372.544646 
z
" style="stroke: #2e5c8a; stroke-opacity: 0.16"/>
    </defs>
    <g clip-path="url(#p1d404c28f4)">
     <use xlink:href="#m1e5786ab1b" x="0" y="504" style="fill: #2e5c8a; fill-opacity: 0.16; stroke: #2e5c8a; stroke-opacity: 0.16"/>
    </g>
   </g>
   <g id="FillBetweenPolyCollection_4">
    <defs>
     <path id="md9c42afa63" d="M 445.36 -434.128696 
L 445.36 -285.12 
L 509.873 -285.12 
L 574.386 -285.12 
L 638.899 -285.12 
L 703.412 -285.12 
L 767.925 -285.12 
L 767.925 -286.568452 
L 767.925 -286.568452 
L 703.412 -286.792333 
L 638.899 -292.712598 
L 574.386 -317.352674 
L 509.873 -342.767821 
L 445.36 -434.128696 
z
" style="stroke: #e67e22; stroke-opacity: 0.2"/>
    </defs>
    <g clip-path="url(#p1d404c28f4)">
     <use xlink:href="#md9c42afa63" x="0" y="504" style="fill: #e67e22; fill-opacity: 0.2; stroke: #e67e22; stroke-opacity: 0.2"/>
    </g>
   </g>
   <g id="matplotlib.axis_3">
    <g id="xtick_7">
     <g id="line2d_15">
      <g>
       <use xlink:href="#mab8e9c2be2" x="445.36" y="218.88" style="stroke: #000000; stroke-width: 0.8"/>
      </g>
     </g>
     <g id="text_15">
      <!-- S0 -->
      <g transform="translate(436.462344 236.517812) scale(0.14 -0.14)">
       <use xlink:href="#DejaVuSans-53"/>
       <use xlink:href="#DejaVuSans-30" transform="translate(63.476562 0)"/>
      </g>
     </g>
    </g>
    <g id="xtick_8">
     <g id="line2d_16">
      <g>
       <use xlink:href="#mab8e9c2be2" x="509.873" y="218.88" style="stroke: #000000; stroke-width: 0.8"/>
      </g>
     </g>
     <g id="text_16">
      <!-- S1 -->
      <g transform="translate(500.975344 236.517812) scale(0.14 -0.14)">
       <use xlink:href="#DejaVuSans-53"/>
       <use xlink:href="#DejaVuSans-31" transform="translate(63.476562 0)"/>
      </g>
     </g>
    </g>
    <g id="xtick_9">
     <g id="line2d_17">
      <g>
       <use xlink:href="#mab8e9c2be2" x="574.386" y="218.88" style="stroke: #000000; stroke-width: 0.8"/>
      </g>
     </g>
     <g id="text_17">
      <!-- S2 -->
      <g transform="translate(565.488344 236.517812) scale(0.14 -0.14)">
       <use xlink:href="#DejaVuSans-53"/>
       <use xlink:href="#DejaVuSans-32" transform="translate(63.476562 0)"/>
      </g>
     </g>
    </g>
    <g id="xtick_10">
     <g id="line2d_18">
      <g>
       <use xlink:href="#mab8e9c2be2" x="638.899" y="218.88" style="stroke: #000000; stroke-width: 0.8"/>
      </g>
     </g>
     <g id="text_18">
      <!-- S3 -->
      <g transform="translate(630.001344 236.517812) scale(0.14 -0.14)">
       <use xlink:href="#DejaVuSans-53"/>
       <use xlink:href="#DejaVuSans-33" transform="translate(63.476562 0)"/>
      </g>
     </g>
    </g>
    <g id="xtick_11">
     <g id="line2d_19">
      <g>
       <use xlink:href="#mab8e9c2be2" x="703.412" y="218.88" style="stroke: #000000; stroke-width: 0.8"/>
      </g>
     </g>
     <g id="text_19">
      <!-- S4 -->
      <g transform="translate(694.514344 236.517812) scale(0.14 -0.14)">
       <use xlink:href="#DejaVuSans-53"/>
       <use xlink:href="#DejaVuSans-34" transform="translate(63.476562 0)"/>
      </g>
     </g>
    </g>
    <g id="xtick_12">
     <g id="line2d_20">
      <g>
       <use xlink:href="#mab8e9c2be2" x="767.925" y="218.88" style="stroke: #000000; stroke-width: 0.8"/>
      </g>
     </g>
     <g id="text_20">
      <!-- S5 -->
      <g transform="translate(759.027344 236.517812) scale(0.14 -0.14)">
       <use xlink:href="#DejaVuSans-53"/>
       <use xlink:href="#DejaVuSans-35" transform="translate(63.476562 0)"/>
      </g>
     </g>
    </g>
   </g>
   <g id="matplotlib.axis_4">
    <g id="ytick_7">
     <g id="line2d_21">
      <g>
       <use xlink:href="#m49efcfc595" x="445.36" y="218.88" style="stroke: #000000; stroke-width: 0.8"/>
      </g>
     </g>
     <g id="text_21">
      <!-- 0 -->
      <g transform="translate(429.4525 224.198906) scale(0.14 -0.14)">
       <use xlink:href="#DejaVuSans-30"/>
      </g>
     </g>
    </g>
    <g id="ytick_8">
     <g id="line2d_22">
      <g>
       <use xlink:href="#m49efcfc595" x="445.36" y="185.970583" style="stroke: #000000; stroke-width: 0.8"/>
      </g>
     </g>
     <g id="text_22">
      <!-- 25 -->
      <g transform="translate(420.545 191.289489) scale(0.14 -0.14)">
       <use xlink:href="#DejaVuSans-32"/>
       <use xlink:href="#DejaVuSans-35" transform="translate(63.623047 0)"/>
      </g>
     </g>
    </g>
    <g id="ytick_9">
     <g id="line2d_23">
      <g>
       <use xlink:href="#m49efcfc595" x="445.36" y="153.061166" style="stroke: #000000; stroke-width: 0.8"/>
      </g>
     </g>
     <g id="text_23">
      <!-- 50 -->
      <g transform="translate(420.545 158.380073) scale(0.14 -0.14)">
       <use xlink:href="#DejaVuSans-35"/>
       <use xlink:href="#DejaVuSans-30" transform="translate(63.623047 0)"/>
      </g>
     </g>
    </g>
    <g id="ytick_10">
     <g id="line2d_24">
      <g>
       <use xlink:href="#m49efcfc595" x="445.36" y="120.15175" style="stroke: #000000; stroke-width: 0.8"/>
      </g>
     </g>
     <g id="text_24">
      <!-- 75 -->
      <g transform="translate(420.545 125.470656) scale(0.14 -0.14)">
       <use xlink:href="#DejaVuSans-37"/>
       <use xlink:href="#DejaVuSans-35" transform="translate(63.623047 0)"/>
      </g>
     </g>
    </g>
    <g id="ytick_11">
     <g id="line2d_25">
      <g>
       <use xlink:href="#m49efcfc595" x="445.36" y="87.242333" style="stroke: #000000; stroke-width: 0.8"/>
      </g>
     </g>
     <g id="text_25">
      <!-- 100 -->
      <g transform="translate(411.6375 92.561239) scale(0.14 -0.14)">
       <use xlink:href="#DejaVuSans-31"/>
       <use xlink:href="#DejaVuSans-30" transform="translate(63.623047 0)"/>
       <use xlink:href="#DejaVuSans-30" transform="translate(127.246094 0)"/>
      </g>
     </g>
    </g>
    <g id="ytick_12">
     <g id="line2d_26">
      <g>
       <use xlink:href="#m49efcfc595" x="445.36" y="54.332916" style="stroke: #000000; stroke-width: 0.8"/>
      </g>
     </g>
     <g id="text_26">
      <!-- 125 -->
      <g transform="translate(411.6375 59.651822) scale(0.14 -0.14)">
       <use xlink:href="#DejaVuSans-31"/>
       <use xlink:href="#DejaVuSans-32" transform="translate(63.623047 0)"/>
       <use xlink:href="#DejaVuSans-35" transform="translate(127.246094 0)"/>
      </g>
     </g>
    </g>
   </g>
   <g id="line2d_27">
    <path d="M 445.36 131.455354 
L 509.873 132.321678 
L 574.386 132.079509 
L 638.899 134.827006 
L 703.412 152.327702 
L 767.925 206.642832 
" clip-path="url(#p1d404c28f4)" style="fill: none; stroke: #2e5c8a; stroke-width: 2.4; stroke-linecap: square"/>
    <g clip-path="url(#p1d404c28f4)">
     <use xlink:href="#ma84e08b483" x="445.36" y="131.455354" style="fill: #2e5c8a; stroke: #2e5c8a"/>
     <use xlink:href="#ma84e08b483" x="509.873" y="132.321678" style="fill: #2e5c8a; stroke: #2e5c8a"/>
     <use xlink:href="#ma84e08b483" x="574.386" y="132.079509" style="fill: #2e5c8a; stroke: #2e5c8a"/>
     <use xlink:href="#ma84e08b483" x="638.899" y="134.827006" style="fill: #2e5c8a; stroke: #2e5c8a"/>
     <use xlink:href="#ma84e08b483" x="703.412" y="152.327702" style="fill: #2e5c8a; stroke: #2e5c8a"/>
     <use xlink:href="#ma84e08b483" x="767.925" y="206.642832" style="fill: #2e5c8a; stroke: #2e5c8a"/>
    </g>
   </g>
   <g id="line2d_28">
    <path d="M 445.36 69.871304 
L 509.873 161.232179 
L 574.386 186.647326 
L 638.899 211.287402 
L 703.412 217.207667 
L 767.925 217.431548 
" clip-path="url(#p1d404c28f4)" style="fill: none; stroke-dasharray: 7.4,3.2; stroke-dashoffset: 0; stroke: #e67e22; stroke-opacity: 0.8; stroke-width: 2"/>
    <g clip-path="url(#p1d404c28f4)">
     <use xlink:href="#m42728747e3" x="445.36" y="69.871304" style="fill: #e67e22; fill-opacity: 0.8; stroke: #e67e22; stroke-opacity: 0.8; stroke-linejoin: miter"/>
     <use xlink:href="#m42728747e3" x="509.873" y="161.232179" style="fill: #e67e22; fill-opacity: 0.8; stroke: #e67e22; stroke-opacity: 0.8; stroke-linejoin: miter"/>
     <use xlink:href="#m42728747e3" x="574.386" y="186.647326" style="fill: #e67e22; fill-opacity: 0.8; stroke: #e67e22; stroke-opacity: 0.8; stroke-linejoin: miter"/>
     <use xlink:href="#m42728747e3" x="638.899" y="211.287402" style="fill: #e67e22; fill-opacity: 0.8; stroke: #e67e22; stroke-opacity: 0.8; stroke-linejoin: miter"/>
     <use xlink:href="#m42728747e3" x="703.412" y="217.207667" style="fill: #e67e22; fill-opacity: 0.8; stroke: #e67e22; stroke-opacity: 0.8; stroke-linejoin: miter"/>
     <use xlink:href="#m42728747e3" x="767.925" y="217.431548" style="fill: #e67e22; fill-opacity: 0.8; stroke: #e67e22; stroke-opacity: 0.8; stroke-linejoin: miter"/>
    </g>
   </g>
   <g id="patch_7">
    <path d="M 445.36 218.88 
L 445.36 47.52 
" style="fill: none; stroke: #000000; stroke-width: 0.8; stroke-linejoin: miter; stroke-linecap: square"/>
   </g>
   <g id="patch_8">
    <path d="M 445.36 218.88 
L 767.925 218.88 
" style="fill: none; stroke: #000000; stroke-width: 0.8; stroke-linejoin: miter; stroke-linecap: square"/>
   </g>
   <g id="text_27">
    <g id="patch_9">
     <path d="M 610.113391 85.037562 
L 732.197609 85.037562 
Q 739.997609 85.037562 739.997609 77.237562 
L 739.997609 64.656 
Q 739.997609 56.856 732.197609 56.856 
L 610.113391 56.856 
Q 602.313391 56.856 602.313391 64.656 
L 602.313391 77.237562 
Q 602.313391 85.037562 610.113391 85.037562 
z
" style="fill: #ffffff; opacity: 0.9; stroke: #808080; stroke-width: 1.5; stroke-linejoin: miter"/>
    </g>
    <!-- (c) RBSL × CIDEr -->
    <g transform="translate(610.113391 74.533969) scale(0.13 -0.13)">
     <defs>
      <path id="DejaVuSans-Bold-63" d="M 3366 3391 
L 3366 2478 
Q 3138 2634 2908 2709 
Q 2678 2784 2431 2784 
Q 1963 2784 1702 2511 
Q 1441 2238 1441 1747 
Q 1441 1256 1702 982 
Q 1963 709 2431 709 
Q 2694 709 2930 787 
Q 3166 866 3366 1019 
L 3366 103 
Q 3103 6 2833 -42 
Q 2563 -91 2291 -91 
Q 1344 -91 809 395 
Q 275 881 275 1747 
Q 275 2613 809 3098 
Q 1344 3584 2291 3584 
Q 2566 3584 2833 3536 
Q 3100 3488 3366 3391 
z
" transform="scale(0.015625)"/>
      <path id="DejaVuSans-Bold-53" d="M 3834 4519 
L 3834 3531 
Q 3450 3703 3084 3790 
Q 2719 3878 2394 3878 
Q 1963 3878 1756 3759 
Q 1550 3641 1550 3391 
Q 1550 3203 1689 3098 
Q 1828 2994 2194 2919 
L 2706 2816 
Q 3484 2659 3812 2340 
Q 4141 2022 4141 1434 
Q 4141 663 3683 286 
Q 3225 -91 2284 -91 
Q 1841 -91 1394 -6 
Q 947 78 500 244 
L 500 1259 
Q 947 1022 1364 901 
Q 1781 781 2169 781 
Q 2563 781 2772 912 
Q 2981 1044 2981 1288 
Q 2981 1506 2839 1625 
Q 2697 1744 2272 1838 
L 1806 1941 
Q 1106 2091 782 2419 
Q 459 2747 459 3303 
Q 459 4000 909 4375 
Q 1359 4750 2203 4750 
Q 2588 4750 2994 4692 
Q 3400 4634 3834 4519 
z
" transform="scale(0.015625)"/>
      <path id="DejaVuSans-Bold-4c" d="M 588 4666 
L 1791 4666 
L 1791 909 
L 3903 909 
L 3903 0 
L 588 0 
L 588 4666 
z
" transform="scale(0.015625)"/>
     </defs>
     <use xlink:href="#DejaVuSans-Bold-28"/>
     <use xlink:href="#DejaVuSans-Bold-63" transform="translate(45.703125 0)"/>
     <use xlink:href="#DejaVuSans-Bold-29" transform="translate(104.980469 0)"/>
     <use xlink:href="#DejaVuSans-Bold-20" transform="translate(150.683594 0)"/>
     <use xlink:href="#DejaVuSans-Bold-52" transform="translate(185.498047 0)"/>
     <use xlink:href="#DejaVuSans-Bold-42" transform="translate(262.5 0)"/>
     <use xlink:href="#DejaVuSans-Bold-53" transform="translate(338.720703 0)"/>
     <use xlink:href="#DejaVuSans-Bold-4c" transform="translate(410.742188 0)"/>
     <use xlink:href="#DejaVuSans-Bold-20" transform="translate(474.462891 0)"/>
     <use xlink:href="#DejaVuSans-Bold-d7" transform="translate(509.277344 0)"/>
     <use xlink:href="#DejaVuSans-Bold-20" transform="translate(593.066406 0)"/>
     <use xlink:href="#DejaVuSans-Bold-43" transform="translate(627.880859 0)"/>
     <use xlink:href="#DejaVuSans-Bold-49" transform="translate(701.269531 0)"/>
     <use xlink:href="#DejaVuSans-Bold-44" transform="translate(738.476562 0)"/>
     <use xlink:href="#DejaVuSans-Bold-45" transform="translate(821.484375 0)"/>
     <use xlink:href="#DejaVuSans-Bold-72" transform="translate(889.794922 0)"/>
    </g>
   </g>
  </g>
  <g id="axes_3">
   <g id="patch_10">
    <path d="M 64.9 426.04 
L 387.465 426.04 
L 387.465 254.68 
L 64.9 254.68 
z
" style="fill: #ffffff"/>
   </g>
   <g id="FillBetweenPolyCollection_5">
    <defs>
     <path id="m1338c99381" d="M 64.9 -166.5109 
L 64.9 -77.96 
L 129.413 -77.96 
L 193.926 -77.96 
L 258.439 -77.96 
L 322.952 -77.96 
L 387.465 -77.96 
L 387.465 -98.419431 
L 387.465 -98.419431 
L 322.952 -152.378739 
L 258.439 -161.592664 
L 193.926 -164.023851 
L 129.413 -166.568936 
L 64.9 -166.5109 
z
" style="stroke: #2e5c8a; stroke-opacity: 0.16"/>
    </defs>
    <g clip-path="url(#pa95ce63800)">
     <use xlink:href="#m1338c99381" x="0" y="504" style="fill: #2e5c8a; fill-opacity: 0.16; stroke: #2e5c8a; stroke-opacity: 0.16"/>
    </g>
   </g>
   <g id="FillBetweenPolyCollection_6">
    <defs>
     <path id="m33d7e01118" d="M 64.9 -226.968696 
L 64.9 -77.96 
L 129.413 -77.96 
L 193.926 -77.96 
L 258.439 -77.96 
L 322.952 -77.96 
L 387.465 -77.96 
L 387.465 -82.619801 
L 387.465 -82.619801 
L 322.952 -85.161228 
L 258.439 -89.542697 
L 193.926 -104.569149 
L 129.413 -165.839621 
L 64.9 -226.968696 
z
" style="stroke: #e67e22; stroke-opacity: 0.2"/>
    </defs>
    <g clip-path="url(#pa95ce63800)">
     <use xlink:href="#m33d7e01118" x="0" y="504" style="fill: #e67e22; fill-opacity: 0.2; stroke: #e67e22; stroke-opacity: 0.2"/>
    </g>
   </g>
   <g id="matplotlib.axis_5">
    <g id="xtick_13">
     <g id="line2d_29">
      <g>
       <use xlink:href="#mab8e9c2be2" x="64.9" y="426.04" style="stroke: #000000; stroke-width: 0.8"/>
      </g>
     </g>
     <g id="text_28">
      <!-- S0 -->
      <g transform="translate(56.002344 443.677812) scale(0.14 -0.14)">
       <use xlink:href="#DejaVuSans-53"/>
       <use xlink:href="#DejaVuSans-30" transform="translate(63.476562 0)"/>
      </g>
     </g>
    </g>
    <g id="xtick_14">
     <g id="line2d_30">
      <g>
       <use xlink:href="#mab8e9c2be2" x="129.413" y="426.04" style="stroke: #000000; stroke-width: 0.8"/>
      </g>
     </g>
     <g id="text_29">
      <!-- S1 -->
      <g transform="translate(120.515344 443.677812) scale(0.14 -0.14)">
       <use xlink:href="#DejaVuSans-53"/>
       <use xlink:href="#DejaVuSans-31" transform="translate(63.476562 0)"/>
      </g>
     </g>
    </g>
    <g id="xtick_15">
     <g id="line2d_31">
      <g>
       <use xlink:href="#mab8e9c2be2" x="193.926" y="426.04" style="stroke: #000000; stroke-width: 0.8"/>
      </g>
     </g>
     <g id="text_30">
      <!-- S2 -->
      <g transform="translate(185.028344 443.677812) scale(0.14 -0.14)">
       <use xlink:href="#DejaVuSans-53"/>
       <use xlink:href="#DejaVuSans-32" transform="translate(63.476562 0)"/>
      </g>
     </g>
    </g>
    <g id="xtick_16">
     <g id="line2d_32">
      <g>
       <use xlink:href="#mab8e9c2be2" x="258.439" y="426.04" style="stroke: #000000; stroke-width: 0.8"/>
      </g>
     </g>
     <g id="text_31">
      <!-- S3 -->
      <g transform="translate(249.541344 443.677812) scale(0.14 -0.14)">
       <use xlink:href="#DejaVuSans-53"/>
       <use xlink:href="#DejaVuSans-33" transform="translate(63.476562 0)"/>
      </g>
     </g>
    </g>
    <g id="xtick_17">
     <g id="line2d_33">
      <g>
       <use xlink:href="#mab8e9c2be2" x="322.952" y="426.04" style="stroke: #000000; stroke-width: 0.8"/>
      </g>
     </g>
     <g id="text_32">
      <!-- S4 -->
      <g transform="translate(314.054344 443.677812) scale(0.14 -0.14)">
       <use xlink:href="#DejaVuSans-53"/>
       <use xlink:href="#DejaVuSans-34" transform="translate(63.476562 0)"/>
      </g>
     </g>
    </g>
    <g id="xtick_18">
     <g id="line2d_34">
      <g>
       <use xlink:href="#mab8e9c2be2" x="387.465" y="426.04" style="stroke: #000000; stroke-width: 0.8"/>
      </g>
     </g>
     <g id="text_33">
      <!-- S5 -->
      <g transform="translate(378.567344 443.677812) scale(0.14 -0.14)">
       <use xlink:href="#DejaVuSans-53"/>
       <use xlink:href="#DejaVuSans-35" transform="translate(63.476562 0)"/>
      </g>
     </g>
    </g>
    <g id="text_34">
     <!-- Corruption severity -->
     <g transform="translate(160.350312 459.7075) scale(0.12 -0.12)">
      <defs>
       <path id="DejaVuSans-Bold-6f" d="M 2203 2784 
Q 1831 2784 1636 2517 
Q 1441 2250 1441 1747 
Q 1441 1244 1636 976 
Q 1831 709 2203 709 
Q 2569 709 2762 976 
Q 2956 1244 2956 1747 
Q 2956 2250 2762 2517 
Q 2569 2784 2203 2784 
z
M 2203 3584 
Q 3106 3584 3614 3096 
Q 4122 2609 4122 1747 
Q 4122 884 3614 396 
Q 3106 -91 2203 -91 
Q 1297 -91 786 396 
Q 275 884 275 1747 
Q 275 2609 786 3096 
Q 1297 3584 2203 3584 
z
" transform="scale(0.015625)"/>
       <path id="DejaVuSans-Bold-75" d="M 500 1363 
L 500 3500 
L 1625 3500 
L 1625 3150 
Q 1625 2866 1622 2436 
Q 1619 2006 1619 1863 
Q 1619 1441 1641 1255 
Q 1663 1069 1716 984 
Q 1784 875 1895 815 
Q 2006 756 2150 756 
Q 2500 756 2700 1025 
Q 2900 1294 2900 1772 
L 2900 3500 
L 4019 3500 
L 4019 0 
L 2900 0 
L 2900 506 
Q 2647 200 2364 54 
Q 2081 -91 1741 -91 
Q 1134 -91 817 281 
Q 500 653 500 1363 
z
" transform="scale(0.015625)"/>
       <path id="DejaVuSans-Bold-70" d="M 1656 506 
L 1656 -1331 
L 538 -1331 
L 538 3500 
L 1656 3500 
L 1656 2988 
Q 1888 3294 2169 3439 
Q 2450 3584 2816 3584 
Q 3463 3584 3878 3070 
Q 4294 2556 4294 1747 
Q 4294 938 3878 423 
Q 3463 -91 2816 -91 
Q 2450 -91 2169 54 
Q 1888 200 1656 506 
z
M 2400 2772 
Q 2041 2772 1848 2508 
Q 1656 2244 1656 1747 
Q 1656 1250 1848 986 
Q 2041 722 2400 722 
Q 2759 722 2948 984 
Q 3138 1247 3138 1747 
Q 3138 2247 2948 2509 
Q 2759 2772 2400 2772 
z
" transform="scale(0.015625)"/>
       <path id="DejaVuSans-Bold-74" d="M 1759 4494 
L 1759 3500 
L 2913 3500 
L 2913 2700 
L 1759 2700 
L 1759 1216 
Q 1759 972 1856 886 
Q 1953 800 2241 800 
L 2816 800 
L 2816 0 
L 1856 0 
Q 1194 0 917 276 
Q 641 553 641 1216 
L 641 2700 
L 84 2700 
L 84 3500 
L 641 3500 
L 641 4494 
L 1759 4494 
z
" transform="scale(0.015625)"/>
       <path id="DejaVuSans-Bold-69" d="M 538 3500 
L 1656 3500 
L 1656 0 
L 538 0 
L 538 3500 
z
M 538 4863 
L 1656 4863 
L 1656 3950 
L 538 3950 
L 538 4863 
z
" transform="scale(0.015625)"/>
       <path id="DejaVuSans-Bold-6e" d="M 4056 2131 
L 4056 0 
L 2931 0 
L 2931 347 
L 2931 1631 
Q 2931 2084 2911 2256 
Q 2891 2428 2841 2509 
Q 2775 2619 2662 2680 
Q 2550 2741 2406 2741 
Q 2056 2741 1856 2470 
Q 1656 2200 1656 1722 
L 1656 0 
L 538 0 
L 538 3500 
L 1656 3500 
L 1656 2988 
Q 1909 3294 2193 3439 
Q 2478 3584 2822 3584 
Q 3428 3584 3742 3212 
Q 4056 2841 4056 2131 
z
" transform="scale(0.015625)"/>
       <path id="DejaVuSans-Bold-73" d="M 3272 3391 
L 3272 2541 
Q 2913 2691 2578 2766 
Q 2244 2841 1947 2841 
Q 1628 2841 1473 2761 
Q 1319 2681 1319 2516 
Q 1319 2381 1436 2309 
Q 1553 2238 1856 2203 
L 2053 2175 
Q 2913 2066 3209 1816 
Q 3506 1566 3506 1031 
Q 3506 472 3093 190 
Q 2681 -91 1863 -91 
Q 1516 -91 1145 -36 
Q 775 19 384 128 
L 384 978 
Q 719 816 1070 734 
Q 1422 653 1784 653 
Q 2113 653 2278 743 
Q 2444 834 2444 1013 
Q 2444 1163 2330 1236 
Q 2216 1309 1875 1350 
L 1678 1375 
Q 931 1469 631 1722 
Q 331 1975 331 2491 
Q 331 3047 712 3315 
Q 1094 3584 1881 3584 
Q 2191 3584 2531 3537 
Q 2872 3491 3272 3391 
z
" transform="scale(0.015625)"/>
       <path id="DejaVuSans-Bold-65" d="M 4031 1759 
L 4031 1441 
L 1416 1441 
Q 1456 1047 1700 850 
Q 1944 653 2381 653 
Q 2734 653 3104 758 
Q 3475 863 3866 1075 
L 3866 213 
Q 3469 63 3072 -14 
Q 2675 -91 2278 -91 
Q 1328 -91 801 392 
Q 275 875 275 1747 
Q 275 2603 792 3093 
Q 1309 3584 2216 3584 
Q 3041 3584 3536 3087 
Q 4031 2591 4031 1759 
z
M 2881 2131 
Q 2881 2450 2695 2645 
Q 2509 2841 2209 2841 
Q 1884 2841 1681 2658 
Q 1478 2475 1428 2131 
L 2881 2131 
z
" transform="scale(0.015625)"/>
       <path id="DejaVuSans-Bold-76" d="M 97 3500 
L 1216 3500 
L 2088 1081 
L 2956 3500 
L 4078 3500 
L 2700 0 
L 1472 0 
L 97 3500 
z
" transform="scale(0.015625)"/>
       <path id="DejaVuSans-Bold-79" d="M 78 3500 
L 1197 3500 
L 2138 1125 
L 2938 3500 
L 4056 3500 
L 2584 -331 
Q 2363 -916 2067 -1148 
Q 1772 -1381 1288 -1381 
L 641 -1381 
L 641 -647 
L 991 -647 
Q 1275 -647 1404 -556 
Q 1534 -466 1606 -231 
L 1638 -134 
L 78 3500 
z
" transform="scale(0.015625)"/>
      </defs>
      <use xlink:href="#DejaVuSans-Bold-43"/>
      <use xlink:href="#DejaVuSans-Bold-6f" transform="translate(73.388672 0)"/>
      <use xlink:href="#DejaVuSans-Bold-72" transform="translate(142.089844 0)"/>
      <use xlink:href="#DejaVuSans-Bold-72" transform="translate(191.40625 0)"/>
      <use xlink:href="#DejaVuSans-Bold-75" transform="translate(240.722656 0)"/>
      <use xlink:href="#DejaVuSans-Bold-70" transform="translate(311.914062 0)"/>
      <use xlink:href="#DejaVuSans-Bold-74" transform="translate(383.496094 0)"/>
      <use xlink:href="#DejaVuSans-Bold-69" transform="translate(431.298828 0)"/>
      <use xlink:href="#DejaVuSans-Bold-6f" transform="translate(465.576172 0)"/>
      <use xlink:href="#DejaVuSans-Bold-6e" transform="translate(534.277344 0)"/>
      <use xlink:href="#DejaVuSans-Bold-20" transform="translate(605.46875 0)"/>
      <use xlink:href="#DejaVuSans-Bold-73" transform="translate(640.283203 0)"/>
      <use xlink:href="#DejaVuSans-Bold-65" transform="translate(699.804688 0)"/>
      <use xlink:href="#DejaVuSans-Bold-76" transform="translate(767.626953 0)"/>
      <use xlink:href="#DejaVuSans-Bold-65" transform="translate(832.8125 0)"/>
      <use xlink:href="#DejaVuSans-Bold-72" transform="translate(900.634766 0)"/>
      <use xlink:href="#DejaVuSans-Bold-69" transform="translate(949.951172 0)"/>
      <use xlink:href="#DejaVuSans-Bold-74" transform="translate(984.228516 0)"/>
      <use xlink:href="#DejaVuSans-Bold-79" transform="translate(1032.03125 0)"/>
     </g>
    </g>
   </g>
   <g id="matplotlib.axis_6">
    <g id="ytick_13">
     <g id="line2d_35">
      <g>
       <use xlink:href="#m49efcfc595" x="64.9" y="426.04" style="stroke: #000000; stroke-width: 0.8"/>
      </g>
     </g>
     <g id="text_35">
      <!-- 0 -->
      <g transform="translate(48.9925 431.358906) scale(0.14 -0.14)">
       <use xlink:href="#DejaVuSans-30"/>
      </g>
     </g>
    </g>
    <g id="ytick_14">
     <g id="line2d_36">
      <g>
       <use xlink:href="#m49efcfc595" x="64.9" y="392.922737" style="stroke: #000000; stroke-width: 0.8"/>
      </g>
     </g>
     <g id="text_36">
      <!-- 5 -->
      <g transform="translate(48.9925 398.241643) scale(0.14 -0.14)">
       <use xlink:href="#DejaVuSans-35"/>
      </g>
     </g>
    </g>
    <g id="ytick_15">
     <g id="line2d_37">
      <g>
       <use xlink:href="#m49efcfc595" x="64.9" y="359.805474" style="stroke: #000000; stroke-width: 0.8"/>
      </g>
     </g>
     <g id="text_37">
      <!-- 10 -->
      <g transform="translate(40.085 365.12438) scale(0.14 -0.14)">
       <use xlink:href="#DejaVuSans-31"/>
       <use xlink:href="#DejaVuSans-30" transform="translate(63.623047 0)"/>
      </g>
     </g>
    </g>
    <g id="ytick_16">
     <g id="line2d_38">
      <g>
       <use xlink:href="#m49efcfc595" x="64.9" y="326.688211" style="stroke: #000000; stroke-width: 0.8"/>
      </g>
     </g>
     <g id="text_38">
      <!-- 15 -->
      <g transform="translate(40.085 332.007117) scale(0.14 -0.14)">
       <use xlink:href="#DejaVuSans-31"/>
       <use xlink:href="#DejaVuSans-35" transform="translate(63.623047 0)"/>
      </g>
     </g>
    </g>
    <g id="ytick_17">
     <g id="line2d_39">
      <g>
       <use xlink:href="#m49efcfc595" x="64.9" y="293.570948" style="stroke: #000000; stroke-width: 0.8"/>
      </g>
     </g>
     <g id="text_39">
      <!-- 20 -->
      <g transform="translate(40.085 298.889854) scale(0.14 -0.14)">
       <use xlink:href="#DejaVuSans-32"/>
       <use xlink:href="#DejaVuSans-30" transform="translate(63.623047 0)"/>
      </g>
     </g>
    </g>
    <g id="ytick_18">
     <g id="line2d_40">
      <g>
       <use xlink:href="#m49efcfc595" x="64.9" y="260.453685" style="stroke: #000000; stroke-width: 0.8"/>
      </g>
     </g>
     <g id="text_40">
      <!-- 25 -->
      <g transform="translate(40.085 265.772591) scale(0.14 -0.14)">
       <use xlink:href="#DejaVuSans-32"/>
       <use xlink:href="#DejaVuSans-35" transform="translate(63.623047 0)"/>
      </g>
     </g>
    </g>
    <g id="text_41">
     <!-- SPICE -->
     <g transform="translate(34.589375 359.813125) rotate(-90) scale(0.12 -0.12)">
      <defs>
       <path id="DejaVuSans-Bold-50" d="M 588 4666 
L 2584 4666 
Q 3475 4666 3951 4270 
Q 4428 3875 4428 3144 
Q 4428 2409 3951 2014 
Q 3475 1619 2584 1619 
L 1791 1619 
L 1791 0 
L 588 0 
L 588 4666 
z
M 1791 3794 
L 1791 2491 
L 2456 2491 
Q 2806 2491 2997 2661 
Q 3188 2831 3188 3144 
Q 3188 3456 2997 3625 
Q 2806 3794 2456 3794 
L 1791 3794 
z
" transform="scale(0.015625)"/>
      </defs>
      <use xlink:href="#DejaVuSans-Bold-53"/>
      <use xlink:href="#DejaVuSans-Bold-50" transform="translate(72.021484 0)"/>
      <use xlink:href="#DejaVuSans-Bold-49" transform="translate(145.3125 0)"/>
      <use xlink:href="#DejaVuSans-Bold-43" transform="translate(182.519531 0)"/>
      <use xlink:href="#DejaVuSans-Bold-45" transform="translate(255.908203 0)"/>
     </g>
    </g>
   </g>
   <g id="line2d_41">
    <path d="M 64.9 337.4891 
L 129.413 337.431064 
L 193.926 339.976149 
L 258.439 342.407336 
L 322.952 351.621261 
L 387.465 405.580569 
" clip-path="url(#pa95ce63800)" style="fill: none; stroke: #2e5c8a; stroke-width: 2.4; stroke-linecap: square"/>
    <g clip-path="url(#pa95ce63800)">
     <use xlink:href="#ma84e08b483" x="64.9" y="337.4891" style="fill: #2e5c8a; stroke: #2e5c8a"/>
     <use xlink:href="#ma84e08b483" x="129.413" y="337.431064" style="fill: #2e5c8a; stroke: #2e5c8a"/>
     <use xlink:href="#ma84e08b483" x="193.926" y="339.976149" style="fill: #2e5c8a; stroke: #2e5c8a"/>
     <use xlink:href="#ma84e08b483" x="258.439" y="342.407336" style="fill: #2e5c8a; stroke: #2e5c8a"/>
     <use xlink:href="#ma84e08b483" x="322.952" y="351.621261" style="fill: #2e5c8a; stroke: #2e5c8a"/>
     <use xlink:href="#ma84e08b483" x="387.465" y="405.580569" style="fill: #2e5c8a; stroke: #2e5c8a"/>
    </g>
   </g>
   <g id="line2d_42">
    <path d="M 64.9 277.031304 
L 129.413 338.160379 
L 193.926 399.430851 
L 258.439 414.457303 
L 322.952 418.838772 
L 387.465 421.380199 
" clip-path="url(#pa95ce63800)" style="fill: none; stroke-dasharray: 7.4,3.2; stroke-dashoffset: 0; stroke: #e67e22; stroke-opacity: 0.8; stroke-width: 2"/>
    <g clip-path="url(#pa95ce63800)">
     <use xlink:href="#m42728747e3" x="64.9" y="277.031304" style="fill: #e67e22; fill-opacity: 0.8; stroke: #e67e22; stroke-opacity: 0.8; stroke-linejoin: miter"/>
     <use xlink:href="#m42728747e3" x="129.413" y="338.160379" style="fill: #e67e22; fill-opacity: 0.8; stroke: #e67e22; stroke-opacity: 0.8; stroke-linejoin: miter"/>
     <use xlink:href="#m42728747e3" x="193.926" y="399.430851" style="fill: #e67e22; fill-opacity: 0.8; stroke: #e67e22; stroke-opacity: 0.8; stroke-linejoin: miter"/>
     <use xlink:href="#m42728747e3" x="258.439" y="414.457303" style="fill: #e67e22; fill-opacity: 0.8; stroke: #e67e22; stroke-opacity: 0.8; stroke-linejoin: miter"/>
     <use xlink:href="#m42728747e3" x="322.952" y="418.838772" style="fill: #e67e22; fill-opacity: 0.8; stroke: #e67e22; stroke-opacity: 0.8; stroke-linejoin: miter"/>
     <use xlink:href="#m42728747e3" x="387.465" y="421.380199" style="fill: #e67e22; fill-opacity: 0.8; stroke: #e67e22; stroke-opacity: 0.8; stroke-linejoin: miter"/>
    </g>
   </g>
   <g id="patch_11">
    <path d="M 64.9 426.04 
L 64.9 254.68 
" style="fill: none; stroke: #000000; stroke-width: 0.8; stroke-linejoin: miter; stroke-linecap: square"/>
   </g>
   <g id="patch_12">
    <path d="M 64.9 426.04 
L 387.465 426.04 
" style="fill: none; stroke: #000000; stroke-width: 0.8; stroke-linejoin: miter; stroke-linecap: square"/>
   </g>
   <g id="text_42">
    <g id="patch_13">
     <path d="M 227.438312 292.197562 
L 353.952687 292.197562 
Q 361.752687 292.197562 361.752687 284.397562 
L 361.752687 271.816 
Q 361.752687 264.016 353.952687 264.016 
L 227.438312 264.016 
Q 219.638312 264.016 219.638312 271.816 
L 219.638312 284.397562 
Q 219.638312 292.197562 227.438312 292.197562 
z
" style="fill: #ffffff; opacity: 0.9; stroke: #808080; stroke-width: 1.5; stroke-linejoin: miter"/>
    </g>
    <!-- (b) RBBF × SPICE -->
    <g transform="translate(227.438312 281.693969) scale(0.13 -0.13)">
     <defs>
      <path id="DejaVuSans-Bold-62" d="M 2400 722 
Q 2759 722 2948 984 
Q 3138 1247 3138 1747 
Q 3138 2247 2948 2509 
Q 2759 2772 2400 2772 
Q 2041 2772 1848 2508 
Q 1656 2244 1656 1747 
Q 1656 1250 1848 986 
Q 2041 722 2400 722 
z
M 1656 2988 
Q 1888 3294 2169 3439 
Q 2450 3584 2816 3584 
Q 3463 3584 3878 3070 
Q 4294 2556 4294 1747 
Q 4294 938 3878 423 
Q 3463 -91 2816 -91 
Q 2450 -91 2169 54 
Q 1888 200 1656 506 
L 1656 0 
L 538 0 
L 538 4863 
L 1656 4863 
L 1656 2988 
z
" transform="scale(0.015625)"/>
     </defs>
     <use xlink:href="#DejaVuSans-Bold-28"/>
     <use xlink:href="#DejaVuSans-Bold-62" transform="translate(45.703125 0)"/>
     <use xlink:href="#DejaVuSans-Bold-29" transform="translate(117.285156 0)"/>
     <use xlink:href="#DejaVuSans-Bold-20" transform="translate(162.988281 0)"/>
     <use xlink:href="#DejaVuSans-Bold-52" transform="translate(197.802734 0)"/>
     <use xlink:href="#DejaVuSans-Bold-42" transform="translate(274.804688 0)"/>
     <use xlink:href="#DejaVuSans-Bold-42" transform="translate(351.025391 0)"/>
     <use xlink:href="#DejaVuSans-Bold-46" transform="translate(427.246094 0)"/>
     <use xlink:href="#DejaVuSans-Bold-20" transform="translate(495.556641 0)"/>
     <use xlink:href="#DejaVuSans-Bold-d7" transform="translate(530.371094 0)"/>
     <use xlink:href="#DejaVuSans-Bold-20" transform="translate(614.160156 0)"/>
     <use xlink:href="#DejaVuSans-Bold-53" transform="translate(648.974609 0)"/>
     <use xlink:href="#DejaVuSans-Bold-50" transform="translate(720.996094 0)"/>
     <use xlink:href="#DejaVuSans-Bold-49" transform="translate(794.287109 0)"/>
     <use xlink:href="#DejaVuSans-Bold-43" transform="translate(831.494141 0)"/>
     <use xlink:href="#DejaVuSans-Bold-45" transform="translate(904.882812 0)"/>
    </g>
   </g>
  </g>
  <g id="axes_4">
   <g id="patch_14">
    <path d="M 445.36 426.04 
L 767.925 426.04 
L 767.925 254.68 
L 445.36 254.68 
z
" style="fill: #ffffff"/>
   </g>
   <g id="FillBetweenPolyCollection_7">
    <defs>
     <path id="m00cc0e5c65" d="M 445.36 -166.5109 
L 445.36 -77.96 
L 509.873 -77.96 
L 574.386 -77.96 
L 638.899 -77.96 
L 703.412 -77.96 
L 767.925 -77.96 
L 767.925 -95.612184 
L 767.925 -95.612184 
L 703.412 -148.409405 
L 638.899 -164.72355 
L 574.386 -165.679576 
L 509.873 -167.685685 
L 445.36 -166.5109 
z
" style="stroke: #2e5c8a; stroke-opacity: 0.16"/>
    </defs>
    <g clip-path="url(#p3daf7245dd)">
     <use xlink:href="#m00cc0e5c65" x="0" y="504" style="fill: #2e5c8a; fill-opacity: 0.16; stroke: #2e5c8a; stroke-opacity: 0.16"/>
    </g>
   </g>
   <g id="FillBetweenPolyCollection_8">
    <defs>
     <path id="m114fd2994f" d="M 445.36 -226.968696 
L 445.36 -77.96 
L 509.873 -77.96 
L 574.386 -77.96 
L 638.899 -77.96 
L 703.412 -77.96 
L 767.925 -77.96 
L 767.925 -82.740905 
L 767.925 -82.740905 
L 703.412 -83.165789 
L 638.899 -90.441812 
L 574.386 -117.94472 
L 509.873 -141.985817 
L 445.36 -226.968696 
z
" style="stroke: #e67e22; stroke-opacity: 0.2"/>
    </defs>
    <g clip-path="url(#p3daf7245dd)">
     <use xlink:href="#m114fd2994f" x="0" y="504" style="fill: #e67e22; fill-opacity: 0.2; stroke: #e67e22; stroke-opacity: 0.2"/>
    </g>
   </g>
   <g id="matplotlib.axis_7">
    <g id="xtick_19">
     <g id="line2d_43">
      <g>
       <use xlink:href="#mab8e9c2be2" x="445.36" y="426.04" style="stroke: #000000; stroke-width: 0.8"/>
      </g>
     </g>
     <g id="text_43">
      <!-- S0 -->
      <g transform="translate(436.462344 443.677812) scale(0.14 -0.14)">
       <use xlink:href="#DejaVuSans-53"/>
       <use xlink:href="#DejaVuSans-30" transform="translate(63.476562 0)"/>
      </g>
     </g>
    </g>
    <g id="xtick_20">
     <g id="line2d_44">
      <g>
       <use xlink:href="#mab8e9c2be2" x="509.873" y="426.04" style="stroke: #000000; stroke-width: 0.8"/>
      </g>
     </g>
     <g id="text_44">
      <!-- S1 -->
      <g transform="translate(500.975344 443.677812) scale(0.14 -0.14)">
       <use xlink:href="#DejaVuSans-53"/>
       <use xlink:href="#DejaVuSans-31" transform="translate(63.476562 0)"/>
      </g>
     </g>
    </g>
    <g id="xtick_21">
     <g id="line2d_45">
      <g>
       <use xlink:href="#mab8e9c2be2" x="574.386" y="426.04" style="stroke: #000000; stroke-width: 0.8"/>
      </g>
     </g>
     <g id="text_45">
      <!-- S2 -->
      <g transform="translate(565.488344 443.677812) scale(0.14 -0.14)">
       <use xlink:href="#DejaVuSans-53"/>
       <use xlink:href="#DejaVuSans-32" transform="translate(63.476562 0)"/>
      </g>
     </g>
    </g>
    <g id="xtick_22">
     <g id="line2d_46">
      <g>
       <use xlink:href="#mab8e9c2be2" x="638.899" y="426.04" style="stroke: #000000; stroke-width: 0.8"/>
      </g>
     </g>
     <g id="text_46">
      <!-- S3 -->
      <g transform="translate(630.001344 443.677812) scale(0.14 -0.14)">
       <use xlink:href="#DejaVuSans-53"/>
       <use xlink:href="#DejaVuSans-33" transform="translate(63.476562 0)"/>
      </g>
     </g>
    </g>
    <g id="xtick_23">
     <g id="line2d_47">
      <g>
       <use xlink:href="#mab8e9c2be2" x="703.412" y="426.04" style="stroke: #000000; stroke-width: 0.8"/>
      </g>
     </g>
     <g id="text_47">
      <!-- S4 -->
      <g transform="translate(694.514344 443.677812) scale(0.14 -0.14)">
       <use xlink:href="#DejaVuSans-53"/>
       <use xlink:href="#DejaVuSans-34" transform="translate(63.476562 0)"/>
      </g>
     </g>
    </g>
    <g id="xtick_24">
     <g id="line2d_48">
      <g>
       <use xlink:href="#mab8e9c2be2" x="767.925" y="426.04" style="stroke: #000000; stroke-width: 0.8"/>
      </g>
     </g>
     <g id="text_48">
      <!-- S5 -->
      <g transform="translate(759.027344 443.677812) scale(0.14 -0.14)">
       <use xlink:href="#DejaVuSans-53"/>
       <use xlink:href="#DejaVuSans-35" transform="translate(63.476562 0)"/>
      </g>
     </g>
    </g>
    <g id="text_49">
     <!-- Corruption severity -->
     <g transform="translate(540.810312 459.7075) scale(0.12 -0.12)">
      <use xlink:href="#DejaVuSans-Bold-43"/>
      <use xlink:href="#DejaVuSans-Bold-6f" transform="translate(73.388672 0)"/>
      <use xlink:href="#DejaVuSans-Bold-72" transform="translate(142.089844 0)"/>
      <use xlink:href="#DejaVuSans-Bold-72" transform="translate(191.40625 0)"/>
      <use xlink:href="#DejaVuSans-Bold-75" transform="translate(240.722656 0)"/>
      <use xlink:href="#DejaVuSans-Bold-70" transform="translate(311.914062 0)"/>
      <use xlink:href="#DejaVuSans-Bold-74" transform="translate(383.496094 0)"/>
      <use xlink:href="#DejaVuSans-Bold-69" transform="translate(431.298828 0)"/>
      <use xlink:href="#DejaVuSans-Bold-6f" transform="translate(465.576172 0)"/>
      <use xlink:href="#DejaVuSans-Bold-6e" transform="translate(534.277344 0)"/>
      <use xlink:href="#DejaVuSans-Bold-20" transform="translate(605.46875 0)"/>
      <use xlink:href="#DejaVuSans-Bold-73" transform="translate(640.283203 0)"/>
      <use xlink:href="#DejaVuSans-Bold-65" transform="translate(699.804688 0)"/>
      <use xlink:href="#DejaVuSans-Bold-76" transform="translate(767.626953 0)"/>
      <use xlink:href="#DejaVuSans-Bold-65" transform="translate(832.8125 0)"/>
      <use xlink:href="#DejaVuSans-Bold-72" transform="translate(900.634766 0)"/>
      <use xlink:href="#DejaVuSans-Bold-69" transform="translate(949.951172 0)"/>
      <use xlink:href="#DejaVuSans-Bold-74" transform="translate(984.228516 0)"/>
      <use xlink:href="#DejaVuSans-Bold-79" transform="translate(1032.03125 0)"/>
     </g>
    </g>
   </g>
   <g id="matplotlib.axis_8">
    <g id="ytick_19">
     <g id="line2d_49">
      <g>
       <use xlink:href="#m49efcfc595" x="445.36" y="426.04" style="stroke: #000000; stroke-width: 0.8"/>
      </g>
     </g>
     <g id="text_50">
      <!-- 0 -->
      <g transform="translate(429.4525 431.358906) scale(0.14 -0.14)">
       <use xlink:href="#DejaVuSans-30"/>
      </g>
     </g>
    </g>
    <g id="ytick_20">
     <g id="line2d_50">
      <g>
       <use xlink:href="#m49efcfc595" x="445.36" y="392.922737" style="stroke: #000000; stroke-width: 0.8"/>
      </g>
     </g>
     <g id="text_51">
      <!-- 5 -->
      <g transform="translate(429.4525 398.241643) scale(0.14 -0.14)">
       <use xlink:href="#DejaVuSans-35"/>
      </g>
     </g>
    </g>
    <g id="ytick_21">
     <g id="line2d_51">
      <g>
       <use xlink:href="#m49efcfc595" x="445.36" y="359.805474" style="stroke: #000000; stroke-width: 0.8"/>
      </g>
     </g>
     <g id="text_52">
      <!-- 10 -->
      <g transform="translate(420.545 365.12438) scale(0.14 -0.14)">
       <use xlink:href="#DejaVuSans-31"/>
       <use xlink:href="#DejaVuSans-30" transform="translate(63.623047 0)"/>
      </g>
     </g>
    </g>
    <g id="ytick_22">
     <g id="line2d_52">
      <g>
       <use xlink:href="#m49efcfc595" x="445.36" y="326.688211" style="stroke: #000000; stroke-width: 0.8"/>
      </g>
     </g>
     <g id="text_53">
      <!-- 15 -->
      <g transform="translate(420.545 332.007117) scale(0.14 -0.14)">
       <use xlink:href="#DejaVuSans-31"/>
       <use xlink:href="#DejaVuSans-35" transform="translate(63.623047 0)"/>
      </g>
     </g>
    </g>
    <g id="ytick_23">
     <g id="line2d_53">
      <g>
       <use xlink:href="#m49efcfc595" x="445.36" y="293.570948" style="stroke: #000000; stroke-width: 0.8"/>
      </g>
     </g>
     <g id="text_54">
      <!-- 20 -->
      <g transform="translate(420.545 298.889854) scale(0.14 -0.14)">
       <use xlink:href="#DejaVuSans-32"/>
       <use xlink:href="#DejaVuSans-30" transform="translate(63.623047 0)"/>
      </g>
     </g>
    </g>
    <g id="ytick_24">
     <g id="line2d_54">
      <g>
       <use xlink:href="#m49efcfc595" x="445.36" y="260.453685" style="stroke: #000000; stroke-width: 0.8"/>
      </g>
     </g>
     <g id="text_55">
      <!-- 25 -->
      <g transform="translate(420.545 265.772591) scale(0.14 -0.14)">
       <use xlink:href="#DejaVuSans-32"/>
       <use xlink:href="#DejaVuSans-35" transform="translate(63.623047 0)"/>
      </g>
     </g>
    </g>
   </g>
   <g id="line2d_55">
    <path d="M 445.36 337.4891 
L 509.873 336.314315 
L 574.386 338.320424 
L 638.899 339.27645 
L 703.412 355.590595 
L 767.925 408.387816 
" clip-path="url(#p3daf7245dd)" style="fill: none; stroke: #2e5c8a; stroke-width: 2.4; stroke-linecap: square"/>
    <g clip-path="url(#p3daf7245dd)">
     <use xlink:href="#ma84e08b483" x="445.36" y="337.4891" style="fill: #2e5c8a; stroke: #2e5c8a"/>
     <use xlink:href="#ma84e08b483" x="509.873" y="336.314315" style="fill: #2e5c8a; stroke: #2e5c8a"/>
     <use xlink:href="#ma84e08b483" x="574.386" y="338.320424" style="fill: #2e5c8a; stroke: #2e5c8a"/>
     <use xlink:href="#ma84e08b483" x="638.899" y="339.27645" style="fill: #2e5c8a; stroke: #2e5c8a"/>
     <use xlink:href="#ma84e08b483" x="703.412" y="355.590595" style="fill: #2e5c8a; stroke: #2e5c8a"/>
     <use xlink:href="#ma84e08b483" x="767.925" y="408.387816" style="fill: #2e5c8a; stroke: #2e5c8a"/>
    </g>
   </g>
   <g id="line2d_56">
    <path d="M 445.36 277.031304 
L 509.873 362.014183 
L 574.386 386.05528 
L 638.899 413.558188 
L 703.412 420.834211 
L 767.925 421.259095 
" clip-path="url(#p3daf7245dd)" style="fill: none; stroke-dasharray: 7.4,3.2; stroke-dashoffset: 0; stroke: #e67e22; stroke-opacity: 0.8; stroke-width: 2"/>
    <g clip-path="url(#p3daf7245dd)">
     <use xlink:href="#m42728747e3" x="445.36" y="277.031304" style="fill: #e67e22; fill-opacity: 0.8; stroke: #e67e22; stroke-opacity: 0.8; stroke-linejoin: miter"/>
     <use xlink:href="#m42728747e3" x="509.873" y="362.014183" style="fill: #e67e22; fill-opacity: 0.8; stroke: #e67e22; stroke-opacity: 0.8; stroke-linejoin: miter"/>
     <use xlink:href="#m42728747e3" x="574.386" y="386.05528" style="fill: #e67e22; fill-opacity: 0.8; stroke: #e67e22; stroke-opacity: 0.8; stroke-linejoin: miter"/>
     <use xlink:href="#m42728747e3" x="638.899" y="413.558188" style="fill: #e67e22; fill-opacity: 0.8; stroke: #e67e22; stroke-opacity: 0.8; stroke-linejoin: miter"/>
     <use xlink:href="#m42728747e3" x="703.412" y="420.834211" style="fill: #e67e22; fill-opacity: 0.8; stroke: #e67e22; stroke-opacity: 0.8; stroke-linejoin: miter"/>
     <use xlink:href="#m42728747e3" x="767.925" y="421.259095" style="fill: #e67e22; fill-opacity: 0.8; stroke: #e67e22; stroke-opacity: 0.8; stroke-linejoin: miter"/>
    </g>
   </g>
   <g id="patch_15">
    <path d="M 445.36 426.04 
L 445.36 254.68 
" style="fill: none; stroke: #000000; stroke-width: 0.8; stroke-linejoin: miter; stroke-linecap: square"/>
   </g>
   <g id="patch_16">
    <path d="M 445.36 426.04 
L 767.925 426.04 
" style="fill: none; stroke: #000000; stroke-width: 0.8; stroke-linejoin: miter; stroke-linecap: square"/>
   </g>
   <g id="text_56">
    <g id="patch_17">
     <path d="M 608.470109 292.197562 
L 733.840891 292.197562 
Q 741.640891 292.197562 741.640891 284.397562 
L 741.640891 271.816 
Q 741.640891 264.016 733.840891 264.016 
L 608.470109 264.016 
Q 600.670109 264.016 600.670109 271.816 
L 600.670109 284.397562 
Q 600.670109 292.197562 608.470109 292.197562 
z
" style="fill: #ffffff; opacity: 0.9; stroke: #808080; stroke-width: 1.5; stroke-linejoin: miter"/>
    </g>
    <!-- (d) RBSL × SPICE -->
    <g transform="translate(608.470109 281.693969) scale(0.13 -0.13)">
     <defs>
      <path id="DejaVuSans-Bold-64" d="M 2919 2988 
L 2919 4863 
L 4044 4863 
L 4044 0 
L 2919 0 
L 2919 506 
Q 2688 197 2409 53 
Q 2131 -91 1766 -91 
Q 1119 -91 703 423 
Q 288 938 288 1747 
Q 288 2556 703 3070 
Q 1119 3584 1766 3584 
Q 2128 3584 2408 3439 
Q 2688 3294 2919 2988 
z
M 2181 722 
Q 2541 722 2730 984 
Q 2919 1247 2919 1747 
Q 2919 2247 2730 2509 
Q 2541 2772 2181 2772 
Q 1825 2772 1636 2509 
Q 1447 2247 1447 1747 
Q 1447 1247 1636 984 
Q 1825 722 2181 722 
z
" transform="scale(0.015625)"/>
     </defs>
     <use xlink:href="#DejaVuSans-Bold-28"/>
     <use xlink:href="#DejaVuSans-Bold-64" transform="translate(45.703125 0)"/>
     <use xlink:href="#DejaVuSans-Bold-29" transform="translate(117.285156 0)"/>
     <use xlink:href="#DejaVuSans-Bold-20" transform="translate(162.988281 0)"/>
     <use xlink:href="#DejaVuSans-Bold-52" transform="translate(197.802734 0)"/>
     <use xlink:href="#DejaVuSans-Bold-42" transform="translate(274.804688 0)"/>
     <use xlink:href="#DejaVuSans-Bold-53" transform="translate(351.025391 0)"/>
     <use xlink:href="#DejaVuSans-Bold-4c" transform="translate(423.046875 0)"/>
     <use xlink:href="#DejaVuSans-Bold-20" transform="translate(486.767578 0)"/>
     <use xlink:href="#DejaVuSans-Bold-d7" transform="translate(521.582031 0)"/>
     <use xlink:href="#DejaVuSans-Bold-20" transform="translate(605.371094 0)"/>
     <use xlink:href="#DejaVuSans-Bold-53" transform="translate(640.185547 0)"/>
     <use xlink:href="#DejaVuSans-Bold-50" transform="translate(712.207031 0)"/>
     <use xlink:href="#DejaVuSans-Bold-49" transform="translate(785.498047 0)"/>
     <use xlink:href="#DejaVuSans-Bold-43" transform="translate(822.705078 0)"/>
     <use xlink:href="#DejaVuSans-Bold-45" transform="translate(896.09375 0)"/>
    </g>
   </g>
  </g>
  <g id="text_57">
   <!-- Metrics Curves across Corruption Levels -->
   <g transform="translate(191.625469 23.757187) scale(0.18 -0.18)">
    <defs>
     <path id="DejaVuSans-Bold-4d" d="M 588 4666 
L 2119 4666 
L 3181 2169 
L 4250 4666 
L 5778 4666 
L 5778 0 
L 4641 0 
L 4641 3413 
L 3566 897 
L 2803 897 
L 1728 3413 
L 1728 0 
L 588 0 
L 588 4666 
z
" transform="scale(0.015625)"/>
     <path id="DejaVuSans-Bold-6c" d="M 538 4863 
L 1656 4863 
L 1656 0 
L 538 0 
L 538 4863 
z
" transform="scale(0.015625)"/>
    </defs>
    <use xlink:href="#DejaVuSans-Bold-4d"/>
    <use xlink:href="#DejaVuSans-Bold-65" transform="translate(99.511719 0)"/>
    <use xlink:href="#DejaVuSans-Bold-74" transform="translate(167.333984 0)"/>
    <use xlink:href="#DejaVuSans-Bold-72" transform="translate(215.136719 0)"/>
    <use xlink:href="#DejaVuSans-Bold-69" transform="translate(264.453125 0)"/>
    <use xlink:href="#DejaVuSans-Bold-63" transform="translate(298.730469 0)"/>
    <use xlink:href="#DejaVuSans-Bold-73" transform="translate(358.007812 0)"/>
    <use xlink:href="#DejaVuSans-Bold-20" transform="translate(417.529297 0)"/>
    <use xlink:href="#DejaVuSans-Bold-43" transform="translate(452.34375 0)"/>
    <use xlink:href="#DejaVuSans-Bold-75" transform="translate(525.732422 0)"/>
    <use xlink:href="#DejaVuSans-Bold-72" transform="translate(596.923828 0)"/>
    <use xlink:href="#DejaVuSans-Bold-76" transform="translate(646.240234 0)"/>
    <use xlink:href="#DejaVuSans-Bold-65" transform="translate(711.425781 0)"/>
    <use xlink:href="#DejaVuSans-Bold-73" transform="translate(779.248047 0)"/>
    <use xlink:href="#DejaVuSans-Bold-20" transform="translate(838.769531 0)"/>
    <use xlink:href="#DejaVuSans-Bold-61" transform="translate(873.583984 0)"/>
    <use xlink:href="#DejaVuSans-Bold-63" transform="translate(941.064453 0)"/>
    <use xlink:href="#DejaVuSans-Bold-72" transform="translate(1000.341797 0)"/>
    <use xlink:href="#DejaVuSans-Bold-6f" transform="translate(1049.658203 0)"/>
    <use xlink:href="#DejaVuSans-Bold-73" transform="translate(1118.359375 0)"/>
    <use xlink:href="#DejaVuSans-Bold-73" transform="translate(1177.880859 0)"/>
    <use xlink:href="#DejaVuSans-Bold-20" transform="translate(1237.402344 0)"/>
    <use xlink:href="#DejaVuSans-Bold-43" transform="translate(1272.216797 0)"/>
    <use xlink:href="#DejaVuSans-Bold-6f" transform="translate(1345.605469 0)"/>
    <use xlink:href="#DejaVuSans-Bold-72" transform="translate(1414.306641 0)"/>
    <use xlink:href="#DejaVuSans-Bold-72" transform="translate(1463.623047 0)"/>
    <use xlink:href="#DejaVuSans-Bold-75" transform="translate(1512.939453 0)"/>
    <use xlink:href="#DejaVuSans-Bold-70" transform="translate(1584.130859 0)"/>
    <use xlink:href="#DejaVuSans-Bold-74" transform="translate(1655.712891 0)"/>
    <use xlink:href="#DejaVuSans-Bold-69" transform="translate(1703.515625 0)"/>
    <use xlink:href="#DejaVuSans-Bold-6f" transform="translate(1737.792969 0)"/>
    <use xlink:href="#DejaVuSans-Bold-6e" transform="translate(1806.494141 0)"/>
    <use xlink:href="#DejaVuSans-Bold-20" transform="translate(1877.685547 0)"/>
    <use xlink:href="#DejaVuSans-Bold-4c" transform="translate(1912.5 0)"/>
    <use xlink:href="#DejaVuSans-Bold-65" transform="translate(1976.220703 0)"/>
    <use xlink:href="#DejaVuSans-Bold-76" transform="translate(2044.042969 0)"/>
    <use xlink:href="#DejaVuSans-Bold-65" transform="translate(2109.228516 0)"/>
    <use xlink:href="#DejaVuSans-Bold-6c" transform="translate(2177.050781 0)"/>
    <use xlink:href="#DejaVuSans-Bold-73" transform="translate(2211.328125 0)"/>
   </g>
  </g>
  <g id="legend_1">
   <g id="patch_18">
    <path d="M 291.275 493.96 
L 500.725 493.96 
Q 502.725 493.96 502.725 491.96 
L 502.725 478.281875 
Q 502.725 476.281875 500.725 476.281875 
L 291.275 476.281875 
Q 289.275 476.281875 289.275 478.281875 
L 289.275 491.96 
Q 289.275 493.96 291.275 493.96 
z
" style="fill: #ffffff; opacity: 0.95; stroke: #808080; stroke-linejoin: miter"/>
   </g>
   <g id="line2d_57">
    <path d="M 293.275 484.380313 
L 303.275 484.380313 
L 313.275 484.380313 
" style="fill: none; stroke: #2e5c8a; stroke-width: 2.4; stroke-linecap: square"/>
    <g>
     <use xlink:href="#ma84e08b483" x="303.275" y="484.380313" style="fill: #2e5c8a; stroke: #2e5c8a"/>
    </g>
   </g>
   <g id="text_58">
    <!-- BCM (Ours) -->
    <g transform="translate(321.275 487.880313) scale(0.1 -0.1)">
     <defs>
      <path id="DejaVuSans-42" d="M 1259 2228 
L 1259 519 
L 2272 519 
Q 2781 519 3026 730 
Q 3272 941 3272 1375 
Q 3272 1813 3026 2020 
Q 2781 2228 2272 2228 
L 1259 2228 
z
M 1259 4147 
L 1259 2741 
L 2194 2741 
Q 2656 2741 2882 2914 
Q 3109 3088 3109 3444 
Q 3109 3797 2882 3972 
Q 2656 4147 2194 4147 
L 1259 4147 
z
M 628 4666 
L 2241 4666 
Q 2963 4666 3353 4366 
Q 3744 4066 3744 3513 
Q 3744 3084 3544 2831 
Q 3344 2578 2956 2516 
Q 3422 2416 3680 2098 
Q 3938 1781 3938 1306 
Q 3938 681 3513 340 
Q 3088 0 2303 0 
L 628 0 
L 628 4666 
z
" transform="scale(0.015625)"/>
      <path id="DejaVuSans-43" d="M 4122 4306 
L 4122 3641 
Q 3803 3938 3442 4084 
Q 3081 4231 2675 4231 
Q 1875 4231 1450 3742 
Q 1025 3253 1025 2328 
Q 1025 1406 1450 917 
Q 1875 428 2675 428 
Q 3081 428 3442 575 
Q 3803 722 4122 1019 
L 4122 359 
Q 3791 134 3420 21 
Q 3050 -91 2638 -91 
Q 1578 -91 968 557 
Q 359 1206 359 2328 
Q 359 3453 968 4101 
Q 1578 4750 2638 4750 
Q 3056 4750 3426 4639 
Q 3797 4528 4122 4306 
z
" transform="scale(0.015625)"/>
      <path id="DejaVuSans-4d" d="M 628 4666 
L 1569 4666 
L 2759 1491 
L 3956 4666 
L 4897 4666 
L 4897 0 
L 4281 0 
L 4281 4097 
L 3078 897 
L 2444 897 
L 1241 4097 
L 1241 0 
L 628 0 
L 628 4666 
z
" transform="scale(0.015625)"/>
      <path id="DejaVuSans-20" transform="scale(0.015625)"/>
      <path id="DejaVuSans-28" d="M 1984 4856 
Q 1566 4138 1362 3434 
Q 1159 2731 1159 2009 
Q 1159 1288 1364 580 
Q 1569 -128 1984 -844 
L 1484 -844 
Q 1016 -109 783 600 
Q 550 1309 550 2009 
Q 550 2706 781 3412 
Q 1013 4119 1484 4856 
L 1984 4856 
z
" transform="scale(0.015625)"/>
      <path id="DejaVuSans-4f" d="M 2522 4238 
Q 1834 4238 1429 3725 
Q 1025 3213 1025 2328 
Q 1025 1447 1429 934 
Q 1834 422 2522 422 
Q 3209 422 3611 934 
Q 4013 1447 4013 2328 
Q 4013 3213 3611 3725 
Q 3209 4238 2522 4238 
z
M 2522 4750 
Q 3503 4750 4090 4092 
Q 4678 3434 4678 2328 
Q 4678 1225 4090 567 
Q 3503 -91 2522 -91 
Q 1538 -91 948 565 
Q 359 1222 359 2328 
Q 359 3434 948 4092 
Q 1538 4750 2522 4750 
z
" transform="scale(0.015625)"/>
      <path id="DejaVuSans-75" d="M 544 1381 
L 544 3500 
L 1119 3500 
L 1119 1403 
Q 1119 906 1312 657 
Q 1506 409 1894 409 
Q 2359 409 2629 706 
Q 2900 1003 2900 1516 
L 2900 3500 
L 3475 3500 
L 3475 0 
L 2900 0 
L 2900 538 
Q 2691 219 2414 64 
Q 2138 -91 1772 -91 
Q 1169 -91 856 284 
Q 544 659 544 1381 
z
M 1991 3584 
L 1991 3584 
z
" transform="scale(0.015625)"/>
      <path id="DejaVuSans-72" d="M 2631 2963 
Q 2534 3019 2420 3045 
Q 2306 3072 2169 3072 
Q 1681 3072 1420 2755 
Q 1159 2438 1159 1844 
L 1159 0 
L 581 0 
L 581 3500 
L 1159 3500 
L 1159 2956 
Q 1341 3275 1631 3429 
Q 1922 3584 2338 3584 
Q 2397 3584 2469 3576 
Q 2541 3569 2628 3553 
L 2631 2963 
z
" transform="scale(0.015625)"/>
      <path id="DejaVuSans-73" d="M 2834 3397 
L 2834 2853 
Q 2591 2978 2328 3040 
Q 2066 3103 1784 3103 
Q 1356 3103 1142 2972 
Q 928 2841 928 2578 
Q 928 2378 1081 2264 
Q 1234 2150 1697 2047 
L 1894 2003 
Q 2506 1872 2764 1633 
Q 3022 1394 3022 966 
Q 3022 478 2636 193 
Q 2250 -91 1575 -91 
Q 1294 -91 989 -36 
Q 684 19 347 128 
L 347 722 
Q 666 556 975 473 
Q 1284 391 1588 391 
Q 1994 391 2212 530 
Q 2431 669 2431 922 
Q 2431 1156 2273 1281 
Q 2116 1406 1581 1522 
L 1381 1569 
Q 847 1681 609 1914 
Q 372 2147 372 2553 
Q 372 3047 722 3315 
Q 1072 3584 1716 3584 
Q 2034 3584 2315 3537 
Q 2597 3491 2834 3397 
z
" transform="scale(0.015625)"/>
      <path id="DejaVuSans-29" d="M 513 4856 
L 1013 4856 
Q 1481 4119 1714 3412 
Q 1947 2706 1947 2009 
Q 1947 1309 1714 600 
Q 1481 -109 1013 -844 
L 513 -844 
Q 928 -128 1133 580 
Q 1338 1288 1338 2009 
Q 1338 2731 1133 3434 
Q 928 4138 513 4856 
z
" transform="scale(0.015625)"/>
     </defs>
     <use xlink:href="#DejaVuSans-42"/>
     <use xlink:href="#DejaVuSans-43" transform="translate(66.853516 0)"/>
     <use xlink:href="#DejaVuSans-4d" transform="translate(136.677734 0)"/>
     <use xlink:href="#DejaVuSans-20" transform="translate(222.957031 0)"/>
     <use xlink:href="#DejaVuSans-28" transform="translate(254.744141 0)"/>
     <use xlink:href="#DejaVuSans-4f" transform="translate(293.757812 0)"/>
     <use xlink:href="#DejaVuSans-75" transform="translate(372.46875 0)"/>
     <use xlink:href="#DejaVuSans-72" transform="translate(435.847656 0)"/>
     <use xlink:href="#DejaVuSans-73" transform="translate(476.960938 0)"/>
     <use xlink:href="#DejaVuSans-29" transform="translate(529.060547 0)"/>
    </g>
   </g>
   <g id="line2d_58">
    <path d="M 398.082812 484.380313 
L 408.082812 484.380313 
L 418.082812 484.380313 
" style="fill: none; stroke-dasharray: 7.4,3.2; stroke-dashoffset: 0; stroke: #e67e22; stroke-opacity: 0.8; stroke-width: 2"/>
    <g>
     <use xlink:href="#m42728747e3" x="408.082812" y="484.380313" style="fill: #e67e22; fill-opacity: 0.8; stroke: #e67e22; stroke-opacity: 0.8; stroke-linejoin: miter"/>
    </g>
   </g>
   <g id="text_59">
    <!-- Avg (w/o BCM) -->
    <g transform="translate(426.082812 487.880313) scale(0.1 -0.1)">
     <defs>
      <path id="DejaVuSans-41" d="M 2188 4044 
L 1331 1722 
L 3047 1722 
L 2188 4044 
z
M 1831 4666 
L 2547 4666 
L 4325 0 
L 3669 0 
L 3244 1197 
L 1141 1197 
L 716 0 
L 50 0 
L 1831 4666 
z
" transform="scale(0.015625)"/>
      <path id="DejaVuSans-76" d="M 191 3500 
L 800 3500 
L 1894 563 
L 2988 3500 
L 3597 3500 
L 2284 0 
L 1503 0 
L 191 3500 
z
" transform="scale(0.015625)"/>
      <path id="DejaVuSans-67" d="M 2906 1791 
Q 2906 2416 2648 2759 
Q 2391 3103 1925 3103 
Q 1463 3103 1205 2759 
Q 947 2416 947 1791 
Q 947 1169 1205 825 
Q 1463 481 1925 481 
Q 2391 481 2648 825 
Q 2906 1169 2906 1791 
z
M 3481 434 
Q 3481 -459 3084 -895 
Q 2688 -1331 1869 -1331 
Q 1566 -1331 1297 -1286 
Q 1028 -1241 775 -1147 
L 775 -588 
Q 1028 -725 1275 -790 
Q 1522 -856 1778 -856 
Q 2344 -856 2625 -561 
Q 2906 -266 2906 331 
L 2906 616 
Q 2728 306 2450 153 
Q 2172 0 1784 0 
Q 1141 0 747 490 
Q 353 981 353 1791 
Q 353 2603 747 3093 
Q 1141 3584 1784 3584 
Q 2172 3584 2450 3431 
Q 2728 3278 2906 2969 
L 2906 3500 
L 3481 3500 
L 3481 434 
z
" transform="scale(0.015625)"/>
      <path id="DejaVuSans-77" d="M 269 3500 
L 844 3500 
L 1563 769 
L 2278 3500 
L 2956 3500 
L 3675 769 
L 4391 3500 
L 4966 3500 
L 4050 0 
L 3372 0 
L 2619 2869 
L 1863 0 
L 1184 0 
L 269 3500 
z
" transform="scale(0.015625)"/>
      <path id="DejaVuSans-2f" d="M 1625 4666 
L 2156 4666 
L 531 -594 
L 0 -594 
L 1625 4666 
z
" transform="scale(0.015625)"/>
      <path id="DejaVuSans-6f" d="M 1959 3097 
Q 1497 3097 1228 2736 
Q 959 2375 959 1747 
Q 959 1119 1226 758 
Q 1494 397 1959 397 
Q 2419 397 2687 759 
Q 2956 1122 2956 1747 
Q 2956 2369 2687 2733 
Q 2419 3097 1959 3097 
z
M 1959 3584 
Q 2709 3584 3137 3096 
Q 3566 2609 3566 1747 
Q 3566 888 3137 398 
Q 2709 -91 1959 -91 
Q 1206 -91 779 398 
Q 353 888 353 1747 
Q 353 2609 779 3096 
Q 1206 3584 1959 3584 
z
" transform="scale(0.015625)"/>
     </defs>
     <use xlink:href="#DejaVuSans-41"/>
     <use xlink:href="#DejaVuSans-76" transform="translate(62.533203 0)"/>
     <use xlink:href="#DejaVuSans-67" transform="translate(121.712891 0)"/>
     <use xlink:href="#DejaVuSans-20" transform="translate(185.189453 0)"/>
     <use xlink:href="#DejaVuSans-28" transform="translate(216.976562 0)"/>
     <use xlink:href="#DejaVuSans-77" transform="translate(255.990234 0)"/>
     <use xlink:href="#DejaVuSans-2f" transform="translate(337.777344 0)"/>
     <use xlink:href="#DejaVuSans-6f" transform="translate(371.46875 0)"/>
     <use xlink:href="#DejaVuSans-20" transform="translate(432.650391 0)"/>
     <use xlink:href="#DejaVuSans-42" transform="translate(464.4375 0)"/>
     <use xlink:href="#DejaVuSans-43" transform="translate(531.291016 0)"/>
     <use xlink:href="#DejaVuSans-4d" transform="translate(601.115234 0)"/>
     <use xlink:href="#DejaVuSans-29" transform="translate(687.394531 0)"/>
    </g>
   </g>
  </g>
 </g>
 <defs>
  <clipPath id="pd28f1326b5">
   <rect x="64.9" y="47.52" width="322.565" height="171.36"/>
  </clipPath>
  <clipPath id="p1d404c28f4">
   <rect x="445.36" y="47.52" width="322.565" height="171.36"/>
  </clipPath>
  <clipPath id="pa95ce63800">
   <rect x="64.9" y="254.68" width="322.565" height="171.36"/>
  </clipPath>
  <clipPath id="p3daf7245dd">
   <rect x="445.36" y="254.68" width="322.565" height="171.36"/>
  </clipPath>
 </defs>
</svg>
