<?xml version="1.0" encoding="utf-8" standalone="no"?>
<!DOCTYPE svg PUBLIC "-//W3C//DTD SVG 1.1//EN"
  "http://www.w3.org/Graphics/SVG/1.1/DTD/svg11.dtd">
<svg xmlns:xlink="http://www.w3.org/1999/xlink" width="827.575pt" height="500.813125pt" viewBox="0 0 827.575 500.813125" xmlns="http://www.w3.org/2000/svg" version="1.1">
 <metadata>
  <rdf:RDF xmlns:dc="http://purl.org/dc/elements/1.1/" xmlns:cc="http://creativecommons.org/ns#" xmlns:rdf="http://www.w3.org/1999/02/22-rdf-syntax-ns#">
   <cc:Work>
    <dc:type rdf:resource="http://purl.org/dc/dcmitype/StillImage"/>
    <dc:date>2026-01-13T13:29:09.630203</dc:date>
    <dc:format>image/svg+xml</dc:format>
    <dc:creator>
     <cc:Agent>
      <dc:title>Matplotlib v3.10.5, https://matplotlib.org/</dc:title>
     </cc:Agent>
    </dc:creator>
   </cc:Work>
  </rdf:RDF>
 </metadata>
 <defs>
  <style type="text/css">*{stroke-linejoin: round; stroke-linecap: butt}</style>
 </defs>
 <g id="figure_1">
  <g id="patch_1">
   <path d="M 0 500.813125 
L 827.575 500.813125 
L 827.575 0 
L 0 0 
z
" style="fill: #ffffff"/>
  </g>
  <g id="axes_1">
   <g id="patch_2">
    <path d="M 94.975 445.68 
L 568.061957 445.68 
L 568.061957 57.6 
L 94.975 57.6 
z
" style="fill: #ffffff"/>
   </g>
   <g id="matplotlib.axis_1">
    <g id="xtick_1">
     <g id="line2d_1">
      <defs>
       <path id="m9de162eb83" d="M 0 0 
L 0 3.5 
" style="stroke: #000000; stroke-width: 0.8"/>
      </defs>
      <g>
       <use xlink:href="#m9de162eb83" x="134.398913" y="445.68" style="stroke: #000000; stroke-width: 0.8"/>
      </g>
     </g>
     <g id="text_1">
      <!-- S0 -->
      <g transform="translate(122.959069 466.357187) scale(0.18 -0.18)">
       <defs>
        <path id="DejaVuSans-53" d="M 3425 4513 
L 3425 3897 
Q 3066 4069 2747 4153 
Q 2428 4238 2131 4238 
Q 1616 4238 1336 4038 
Q 1056 3838 1056 3469 
Q 1056 3159 1242 3001 
Q 1428 2844 1947 2747 
L 2328 2669 
Q 3034 2534 3370 2195 
Q 3706 1856 3706 1288 
Q 3706 609 3251 259 
Q 2797 -91 1919 -91 
Q 1588 -91 1214 -16 
Q 841 59 441 206 
L 441 856 
Q 825 641 1194 531 
Q 1563 422 1919 422 
Q 2459 422 2753 634 
Q 3047 847 3047 1241 
Q 3047 1584 2836 1778 
Q 2625 1972 2144 2069 
L 1759 2144 
Q 1053 2284 737 2584 
Q 422 2884 422 3419 
Q 422 4038 858 4394 
Q 1294 4750 2059 4750 
Q 2388 4750 2728 4690 
Q 3069 4631 3425 4513 
z
" transform="scale(0.015625)"/>
        <path id="DejaVuSans-30" d="M 2034 4250 
Q 1547 4250 1301 3770 
Q 1056 3291 1056 2328 
Q 1056 1369 1301 889 
Q 1547 409 2034 409 
Q 2525 409 2770 889 
Q 3016 1369 3016 2328 
Q 3016 3291 2770 3770 
Q 2525 4250 2034 4250 
z
M 2034 4750 
Q 2819 4750 3233 4129 
Q 3647 3509 3647 2328 
Q 3647 1150 3233 529 
Q 2819 -91 2034 -91 
Q 1250 -91 836 529 
Q 422 1150 422 2328 
Q 422 3509 836 4129 
Q 1250 4750 2034 4750 
z
" transform="scale(0.015625)"/>
       </defs>
       <use xlink:href="#DejaVuSans-53"/>
       <use xlink:href="#DejaVuSans-30" transform="translate(63.476562 0)"/>
      </g>
     </g>
    </g>
    <g id="xtick_2">
     <g id="line2d_2">
      <g>
       <use xlink:href="#m9de162eb83" x="213.246739" y="445.68" style="stroke: #000000; stroke-width: 0.8"/>
      </g>
     </g>
     <g id="text_2">
      <!-- S1 -->
      <g transform="translate(201.806895 466.357187) scale(0.18 -0.18)">
       <defs>
        <path id="DejaVuSans-31" d="M 794 531 
L 1825 531 
L 1825 4091 
L 703 3866 
L 703 4441 
L 1819 4666 
L 2450 4666 
L 2450 531 
L 3481 531 
L 3481 0 
L 794 0 
L 794 531 
z
" transform="scale(0.015625)"/>
       </defs>
       <use xlink:href="#DejaVuSans-53"/>
       <use xlink:href="#DejaVuSans-31" transform="translate(63.476562 0)"/>
      </g>
     </g>
    </g>
    <g id="xtick_3">
     <g id="line2d_3">
      <g>
       <use xlink:href="#m9de162eb83" x="292.094565" y="445.68" style="stroke: #000000; stroke-width: 0.8"/>
      </g>
     </g>
     <g id="text_3">
      <!-- S2 -->
      <g transform="translate(280.654721 466.357187) scale(0.18 -0.18)">
       <defs>
        <path id="DejaVuSans-32" d="M 1228 531 
L 3431 531 
L 3431 0 
L 469 0 
L 469 531 
Q 828 903 1448 1529 
Q 2069 2156 2228 2338 
Q 2531 2678 2651 2914 
Q 2772 3150 2772 3378 
Q 2772 3750 2511 3984 
Q 2250 4219 1831 4219 
Q 1534 4219 1204 4116 
Q 875 4013 500 3803 
L 500 4441 
Q 881 4594 1212 4672 
Q 1544 4750 1819 4750 
Q 2544 4750 2975 4387 
Q 3406 4025 3406 3419 
Q 3406 3131 3298 2873 
Q 3191 2616 2906 2266 
Q 2828 2175 2409 1742 
Q 1991 1309 1228 531 
z
" transform="scale(0.015625)"/>
       </defs>
       <use xlink:href="#DejaVuSans-53"/>
       <use xlink:href="#DejaVuSans-32" transform="translate(63.476562 0)"/>
      </g>
     </g>
    </g>
    <g id="xtick_4">
     <g id="line2d_4">
      <g>
       <use xlink:href="#m9de162eb83" x="370.942391" y="445.68" style="stroke: #000000; stroke-width: 0.8"/>
      </g>
     </g>
     <g id="text_4">
      <!-- S3 -->
      <g transform="translate(359.502548 466.357187) scale(0.18 -0.18)">
       <defs>
        <path id="DejaVuSans-33" d="M 2597 2516 
Q 3050 2419 3304 2112 
Q 3559 1806 3559 1356 
Q 3559 666 3084 287 
Q 2609 -91 1734 -91 
Q 1441 -91 1130 -33 
Q 819 25 488 141 
L 488 750 
Q 750 597 1062 519 
Q 1375 441 1716 441 
Q 2309 441 2620 675 
Q 2931 909 2931 1356 
Q 2931 1769 2642 2001 
Q 2353 2234 1838 2234 
L 1294 2234 
L 1294 2753 
L 1863 2753 
Q 2328 2753 2575 2939 
Q 2822 3125 2822 3475 
Q 2822 3834 2567 4026 
Q 2313 4219 1838 4219 
Q 1578 4219 1281 4162 
Q 984 4106 628 3988 
L 628 4550 
Q 988 4650 1302 4700 
Q 1616 4750 1894 4750 
Q 2613 4750 3031 4423 
Q 3450 4097 3450 3541 
Q 3450 3153 3228 2886 
Q 3006 2619 2597 2516 
z
" transform="scale(0.015625)"/>
       </defs>
       <use xlink:href="#DejaVuSans-53"/>
       <use xlink:href="#DejaVuSans-33" transform="translate(63.476562 0)"/>
      </g>
     </g>
    </g>
    <g id="xtick_5">
     <g id="line2d_5">
      <g>
       <use xlink:href="#m9de162eb83" x="449.790217" y="445.68" style="stroke: #000000; stroke-width: 0.8"/>
      </g>
     </g>
     <g id="text_5">
      <!-- S4 -->
      <g transform="translate(438.350374 466.357187) scale(0.18 -0.18)">
       <defs>
        <path id="DejaVuSans-34" d="M 2419 4116 
L 825 1625 
L 2419 1625 
L 2419 4116 
z
M 2253 4666 
L 3047 4666 
L 3047 1625 
L 3713 1625 
L 3713 1100 
L 3047 1100 
L 3047 0 
L 2419 0 
L 2419 1100 
L 313 1100 
L 313 1709 
L 2253 4666 
z
" transform="scale(0.015625)"/>
       </defs>
       <use xlink:href="#DejaVuSans-53"/>
       <use xlink:href="#DejaVuSans-34" transform="translate(63.476562 0)"/>
      </g>
     </g>
    </g>
    <g id="xtick_6">
     <g id="line2d_6">
      <g>
       <use xlink:href="#m9de162eb83" x="528.638043" y="445.68" style="stroke: #000000; stroke-width: 0.8"/>
      </g>
     </g>
     <g id="text_6">
      <!-- S5 -->
      <g transform="translate(517.1982 466.357187) scale(0.18 -0.18)">
       <defs>
        <path id="DejaVuSans-35" d="M 691 4666 
L 3169 4666 
L 3169 4134 
L 1269 4134 
L 1269 2991 
Q 1406 3038 1543 3061 
Q 1681 3084 1819 3084 
Q 2600 3084 3056 2656 
Q 3513 2228 3513 1497 
Q 3513 744 3044 326 
Q 2575 -91 1722 -91 
Q 1428 -91 1123 -41 
Q 819 9 494 109 
L 494 744 
Q 775 591 1075 516 
Q 1375 441 1709 441 
Q 2250 441 2565 725 
Q 2881 1009 2881 1497 
Q 2881 1984 2565 2268 
Q 2250 2553 1709 2553 
Q 1456 2553 1204 2497 
Q 953 2441 691 2322 
L 691 4666 
z
" transform="scale(0.015625)"/>
       </defs>
       <use xlink:href="#DejaVuSans-53"/>
       <use xlink:href="#DejaVuSans-35" transform="translate(63.476562 0)"/>
      </g>
     </g>
    </g>
    <g id="text_7">
     <!-- Severity Level -->
     <g transform="translate(251.209103 489.2975) scale(0.2 -0.2)">
      <defs>
       <path id="DejaVuSans-Bold-53" d="M 3834 4519 
L 3834 3531 
Q 3450 3703 3084 3790 
Q 2719 3878 2394 3878 
Q 1963 3878 1756 3759 
Q 1550 3641 1550 3391 
Q 1550 3203 1689 3098 
Q 1828 2994 2194 2919 
L 2706 2816 
Q 3484 2659 3812 2340 
Q 4141 2022 4141 1434 
Q 4141 663 3683 286 
Q 3225 -91 2284 -91 
Q 1841 -91 1394 -6 
Q 947 78 500 244 
L 500 1259 
Q 947 1022 1364 901 
Q 1781 781 2169 781 
Q 2563 781 2772 912 
Q 2981 1044 2981 1288 
Q 2981 1506 2839 1625 
Q 2697 1744 2272 1838 
L 1806 1941 
Q 1106 2091 782 2419 
Q 459 2747 459 3303 
Q 459 4000 909 4375 
Q 1359 4750 2203 4750 
Q 2588 4750 2994 4692 
Q 3400 4634 3834 4519 
z
" transform="scale(0.015625)"/>
       <path id="DejaVuSans-Bold-65" d="M 4031 1759 
L 4031 1441 
L 1416 1441 
Q 1456 1047 1700 850 
Q 1944 653 2381 653 
Q 2734 653 3104 758 
Q 3475 863 3866 1075 
L 3866 213 
Q 3469 63 3072 -14 
Q 2675 -91 2278 -91 
Q 1328 -91 801 392 
Q 275 875 275 1747 
Q 275 2603 792 3093 
Q 1309 3584 2216 3584 
Q 3041 3584 3536 3087 
Q 4031 2591 4031 1759 
z
M 2881 2131 
Q 2881 2450 2695 2645 
Q 2509 2841 2209 2841 
Q 1884 2841 1681 2658 
Q 1478 2475 1428 2131 
L 2881 2131 
z
" transform="scale(0.015625)"/>
       <path id="DejaVuSans-Bold-76" d="M 97 3500 
L 1216 3500 
L 2088 1081 
L 2956 3500 
L 4078 3500 
L 2700 0 
L 1472 0 
L 97 3500 
z
" transform="scale(0.015625)"/>
       <path id="DejaVuSans-Bold-72" d="M 3138 2547 
Q 2991 2616 2845 2648 
Q 2700 2681 2553 2681 
Q 2122 2681 1889 2404 
Q 1656 2128 1656 1613 
L 1656 0 
L 538 0 
L 538 3500 
L 1656 3500 
L 1656 2925 
Q 1872 3269 2151 3426 
Q 2431 3584 2822 3584 
Q 2878 3584 2943 3579 
Q 3009 3575 3134 3559 
L 3138 2547 
z
" transform="scale(0.015625)"/>
       <path id="DejaVuSans-Bold-69" d="M 538 3500 
L 1656 3500 
L 1656 0 
L 538 0 
L 538 3500 
z
M 538 4863 
L 1656 4863 
L 1656 3950 
L 538 3950 
L 538 4863 
z
" transform="scale(0.015625)"/>
       <path id="DejaVuSans-Bold-74" d="M 1759 4494 
L 1759 3500 
L 2913 3500 
L 2913 2700 
L 1759 2700 
L 1759 1216 
Q 1759 972 1856 886 
Q 1953 800 2241 800 
L 2816 800 
L 2816 0 
L 1856 0 
Q 1194 0 917 276 
Q 641 553 641 1216 
L 641 2700 
L 84 2700 
L 84 3500 
L 641 3500 
L 641 4494 
L 1759 4494 
z
" transform="scale(0.015625)"/>
       <path id="DejaVuSans-Bold-79" d="M 78 3500 
L 1197 3500 
L 2138 1125 
L 2938 3500 
L 4056 3500 
L 2584 -331 
Q 2363 -916 2067 -1148 
Q 1772 -1381 1288 -1381 
L 641 -1381 
L 641 -647 
L 991 -647 
Q 1275 -647 1404 -556 
Q 1534 -466 1606 -231 
L 1638 -134 
L 78 3500 
z
" transform="scale(0.015625)"/>
       <path id="DejaVuSans-Bold-20" transform="scale(0.015625)"/>
       <path id="DejaVuSans-Bold-4c" d="M 588 4666 
L 1791 4666 
L 1791 909 
L 3903 909 
L 3903 0 
L 588 0 
L 588 4666 
z
" transform="scale(0.015625)"/>
       <path id="DejaVuSans-Bold-6c" d="M 538 4863 
L 1656 4863 
L 1656 0 
L 538 0 
L 538 4863 
z
" transform="scale(0.015625)"/>
      </defs>
      <use xlink:href="#DejaVuSans-Bold-53"/>
      <use xlink:href="#DejaVuSans-Bold-65" transform="translate(72.021484 0)"/>
      <use xlink:href="#DejaVuSans-Bold-76" transform="translate(139.84375 0)"/>
      <use xlink:href="#DejaVuSans-Bold-65" transform="translate(205.029297 0)"/>
      <use xlink:href="#DejaVuSans-Bold-72" transform="translate(272.851562 0)"/>
      <use xlink:href="#DejaVuSans-Bold-69" transform="translate(322.167969 0)"/>
      <use xlink:href="#DejaVuSans-Bold-74" transform="translate(356.445312 0)"/>
      <use xlink:href="#DejaVuSans-Bold-79" transform="translate(404.248047 0)"/>
      <use xlink:href="#DejaVuSans-Bold-20" transform="translate(469.433594 0)"/>
      <use xlink:href="#DejaVuSans-Bold-4c" transform="translate(504.248047 0)"/>
      <use xlink:href="#DejaVuSans-Bold-65" transform="translate(567.96875 0)"/>
      <use xlink:href="#DejaVuSans-Bold-76" transform="translate(635.791016 0)"/>
      <use xlink:href="#DejaVuSans-Bold-65" transform="translate(700.976562 0)"/>
      <use xlink:href="#DejaVuSans-Bold-6c" transform="translate(768.798828 0)"/>
     </g>
    </g>
   </g>
   <g id="matplotlib.axis_2">
    <g id="ytick_1">
     <g id="line2d_7">
      <defs>
       <path id="mc37e622575" d="M 0 0 
L -3.5 0 
" style="stroke: #000000; stroke-width: 0.8"/>
      </defs>
      <g>
       <use xlink:href="#mc37e622575" x="94.975" y="428.04" style="stroke: #000000; stroke-width: 0.8"/>
      </g>
     </g>
     <g id="text_8">
      <!-- 0 -->
      <g transform="translate(76.5225 434.878594) scale(0.18 -0.18)">
       <use xlink:href="#DejaVuSans-30"/>
      </g>
     </g>
    </g>
    <g id="ytick_2">
     <g id="line2d_8">
      <g>
       <use xlink:href="#mc37e622575" x="94.975" y="378.579745" style="stroke: #000000; stroke-width: 0.8"/>
      </g>
     </g>
     <g id="text_9">
      <!-- 2000 -->
      <g transform="translate(42.165 385.418339) scale(0.18 -0.18)">
       <use xlink:href="#DejaVuSans-32"/>
       <use xlink:href="#DejaVuSans-30" transform="translate(63.623047 0)"/>
       <use xlink:href="#DejaVuSans-30" transform="translate(127.246094 0)"/>
       <use xlink:href="#DejaVuSans-30" transform="translate(190.869141 0)"/>
      </g>
     </g>
    </g>
    <g id="ytick_3">
     <g id="line2d_9">
      <g>
       <use xlink:href="#mc37e622575" x="94.975" y="329.11949" style="stroke: #000000; stroke-width: 0.8"/>
      </g>
     </g>
     <g id="text_10">
      <!-- 4000 -->
      <g transform="translate(42.165 335.958083) scale(0.18 -0.18)">
       <use xlink:href="#DejaVuSans-34"/>
       <use xlink:href="#DejaVuSans-30" transform="translate(63.623047 0)"/>
       <use xlink:href="#DejaVuSans-30" transform="translate(127.246094 0)"/>
       <use xlink:href="#DejaVuSans-30" transform="translate(190.869141 0)"/>
      </g>
     </g>
    </g>
    <g id="ytick_4">
     <g id="line2d_10">
      <g>
       <use xlink:href="#mc37e622575" x="94.975" y="279.659235" style="stroke: #000000; stroke-width: 0.8"/>
      </g>
     </g>
     <g id="text_11">
      <!-- 6000 -->
      <g transform="translate(42.165 286.497828) scale(0.18 -0.18)">
       <defs>
        <path id="DejaVuSans-36" d="M 2113 2584 
Q 1688 2584 1439 2293 
Q 1191 2003 1191 1497 
Q 1191 994 1439 701 
Q 1688 409 2113 409 
Q 2538 409 2786 701 
Q 3034 994 3034 1497 
Q 3034 2003 2786 2293 
Q 2538 2584 2113 2584 
z
M 3366 4563 
L 3366 3988 
Q 3128 4100 2886 4159 
Q 2644 4219 2406 4219 
Q 1781 4219 1451 3797 
Q 1122 3375 1075 2522 
Q 1259 2794 1537 2939 
Q 1816 3084 2150 3084 
Q 2853 3084 3261 2657 
Q 3669 2231 3669 1497 
Q 3669 778 3244 343 
Q 2819 -91 2113 -91 
Q 1303 -91 875 529 
Q 447 1150 447 2328 
Q 447 3434 972 4092 
Q 1497 4750 2381 4750 
Q 2619 4750 2861 4703 
Q 3103 4656 3366 4563 
z
" transform="scale(0.015625)"/>
       </defs>
       <use xlink:href="#DejaVuSans-36"/>
       <use xlink:href="#DejaVuSans-30" transform="translate(63.623047 0)"/>
       <use xlink:href="#DejaVuSans-30" transform="translate(127.246094 0)"/>
       <use xlink:href="#DejaVuSans-30" transform="translate(190.869141 0)"/>
      </g>
     </g>
    </g>
    <g id="ytick_5">
     <g id="line2d_11">
      <g>
       <use xlink:href="#mc37e622575" x="94.975" y="230.198979" style="stroke: #000000; stroke-width: 0.8"/>
      </g>
     </g>
     <g id="text_12">
      <!-- 8000 -->
      <g transform="translate(42.165 237.037573) scale(0.18 -0.18)">
       <defs>
        <path id="DejaVuSans-38" d="M 2034 2216 
Q 1584 2216 1326 1975 
Q 1069 1734 1069 1313 
Q 1069 891 1326 650 
Q 1584 409 2034 409 
Q 2484 409 2743 651 
Q 3003 894 3003 1313 
Q 3003 1734 2745 1975 
Q 2488 2216 2034 2216 
z
M 1403 2484 
Q 997 2584 770 2862 
Q 544 3141 544 3541 
Q 544 4100 942 4425 
Q 1341 4750 2034 4750 
Q 2731 4750 3128 4425 
Q 3525 4100 3525 3541 
Q 3525 3141 3298 2862 
Q 3072 2584 2669 2484 
Q 3125 2378 3379 2068 
Q 3634 1759 3634 1313 
Q 3634 634 3220 271 
Q 2806 -91 2034 -91 
Q 1263 -91 848 271 
Q 434 634 434 1313 
Q 434 1759 690 2068 
Q 947 2378 1403 2484 
z
M 1172 3481 
Q 1172 3119 1398 2916 
Q 1625 2713 2034 2713 
Q 2441 2713 2670 2916 
Q 2900 3119 2900 3481 
Q 2900 3844 2670 4047 
Q 2441 4250 2034 4250 
Q 1625 4250 1398 4047 
Q 1172 3844 1172 3481 
z
" transform="scale(0.015625)"/>
       </defs>
       <use xlink:href="#DejaVuSans-38"/>
       <use xlink:href="#DejaVuSans-30" transform="translate(63.623047 0)"/>
       <use xlink:href="#DejaVuSans-30" transform="translate(127.246094 0)"/>
       <use xlink:href="#DejaVuSans-30" transform="translate(190.869141 0)"/>
      </g>
     </g>
    </g>
    <g id="ytick_6">
     <g id="line2d_12">
      <g>
       <use xlink:href="#mc37e622575" x="94.975" y="180.738724" style="stroke: #000000; stroke-width: 0.8"/>
      </g>
     </g>
     <g id="text_13">
      <!-- 10000 -->
      <g transform="translate(30.7125 187.577318) scale(0.18 -0.18)">
       <use xlink:href="#DejaVuSans-31"/>
       <use xlink:href="#DejaVuSans-30" transform="translate(63.623047 0)"/>
       <use xlink:href="#DejaVuSans-30" transform="translate(127.246094 0)"/>
       <use xlink:href="#DejaVuSans-30" transform="translate(190.869141 0)"/>
       <use xlink:href="#DejaVuSans-30" transform="translate(254.492188 0)"/>
      </g>
     </g>
    </g>
    <g id="ytick_7">
     <g id="line2d_13">
      <g>
       <use xlink:href="#mc37e622575" x="94.975" y="131.278469" style="stroke: #000000; stroke-width: 0.8"/>
      </g>
     </g>
     <g id="text_14">
      <!-- 12000 -->
      <g transform="translate(30.7125 138.117063) scale(0.18 -0.18)">
       <use xlink:href="#DejaVuSans-31"/>
       <use xlink:href="#DejaVuSans-32" transform="translate(63.623047 0)"/>
       <use xlink:href="#DejaVuSans-30" transform="translate(127.246094 0)"/>
       <use xlink:href="#DejaVuSans-30" transform="translate(190.869141 0)"/>
       <use xlink:href="#DejaVuSans-30" transform="translate(254.492188 0)"/>
      </g>
     </g>
    </g>
    <g id="ytick_8">
     <g id="line2d_14">
      <g>
       <use xlink:href="#mc37e622575" x="94.975" y="81.818214" style="stroke: #000000; stroke-width: 0.8"/>
      </g>
     </g>
     <g id="text_15">
      <!-- 14000 -->
      <g transform="translate(30.7125 88.656808) scale(0.18 -0.18)">
       <use xlink:href="#DejaVuSans-31"/>
       <use xlink:href="#DejaVuSans-34" transform="translate(63.623047 0)"/>
       <use xlink:href="#DejaVuSans-30" transform="translate(127.246094 0)"/>
       <use xlink:href="#DejaVuSans-30" transform="translate(190.869141 0)"/>
       <use xlink:href="#DejaVuSans-30" transform="translate(254.492188 0)"/>
      </g>
     </g>
    </g>
    <g id="text_16">
     <!-- Length of Bitstream (bytes) -->
     <g transform="translate(22.396875 408.40875) rotate(-90) scale(0.2 -0.2)">
      <defs>
       <path id="DejaVuSans-Bold-6e" d="M 4056 2131 
L 4056 0 
L 2931 0 
L 2931 347 
L 2931 1631 
Q 2931 2084 2911 2256 
Q 2891 2428 2841 2509 
Q 2775 2619 2662 2680 
Q 2550 2741 2406 2741 
Q 2056 2741 1856 2470 
Q 1656 2200 1656 1722 
L 1656 0 
L 538 0 
L 538 3500 
L 1656 3500 
L 1656 2988 
Q 1909 3294 2193 3439 
Q 2478 3584 2822 3584 
Q 3428 3584 3742 3212 
Q 4056 2841 4056 2131 
z
" transform="scale(0.015625)"/>
       <path id="DejaVuSans-Bold-67" d="M 2919 594 
Q 2688 288 2409 144 
Q 2131 0 1766 0 
Q 1125 0 706 504 
Q 288 1009 288 1791 
Q 288 2575 706 3076 
Q 1125 3578 1766 3578 
Q 2131 3578 2409 3434 
Q 2688 3291 2919 2981 
L 2919 3500 
L 4044 3500 
L 4044 353 
Q 4044 -491 3511 -936 
Q 2978 -1381 1966 -1381 
Q 1638 -1381 1331 -1331 
Q 1025 -1281 716 -1178 
L 716 -306 
Q 1009 -475 1290 -558 
Q 1572 -641 1856 -641 
Q 2406 -641 2662 -400 
Q 2919 -159 2919 353 
L 2919 594 
z
M 2181 2772 
Q 1834 2772 1640 2515 
Q 1447 2259 1447 1791 
Q 1447 1309 1634 1061 
Q 1822 813 2181 813 
Q 2531 813 2725 1069 
Q 2919 1325 2919 1791 
Q 2919 2259 2725 2515 
Q 2531 2772 2181 2772 
z
" transform="scale(0.015625)"/>
       <path id="DejaVuSans-Bold-68" d="M 4056 2131 
L 4056 0 
L 2931 0 
L 2931 347 
L 2931 1625 
Q 2931 2084 2911 2256 
Q 2891 2428 2841 2509 
Q 2775 2619 2662 2680 
Q 2550 2741 2406 2741 
Q 2056 2741 1856 2470 
Q 1656 2200 1656 1722 
L 1656 0 
L 538 0 
L 538 4863 
L 1656 4863 
L 1656 2988 
Q 1909 3294 2193 3439 
Q 2478 3584 2822 3584 
Q 3428 3584 3742 3212 
Q 4056 2841 4056 2131 
z
" transform="scale(0.015625)"/>
       <path id="DejaVuSans-Bold-6f" d="M 2203 2784 
Q 1831 2784 1636 2517 
Q 1441 2250 1441 1747 
Q 1441 1244 1636 976 
Q 1831 709 2203 709 
Q 2569 709 2762 976 
Q 2956 1244 2956 1747 
Q 2956 2250 2762 2517 
Q 2569 2784 2203 2784 
z
M 2203 3584 
Q 3106 3584 3614 3096 
Q 4122 2609 4122 1747 
Q 4122 884 3614 396 
Q 3106 -91 2203 -91 
Q 1297 -91 786 396 
Q 275 884 275 1747 
Q 275 2609 786 3096 
Q 1297 3584 2203 3584 
z
" transform="scale(0.015625)"/>
       <path id="DejaVuSans-Bold-66" d="M 2841 4863 
L 2841 4128 
L 2222 4128 
Q 1984 4128 1890 4042 
Q 1797 3956 1797 3744 
L 1797 3500 
L 2753 3500 
L 2753 2700 
L 1797 2700 
L 1797 0 
L 678 0 
L 678 2700 
L 122 2700 
L 122 3500 
L 678 3500 
L 678 3744 
Q 678 4316 997 4589 
Q 1316 4863 1984 4863 
L 2841 4863 
z
" transform="scale(0.015625)"/>
       <path id="DejaVuSans-Bold-42" d="M 2456 2859 
Q 2741 2859 2887 2984 
Q 3034 3109 3034 3353 
Q 3034 3594 2887 3720 
Q 2741 3847 2456 3847 
L 1791 3847 
L 1791 2859 
L 2456 2859 
z
M 2497 819 
Q 2859 819 3042 972 
Q 3225 1125 3225 1434 
Q 3225 1738 3044 1889 
Q 2863 2041 2497 2041 
L 1791 2041 
L 1791 819 
L 2497 819 
z
M 3616 2497 
Q 4003 2384 4215 2081 
Q 4428 1778 4428 1338 
Q 4428 663 3972 331 
Q 3516 0 2584 0 
L 588 0 
L 588 4666 
L 2394 4666 
Q 3366 4666 3802 4372 
Q 4238 4078 4238 3431 
Q 4238 3091 4078 2852 
Q 3919 2613 3616 2497 
z
" transform="scale(0.015625)"/>
       <path id="DejaVuSans-Bold-73" d="M 3272 3391 
L 3272 2541 
Q 2913 2691 2578 2766 
Q 2244 2841 1947 2841 
Q 1628 2841 1473 2761 
Q 1319 2681 1319 2516 
Q 1319 2381 1436 2309 
Q 1553 2238 1856 2203 
L 2053 2175 
Q 2913 2066 3209 1816 
Q 3506 1566 3506 1031 
Q 3506 472 3093 190 
Q 2681 -91 1863 -91 
Q 1516 -91 1145 -36 
Q 775 19 384 128 
L 384 978 
Q 719 816 1070 734 
Q 1422 653 1784 653 
Q 2113 653 2278 743 
Q 2444 834 2444 1013 
Q 2444 1163 2330 1236 
Q 2216 1309 1875 1350 
L 1678 1375 
Q 931 1469 631 1722 
Q 331 1975 331 2491 
Q 331 3047 712 3315 
Q 1094 3584 1881 3584 
Q 2191 3584 2531 3537 
Q 2872 3491 3272 3391 
z
" transform="scale(0.015625)"/>
       <path id="DejaVuSans-Bold-61" d="M 2106 1575 
Q 1756 1575 1579 1456 
Q 1403 1338 1403 1106 
Q 1403 894 1545 773 
Q 1688 653 1941 653 
Q 2256 653 2472 879 
Q 2688 1106 2688 1447 
L 2688 1575 
L 2106 1575 
z
M 3816 1997 
L 3816 0 
L 2688 0 
L 2688 519 
Q 2463 200 2181 54 
Q 1900 -91 1497 -91 
Q 953 -91 614 226 
Q 275 544 275 1050 
Q 275 1666 698 1953 
Q 1122 2241 2028 2241 
L 2688 2241 
L 2688 2328 
Q 2688 2594 2478 2717 
Q 2269 2841 1825 2841 
Q 1466 2841 1156 2769 
Q 847 2697 581 2553 
L 581 3406 
Q 941 3494 1303 3539 
Q 1666 3584 2028 3584 
Q 2975 3584 3395 3211 
Q 3816 2838 3816 1997 
z
" transform="scale(0.015625)"/>
       <path id="DejaVuSans-Bold-6d" d="M 3781 2919 
Q 3994 3244 4286 3414 
Q 4578 3584 4928 3584 
Q 5531 3584 5847 3212 
Q 6163 2841 6163 2131 
L 6163 0 
L 5038 0 
L 5038 1825 
Q 5041 1866 5042 1909 
Q 5044 1953 5044 2034 
Q 5044 2406 4934 2573 
Q 4825 2741 4581 2741 
Q 4263 2741 4089 2478 
Q 3916 2216 3909 1719 
L 3909 0 
L 2784 0 
L 2784 1825 
Q 2784 2406 2684 2573 
Q 2584 2741 2328 2741 
Q 2006 2741 1831 2477 
Q 1656 2213 1656 1722 
L 1656 0 
L 531 0 
L 531 3500 
L 1656 3500 
L 1656 2988 
Q 1863 3284 2130 3434 
Q 2397 3584 2719 3584 
Q 3081 3584 3359 3409 
Q 3638 3234 3781 2919 
z
" transform="scale(0.015625)"/>
       <path id="DejaVuSans-Bold-28" d="M 2413 -844 
L 1484 -844 
Q 1006 -72 778 623 
Q 550 1319 550 2003 
Q 550 2688 779 3389 
Q 1009 4091 1484 4856 
L 2413 4856 
Q 2013 4116 1813 3408 
Q 1613 2700 1613 2009 
Q 1613 1319 1811 609 
Q 2009 -100 2413 -844 
z
" transform="scale(0.015625)"/>
       <path id="DejaVuSans-Bold-62" d="M 2400 722 
Q 2759 722 2948 984 
Q 3138 1247 3138 1747 
Q 3138 2247 2948 2509 
Q 2759 2772 2400 2772 
Q 2041 2772 1848 2508 
Q 1656 2244 1656 1747 
Q 1656 1250 1848 986 
Q 2041 722 2400 722 
z
M 1656 2988 
Q 1888 3294 2169 3439 
Q 2450 3584 2816 3584 
Q 3463 3584 3878 3070 
Q 4294 2556 4294 1747 
Q 4294 938 3878 423 
Q 3463 -91 2816 -91 
Q 2450 -91 2169 54 
Q 1888 200 1656 506 
L 1656 0 
L 538 0 
L 538 4863 
L 1656 4863 
L 1656 2988 
z
" transform="scale(0.015625)"/>
       <path id="DejaVuSans-Bold-29" d="M 513 -844 
Q 913 -100 1113 609 
Q 1313 1319 1313 2009 
Q 1313 2700 1113 3408 
Q 913 4116 513 4856 
L 1441 4856 
Q 1916 4091 2145 3389 
Q 2375 2688 2375 2003 
Q 2375 1319 2147 623 
Q 1919 -72 1441 -844 
L 513 -844 
z
" transform="scale(0.015625)"/>
      </defs>
      <use xlink:href="#DejaVuSans-Bold-4c"/>
      <use xlink:href="#DejaVuSans-Bold-65" transform="translate(63.720703 0)"/>
      <use xlink:href="#DejaVuSans-Bold-6e" transform="translate(131.542969 0)"/>
      <use xlink:href="#DejaVuSans-Bold-67" transform="translate(202.734375 0)"/>
      <use xlink:href="#DejaVuSans-Bold-74" transform="translate(274.316406 0)"/>
      <use xlink:href="#DejaVuSans-Bold-68" transform="translate(322.119141 0)"/>
      <use xlink:href="#DejaVuSans-Bold-20" transform="translate(393.310547 0)"/>
      <use xlink:href="#DejaVuSans-Bold-6f" transform="translate(428.125 0)"/>
      <use xlink:href="#DejaVuSans-Bold-66" transform="translate(496.826172 0)"/>
      <use xlink:href="#DejaVuSans-Bold-20" transform="translate(540.332031 0)"/>
      <use xlink:href="#DejaVuSans-Bold-42" transform="translate(575.146484 0)"/>
      <use xlink:href="#DejaVuSans-Bold-69" transform="translate(651.367188 0)"/>
      <use xlink:href="#DejaVuSans-Bold-74" transform="translate(685.644531 0)"/>
      <use xlink:href="#DejaVuSans-Bold-73" transform="translate(733.447266 0)"/>
      <use xlink:href="#DejaVuSans-Bold-74" transform="translate(792.96875 0)"/>
      <use xlink:href="#DejaVuSans-Bold-72" transform="translate(840.771484 0)"/>
      <use xlink:href="#DejaVuSans-Bold-65" transform="translate(890.087891 0)"/>
      <use xlink:href="#DejaVuSans-Bold-61" transform="translate(957.910156 0)"/>
      <use xlink:href="#DejaVuSans-Bold-6d" transform="translate(1025.390625 0)"/>
      <use xlink:href="#DejaVuSans-Bold-20" transform="translate(1129.589844 0)"/>
      <use xlink:href="#DejaVuSans-Bold-28" transform="translate(1164.404297 0)"/>
      <use xlink:href="#DejaVuSans-Bold-62" transform="translate(1210.107422 0)"/>
      <use xlink:href="#DejaVuSans-Bold-79" transform="translate(1281.689453 0)"/>
      <use xlink:href="#DejaVuSans-Bold-74" transform="translate(1346.875 0)"/>
      <use xlink:href="#DejaVuSans-Bold-65" transform="translate(1394.677734 0)"/>
      <use xlink:href="#DejaVuSans-Bold-73" transform="translate(1462.5 0)"/>
      <use xlink:href="#DejaVuSans-Bold-29" transform="translate(1522.021484 0)"/>
     </g>
    </g>
   </g>
   <g id="patch_3">
    <path d="M 110.744565 260.202807 
L 158.053261 260.202807 
L 158.053261 186.000059 
L 110.744565 186.000059 
L 110.744565 260.202807 
z
" clip-path="url(#p69bc54e8d7)" style="fill: #add8e6; opacity: 0.7; stroke: #000000; stroke-linejoin: miter"/>
   </g>
   <g id="line2d_15">
    <path d="M 134.398913 260.202807 
L 134.398913 370.962866 
" clip-path="url(#p69bc54e8d7)" style="fill: none; stroke: #000000; stroke-linecap: square"/>
   </g>
   <g id="line2d_16">
    <path d="M 134.398913 186.000059 
L 134.398913 75.24 
" clip-path="url(#p69bc54e8d7)" style="fill: none; stroke: #000000; stroke-linecap: square"/>
   </g>
   <g id="line2d_17">
    <path d="M 122.571739 370.962866 
L 146.226087 370.962866 
" clip-path="url(#p69bc54e8d7)" style="fill: none; stroke: #000000; stroke-linecap: square"/>
   </g>
   <g id="line2d_18">
    <path d="M 122.571739 75.24 
L 146.226087 75.24 
" clip-path="url(#p69bc54e8d7)" style="fill: none; stroke: #000000; stroke-linecap: square"/>
   </g>
   <g id="patch_4">
    <path d="M 189.592391 268.66051 
L 236.901087 268.66051 
L 236.901087 197.029696 
L 189.592391 197.029696 
L 189.592391 268.66051 
z
" clip-path="url(#p69bc54e8d7)" style="fill: #add8e6; opacity: 0.7; stroke: #000000; stroke-linejoin: miter"/>
   </g>
   <g id="line2d_19">
    <path d="M 213.246739 268.66051 
L 213.246739 375.809971 
" clip-path="url(#p69bc54e8d7)" style="fill: none; stroke: #000000; stroke-linecap: square"/>
   </g>
   <g id="line2d_20">
    <path d="M 213.246739 197.029696 
L 213.246739 89.954426 
" clip-path="url(#p69bc54e8d7)" style="fill: none; stroke: #000000; stroke-linecap: square"/>
   </g>
   <g id="line2d_21">
    <path d="M 201.419565 375.809971 
L 225.073913 375.809971 
" clip-path="url(#p69bc54e8d7)" style="fill: none; stroke: #000000; stroke-linecap: square"/>
   </g>
   <g id="line2d_22">
    <path d="M 201.419565 89.954426 
L 225.073913 89.954426 
" clip-path="url(#p69bc54e8d7)" style="fill: none; stroke: #000000; stroke-linecap: square"/>
   </g>
   <g id="patch_5">
    <path d="M 268.440217 288.376605 
L 315.748913 288.376605 
L 315.748913 224.016447 
L 268.440217 224.016447 
L 268.440217 288.376605 
z
" clip-path="url(#p69bc54e8d7)" style="fill: #add8e6; opacity: 0.7; stroke: #000000; stroke-linejoin: miter"/>
   </g>
   <g id="line2d_23">
    <path d="M 292.094565 288.376605 
L 292.094565 383.822532 
" clip-path="url(#p69bc54e8d7)" style="fill: none; stroke: #000000; stroke-linecap: square"/>
   </g>
   <g id="line2d_24">
    <path d="M 292.094565 224.016447 
L 292.094565 127.742061 
" clip-path="url(#p69bc54e8d7)" style="fill: none; stroke: #000000; stroke-linecap: square"/>
   </g>
   <g id="line2d_25">
    <path d="M 280.267391 383.822532 
L 303.921739 383.822532 
" clip-path="url(#p69bc54e8d7)" style="fill: none; stroke: #000000; stroke-linecap: square"/>
   </g>
   <g id="line2d_26">
    <path d="M 280.267391 127.742061 
L 303.921739 127.742061 
" clip-path="url(#p69bc54e8d7)" style="fill: none; stroke: #000000; stroke-linecap: square"/>
   </g>
   <g id="patch_6">
    <path d="M 347.288043 350.065908 
L 394.596739 350.065908 
L 394.596739 304.438822 
L 347.288043 304.438822 
L 347.288043 350.065908 
z
" clip-path="url(#p69bc54e8d7)" style="fill: #add8e6; opacity: 0.7; stroke: #000000; stroke-linejoin: miter"/>
   </g>
   <g id="line2d_27">
    <path d="M 370.942391 350.065908 
L 370.942391 415.205064 
" clip-path="url(#p69bc54e8d7)" style="fill: none; stroke: #000000; stroke-linecap: square"/>
   </g>
   <g id="line2d_28">
    <path d="M 370.942391 304.438822 
L 370.942391 236.307321 
" clip-path="url(#p69bc54e8d7)" style="fill: none; stroke: #000000; stroke-linecap: square"/>
   </g>
   <g id="line2d_29">
    <path d="M 359.115217 415.205064 
L 382.769565 415.205064 
" clip-path="url(#p69bc54e8d7)" style="fill: none; stroke: #000000; stroke-linecap: square"/>
   </g>
   <g id="line2d_30">
    <path d="M 359.115217 236.307321 
L 382.769565 236.307321 
" clip-path="url(#p69bc54e8d7)" style="fill: none; stroke: #000000; stroke-linecap: square"/>
   </g>
   <g id="patch_7">
    <path d="M 426.13587 417.702807 
L 473.444565 417.702807 
L 473.444565 402.295937 
L 426.13587 402.295937 
L 426.13587 417.702807 
z
" clip-path="url(#p69bc54e8d7)" style="fill: #add8e6; opacity: 0.7; stroke: #000000; stroke-linejoin: miter"/>
   </g>
   <g id="line2d_31">
    <path d="M 449.790217 417.702807 
L 449.790217 428.04 
" clip-path="url(#p69bc54e8d7)" style="fill: none; stroke: #000000; stroke-linecap: square"/>
   </g>
   <g id="line2d_32">
    <path d="M 449.790217 402.295937 
L 449.790217 379.247458 
" clip-path="url(#p69bc54e8d7)" style="fill: none; stroke: #000000; stroke-linecap: square"/>
   </g>
   <g id="line2d_33">
    <path d="M 437.963043 428.04 
L 461.617391 428.04 
" clip-path="url(#p69bc54e8d7)" style="fill: none; stroke: #000000; stroke-linecap: square"/>
   </g>
   <g id="line2d_34">
    <path d="M 437.963043 379.247458 
L 461.617391 379.247458 
" clip-path="url(#p69bc54e8d7)" style="fill: none; stroke: #000000; stroke-linecap: square"/>
   </g>
   <g id="patch_8">
    <path d="M 504.983696 426.284161 
L 552.292391 426.284161 
L 552.292391 420.27474 
L 504.983696 420.27474 
L 504.983696 426.284161 
z
" clip-path="url(#p69bc54e8d7)" style="fill: #add8e6; opacity: 0.7; stroke: #000000; stroke-linejoin: miter"/>
   </g>
   <g id="line2d_35">
    <path d="M 528.638043 426.284161 
L 528.638043 428.04 
" clip-path="url(#p69bc54e8d7)" style="fill: none; stroke: #000000; stroke-linecap: square"/>
   </g>
   <g id="line2d_36">
    <path d="M 528.638043 420.27474 
L 528.638043 411.297704 
" clip-path="url(#p69bc54e8d7)" style="fill: none; stroke: #000000; stroke-linecap: square"/>
   </g>
   <g id="line2d_37">
    <path d="M 516.81087 428.04 
L 540.465217 428.04 
" clip-path="url(#p69bc54e8d7)" style="fill: none; stroke: #000000; stroke-linecap: square"/>
   </g>
   <g id="line2d_38">
    <path d="M 516.81087 411.297704 
L 540.465217 411.297704 
" clip-path="url(#p69bc54e8d7)" style="fill: none; stroke: #000000; stroke-linecap: square"/>
   </g>
   <g id="line2d_39">
    <path d="M 110.744565 224.783081 
L 158.053261 224.783081 
" clip-path="url(#p69bc54e8d7)" style="fill: none; stroke: #ff7f0e"/>
   </g>
   <g id="line2d_40">
    <path d="M 189.592391 234.922434 
L 236.901087 234.922434 
" clip-path="url(#p69bc54e8d7)" style="fill: none; stroke: #ff7f0e"/>
   </g>
   <g id="line2d_41">
    <path d="M 268.440217 256.697311 
L 315.748913 256.697311 
" clip-path="url(#p69bc54e8d7)" style="fill: none; stroke: #ff7f0e"/>
   </g>
   <g id="line2d_42">
    <path d="M 347.288043 327.549127 
L 394.596739 327.549127 
" clip-path="url(#p69bc54e8d7)" style="fill: none; stroke: #ff7f0e"/>
   </g>
   <g id="line2d_43">
    <path d="M 426.13587 410.963847 
L 473.444565 410.963847 
" clip-path="url(#p69bc54e8d7)" style="fill: none; stroke: #ff7f0e"/>
   </g>
   <g id="line2d_44">
    <path d="M 504.983696 423.910069 
L 552.292391 423.910069 
" clip-path="url(#p69bc54e8d7)" style="fill: none; stroke: #ff7f0e"/>
   </g>
   <g id="patch_9">
    <path d="M 94.975 445.68 
L 94.975 57.6 
" style="fill: none; stroke: #000000; stroke-width: 0.8; stroke-linejoin: miter; stroke-linecap: square"/>
   </g>
   <g id="patch_10">
    <path d="M 568.061957 445.68 
L 568.061957 57.6 
" style="fill: none; stroke: #000000; stroke-width: 0.8; stroke-linejoin: miter; stroke-linecap: square"/>
   </g>
   <g id="patch_11">
    <path d="M 94.975 445.68 
L 568.061957 445.68 
" style="fill: none; stroke: #000000; stroke-width: 0.8; stroke-linejoin: miter; stroke-linecap: square"/>
   </g>
   <g id="patch_12">
    <path d="M 94.975 57.6 
L 568.061957 57.6 
" style="fill: none; stroke: #000000; stroke-width: 0.8; stroke-linejoin: miter; stroke-linecap: square"/>
   </g>
   <g id="text_17">
    <!-- Full Range View -->
    <g transform="translate(241.727853 51.6) scale(0.2 -0.2)">
     <defs>
      <path id="DejaVuSans-Bold-46" d="M 588 4666 
L 3834 4666 
L 3834 3756 
L 1791 3756 
L 1791 2888 
L 3713 2888 
L 3713 1978 
L 1791 1978 
L 1791 0 
L 588 0 
L 588 4666 
z
" transform="scale(0.015625)"/>
      <path id="DejaVuSans-Bold-75" d="M 500 1363 
L 500 3500 
L 1625 3500 
L 1625 3150 
Q 1625 2866 1622 2436 
Q 1619 2006 1619 1863 
Q 1619 1441 1641 1255 
Q 1663 1069 1716 984 
Q 1784 875 1895 815 
Q 2006 756 2150 756 
Q 2500 756 2700 1025 
Q 2900 1294 2900 1772 
L 2900 3500 
L 4019 3500 
L 4019 0 
L 2900 0 
L 2900 506 
Q 2647 200 2364 54 
Q 2081 -91 1741 -91 
Q 1134 -91 817 281 
Q 500 653 500 1363 
z
" transform="scale(0.015625)"/>
      <path id="DejaVuSans-Bold-52" d="M 2297 2597 
Q 2675 2597 2839 2737 
Q 3003 2878 3003 3200 
Q 3003 3519 2839 3656 
Q 2675 3794 2297 3794 
L 1791 3794 
L 1791 2597 
L 2297 2597 
z
M 1791 1766 
L 1791 0 
L 588 0 
L 588 4666 
L 2425 4666 
Q 3347 4666 3776 4356 
Q 4206 4047 4206 3378 
Q 4206 2916 3982 2619 
Q 3759 2322 3309 2181 
Q 3556 2125 3751 1926 
Q 3947 1728 4147 1325 
L 4800 0 
L 3519 0 
L 2950 1159 
Q 2778 1509 2601 1637 
Q 2425 1766 2131 1766 
L 1791 1766 
z
" transform="scale(0.015625)"/>
      <path id="DejaVuSans-Bold-56" d="M 31 4666 
L 1241 4666 
L 2478 1222 
L 3713 4666 
L 4922 4666 
L 3194 0 
L 1759 0 
L 31 4666 
z
" transform="scale(0.015625)"/>
      <path id="DejaVuSans-Bold-77" d="M 225 3500 
L 1313 3500 
L 1900 1088 
L 2491 3500 
L 3425 3500 
L 4013 1113 
L 4603 3500 
L 5691 3500 
L 4769 0 
L 3547 0 
L 2956 2406 
L 2369 0 
L 1147 0 
L 225 3500 
z
" transform="scale(0.015625)"/>
     </defs>
     <use xlink:href="#DejaVuSans-Bold-46"/>
     <use xlink:href="#DejaVuSans-Bold-75" transform="translate(63.310547 0)"/>
     <use xlink:href="#DejaVuSans-Bold-6c" transform="translate(134.501953 0)"/>
     <use xlink:href="#DejaVuSans-Bold-6c" transform="translate(168.779297 0)"/>
     <use xlink:href="#DejaVuSans-Bold-20" transform="translate(203.056641 0)"/>
     <use xlink:href="#DejaVuSans-Bold-52" transform="translate(237.871094 0)"/>
     <use xlink:href="#DejaVuSans-Bold-61" transform="translate(314.873047 0)"/>
     <use xlink:href="#DejaVuSans-Bold-6e" transform="translate(382.353516 0)"/>
     <use xlink:href="#DejaVuSans-Bold-67" transform="translate(453.544922 0)"/>
     <use xlink:href="#DejaVuSans-Bold-65" transform="translate(525.126953 0)"/>
     <use xlink:href="#DejaVuSans-Bold-20" transform="translate(592.949219 0)"/>
     <use xlink:href="#DejaVuSans-Bold-56" transform="translate(627.763672 0)"/>
     <use xlink:href="#DejaVuSans-Bold-69" transform="translate(703.40625 0)"/>
     <use xlink:href="#DejaVuSans-Bold-65" transform="translate(737.683594 0)"/>
     <use xlink:href="#DejaVuSans-Bold-77" transform="translate(805.505859 0)"/>
    </g>
   </g>
  </g>
  <g id="axes_2">
   <g id="patch_13">
    <path d="M 662.679348 445.68 
L 820.375 445.68 
L 820.375 57.6 
L 662.679348 57.6 
z
" style="fill: #ffffff"/>
   </g>
   <g id="matplotlib.axis_3">
    <g id="xtick_7">
     <g id="line2d_45">
      <g>
       <use xlink:href="#m9de162eb83" x="702.103261" y="445.68" style="stroke: #000000; stroke-width: 0.8"/>
      </g>
     </g>
     <g id="text_18">
      <!-- S4 -->
      <g transform="translate(690.663417 466.357187) scale(0.18 -0.18)">
       <use xlink:href="#DejaVuSans-53"/>
       <use xlink:href="#DejaVuSans-34" transform="translate(63.476562 0)"/>
      </g>
     </g>
    </g>
    <g id="xtick_8">
     <g id="line2d_46">
      <g>
       <use xlink:href="#m9de162eb83" x="780.951087" y="445.68" style="stroke: #000000; stroke-width: 0.8"/>
      </g>
     </g>
     <g id="text_19">
      <!-- S5 -->
      <g transform="translate(769.511243 466.357187) scale(0.18 -0.18)">
       <use xlink:href="#DejaVuSans-53"/>
       <use xlink:href="#DejaVuSans-35" transform="translate(63.476562 0)"/>
      </g>
     </g>
    </g>
    <g id="text_20">
     <!-- Severity Level -->
     <g transform="translate(661.217799 489.2975) scale(0.2 -0.2)">
      <use xlink:href="#DejaVuSans-Bold-53"/>
      <use xlink:href="#DejaVuSans-Bold-65" transform="translate(72.021484 0)"/>
      <use xlink:href="#DejaVuSans-Bold-76" transform="translate(139.84375 0)"/>
      <use xlink:href="#DejaVuSans-Bold-65" transform="translate(205.029297 0)"/>
      <use xlink:href="#DejaVuSans-Bold-72" transform="translate(272.851562 0)"/>
      <use xlink:href="#DejaVuSans-Bold-69" transform="translate(322.167969 0)"/>
      <use xlink:href="#DejaVuSans-Bold-74" transform="translate(356.445312 0)"/>
      <use xlink:href="#DejaVuSans-Bold-79" transform="translate(404.248047 0)"/>
      <use xlink:href="#DejaVuSans-Bold-20" transform="translate(469.433594 0)"/>
      <use xlink:href="#DejaVuSans-Bold-4c" transform="translate(504.248047 0)"/>
      <use xlink:href="#DejaVuSans-Bold-65" transform="translate(567.96875 0)"/>
      <use xlink:href="#DejaVuSans-Bold-76" transform="translate(635.791016 0)"/>
      <use xlink:href="#DejaVuSans-Bold-65" transform="translate(700.976562 0)"/>
      <use xlink:href="#DejaVuSans-Bold-6c" transform="translate(768.798828 0)"/>
     </g>
    </g>
   </g>
   <g id="matplotlib.axis_4">
    <g id="ytick_9">
     <g id="line2d_47">
      <g>
       <use xlink:href="#mc37e622575" x="662.679348" y="428.04" style="stroke: #000000; stroke-width: 0.8"/>
      </g>
     </g>
     <g id="text_21">
      <!-- 0 -->
      <g transform="translate(644.226848 434.878594) scale(0.18 -0.18)">
       <use xlink:href="#DejaVuSans-30"/>
      </g>
     </g>
    </g>
    <g id="ytick_10">
     <g id="line2d_48">
      <g>
       <use xlink:href="#mc37e622575" x="662.679348" y="383.336503" style="stroke: #000000; stroke-width: 0.8"/>
      </g>
     </g>
     <g id="text_22">
      <!-- 250 -->
      <g transform="translate(621.321848 390.175097) scale(0.18 -0.18)">
       <use xlink:href="#DejaVuSans-32"/>
       <use xlink:href="#DejaVuSans-35" transform="translate(63.623047 0)"/>
       <use xlink:href="#DejaVuSans-30" transform="translate(127.246094 0)"/>
      </g>
     </g>
    </g>
    <g id="ytick_11">
     <g id="line2d_49">
      <g>
       <use xlink:href="#mc37e622575" x="662.679348" y="338.633006" style="stroke: #000000; stroke-width: 0.8"/>
      </g>
     </g>
     <g id="text_23">
      <!-- 500 -->
      <g transform="translate(621.321848 345.471599) scale(0.18 -0.18)">
       <use xlink:href="#DejaVuSans-35"/>
       <use xlink:href="#DejaVuSans-30" transform="translate(63.623047 0)"/>
       <use xlink:href="#DejaVuSans-30" transform="translate(127.246094 0)"/>
      </g>
     </g>
    </g>
    <g id="ytick_12">
     <g id="line2d_50">
      <g>
       <use xlink:href="#mc37e622575" x="662.679348" y="293.929508" style="stroke: #000000; stroke-width: 0.8"/>
      </g>
     </g>
     <g id="text_24">
      <!-- 750 -->
      <g transform="translate(621.321848 300.768102) scale(0.18 -0.18)">
       <defs>
        <path id="DejaVuSans-37" d="M 525 4666 
L 3525 4666 
L 3525 4397 
L 1831 0 
L 1172 0 
L 2766 4134 
L 525 4134 
L 525 4666 
z
" transform="scale(0.015625)"/>
       </defs>
       <use xlink:href="#DejaVuSans-37"/>
       <use xlink:href="#DejaVuSans-35" transform="translate(63.623047 0)"/>
       <use xlink:href="#DejaVuSans-30" transform="translate(127.246094 0)"/>
      </g>
     </g>
    </g>
    <g id="ytick_13">
     <g id="line2d_51">
      <g>
       <use xlink:href="#mc37e622575" x="662.679348" y="249.226011" style="stroke: #000000; stroke-width: 0.8"/>
      </g>
     </g>
     <g id="text_25">
      <!-- 1000 -->
      <g transform="translate(609.869348 256.064605) scale(0.18 -0.18)">
       <use xlink:href="#DejaVuSans-31"/>
       <use xlink:href="#DejaVuSans-30" transform="translate(63.623047 0)"/>
       <use xlink:href="#DejaVuSans-30" transform="translate(127.246094 0)"/>
       <use xlink:href="#DejaVuSans-30" transform="translate(190.869141 0)"/>
      </g>
     </g>
    </g>
    <g id="ytick_14">
     <g id="line2d_52">
      <g>
       <use xlink:href="#mc37e622575" x="662.679348" y="204.522514" style="stroke: #000000; stroke-width: 0.8"/>
      </g>
     </g>
     <g id="text_26">
      <!-- 1250 -->
      <g transform="translate(609.869348 211.361108) scale(0.18 -0.18)">
       <use xlink:href="#DejaVuSans-31"/>
       <use xlink:href="#DejaVuSans-32" transform="translate(63.623047 0)"/>
       <use xlink:href="#DejaVuSans-35" transform="translate(127.246094 0)"/>
       <use xlink:href="#DejaVuSans-30" transform="translate(190.869141 0)"/>
      </g>
     </g>
    </g>
    <g id="ytick_15">
     <g id="line2d_53">
      <g>
       <use xlink:href="#mc37e622575" x="662.679348" y="159.819017" style="stroke: #000000; stroke-width: 0.8"/>
      </g>
     </g>
     <g id="text_27">
      <!-- 1500 -->
      <g transform="translate(609.869348 166.65761) scale(0.18 -0.18)">
       <use xlink:href="#DejaVuSans-31"/>
       <use xlink:href="#DejaVuSans-35" transform="translate(63.623047 0)"/>
       <use xlink:href="#DejaVuSans-30" transform="translate(127.246094 0)"/>
       <use xlink:href="#DejaVuSans-30" transform="translate(190.869141 0)"/>
      </g>
     </g>
    </g>
    <g id="ytick_16">
     <g id="line2d_54">
      <g>
       <use xlink:href="#mc37e622575" x="662.679348" y="115.11552" style="stroke: #000000; stroke-width: 0.8"/>
      </g>
     </g>
     <g id="text_28">
      <!-- 1750 -->
      <g transform="translate(609.869348 121.954113) scale(0.18 -0.18)">
       <use xlink:href="#DejaVuSans-31"/>
       <use xlink:href="#DejaVuSans-37" transform="translate(63.623047 0)"/>
       <use xlink:href="#DejaVuSans-35" transform="translate(127.246094 0)"/>
       <use xlink:href="#DejaVuSans-30" transform="translate(190.869141 0)"/>
      </g>
     </g>
    </g>
    <g id="ytick_17">
     <g id="line2d_55">
      <g>
       <use xlink:href="#mc37e622575" x="662.679348" y="70.412022" style="stroke: #000000; stroke-width: 0.8"/>
      </g>
     </g>
     <g id="text_29">
      <!-- 2000 -->
      <g transform="translate(609.869348 77.250616) scale(0.18 -0.18)">
       <use xlink:href="#DejaVuSans-32"/>
       <use xlink:href="#DejaVuSans-30" transform="translate(63.623047 0)"/>
       <use xlink:href="#DejaVuSans-30" transform="translate(127.246094 0)"/>
       <use xlink:href="#DejaVuSans-30" transform="translate(190.869141 0)"/>
      </g>
     </g>
    </g>
   </g>
   <g id="patch_14">
    <path d="M 678.448913 353.295753 
L 725.757609 353.295753 
L 725.757609 241.894638 
L 678.448913 241.894638 
L 678.448913 353.295753 
z
" clip-path="url(#p33ba6bfec4)" style="fill: #ffa07a; opacity: 0.7; stroke: #000000; stroke-linejoin: miter"/>
   </g>
   <g id="line2d_56">
    <path d="M 702.103261 353.295753 
L 702.103261 428.04 
" clip-path="url(#p33ba6bfec4)" style="fill: none; stroke: #000000; stroke-linecap: square"/>
   </g>
   <g id="line2d_57">
    <path d="M 702.103261 241.894638 
L 702.103261 75.24 
" clip-path="url(#p33ba6bfec4)" style="fill: none; stroke: #000000; stroke-linecap: square"/>
   </g>
   <g id="line2d_58">
    <path d="M 690.276087 428.04 
L 713.930435 428.04 
" clip-path="url(#p33ba6bfec4)" style="fill: none; stroke: #000000; stroke-linecap: square"/>
   </g>
   <g id="line2d_59">
    <path d="M 690.276087 75.24 
L 713.930435 75.24 
" clip-path="url(#p33ba6bfec4)" style="fill: none; stroke: #000000; stroke-linecap: square"/>
   </g>
   <g id="patch_15">
    <path d="M 757.296739 415.344207 
L 804.605435 415.344207 
L 804.605435 371.892408 
L 757.296739 371.892408 
L 757.296739 415.344207 
z
" clip-path="url(#p33ba6bfec4)" style="fill: #ffa07a; opacity: 0.7; stroke: #000000; stroke-linejoin: miter"/>
   </g>
   <g id="line2d_60">
    <path d="M 780.951087 415.344207 
L 780.951087 428.04 
" clip-path="url(#p33ba6bfec4)" style="fill: none; stroke: #000000; stroke-linecap: square"/>
   </g>
   <g id="line2d_61">
    <path d="M 780.951087 371.892408 
L 780.951087 306.98293 
" clip-path="url(#p33ba6bfec4)" style="fill: none; stroke: #000000; stroke-linecap: square"/>
   </g>
   <g id="line2d_62">
    <path d="M 769.123913 428.04 
L 792.778261 428.04 
" clip-path="url(#p33ba6bfec4)" style="fill: none; stroke: #000000; stroke-linecap: square"/>
   </g>
   <g id="line2d_63">
    <path d="M 769.123913 306.98293 
L 792.778261 306.98293 
" clip-path="url(#p33ba6bfec4)" style="fill: none; stroke: #000000; stroke-linecap: square"/>
   </g>
   <g id="line2d_64">
    <path d="M 678.448913 304.568941 
L 725.757609 304.568941 
" clip-path="url(#p33ba6bfec4)" style="fill: none; stroke: #ff7f0e"/>
   </g>
   <g id="line2d_65">
    <path d="M 757.296739 398.178064 
L 804.605435 398.178064 
" clip-path="url(#p33ba6bfec4)" style="fill: none; stroke: #ff7f0e"/>
   </g>
   <g id="patch_16">
    <path d="M 662.679348 445.68 
L 662.679348 57.6 
" style="fill: none; stroke: #000000; stroke-width: 0.8; stroke-linejoin: miter; stroke-linecap: square"/>
   </g>
   <g id="patch_17">
    <path d="M 820.375 445.68 
L 820.375 57.6 
" style="fill: none; stroke: #000000; stroke-width: 0.8; stroke-linejoin: miter; stroke-linecap: square"/>
   </g>
   <g id="patch_18">
    <path d="M 662.679348 445.68 
L 820.375 445.68 
" style="fill: none; stroke: #000000; stroke-width: 0.8; stroke-linejoin: miter; stroke-linecap: square"/>
   </g>
   <g id="patch_19">
    <path d="M 662.679348 57.6 
L 820.375 57.6 
" style="fill: none; stroke: #000000; stroke-width: 0.8; stroke-linejoin: miter; stroke-linecap: square"/>
   </g>
   <g id="text_30">
    <!-- Zoomed View -->
    <g transform="translate(665.678736 51.6) scale(0.2 -0.2)">
     <defs>
      <path id="DejaVuSans-Bold-5a" d="M 359 4666 
L 4281 4666 
L 4281 3938 
L 1778 909 
L 4353 909 
L 4353 0 
L 288 0 
L 288 728 
L 2791 3756 
L 359 3756 
L 359 4666 
z
" transform="scale(0.015625)"/>
      <path id="DejaVuSans-Bold-64" d="M 2919 2988 
L 2919 4863 
L 4044 4863 
L 4044 0 
L 2919 0 
L 2919 506 
Q 2688 197 2409 53 
Q 2131 -91 1766 -91 
Q 1119 -91 703 423 
Q 288 938 288 1747 
Q 288 2556 703 3070 
Q 1119 3584 1766 3584 
Q 2128 3584 2408 3439 
Q 2688 3294 2919 2988 
z
M 2181 722 
Q 2541 722 2730 984 
Q 2919 1247 2919 1747 
Q 2919 2247 2730 2509 
Q 2541 2772 2181 2772 
Q 1825 2772 1636 2509 
Q 1447 2247 1447 1747 
Q 1447 1247 1636 984 
Q 1825 722 2181 722 
z
" transform="scale(0.015625)"/>
     </defs>
     <use xlink:href="#DejaVuSans-Bold-5a"/>
     <use xlink:href="#DejaVuSans-Bold-6f" transform="translate(72.509766 0)"/>
     <use xlink:href="#DejaVuSans-Bold-6f" transform="translate(141.210938 0)"/>
     <use xlink:href="#DejaVuSans-Bold-6d" transform="translate(209.912109 0)"/>
     <use xlink:href="#DejaVuSans-Bold-65" transform="translate(314.111328 0)"/>
     <use xlink:href="#DejaVuSans-Bold-64" transform="translate(381.933594 0)"/>
     <use xlink:href="#DejaVuSans-Bold-20" transform="translate(453.515625 0)"/>
     <use xlink:href="#DejaVuSans-Bold-56" transform="translate(488.330078 0)"/>
     <use xlink:href="#DejaVuSans-Bold-69" transform="translate(563.972656 0)"/>
     <use xlink:href="#DejaVuSans-Bold-65" transform="translate(598.25 0)"/>
     <use xlink:href="#DejaVuSans-Bold-77" transform="translate(666.072266 0)"/>
    </g>
   </g>
  </g>
  <g id="text_31">
   <!-- RBSL: Bitstream Length vs. Severity Level -->
   <g transform="translate(160.170625 25.43625) scale(0.24 -0.24)">
    <defs>
     <path id="DejaVuSans-Bold-3a" d="M 716 3500 
L 1844 3500 
L 1844 2291 
L 716 2291 
L 716 3500 
z
M 716 1209 
L 1844 1209 
L 1844 0 
L 716 0 
L 716 1209 
z
" transform="scale(0.015625)"/>
     <path id="DejaVuSans-Bold-2e" d="M 653 1209 
L 1778 1209 
L 1778 0 
L 653 0 
L 653 1209 
z
" transform="scale(0.015625)"/>
    </defs>
    <use xlink:href="#DejaVuSans-Bold-52"/>
    <use xlink:href="#DejaVuSans-Bold-42" transform="translate(77.001953 0)"/>
    <use xlink:href="#DejaVuSans-Bold-53" transform="translate(153.222656 0)"/>
    <use xlink:href="#DejaVuSans-Bold-4c" transform="translate(225.244141 0)"/>
    <use xlink:href="#DejaVuSans-Bold-3a" transform="translate(288.964844 0)"/>
    <use xlink:href="#DejaVuSans-Bold-20" transform="translate(328.955078 0)"/>
    <use xlink:href="#DejaVuSans-Bold-42" transform="translate(363.769531 0)"/>
    <use xlink:href="#DejaVuSans-Bold-69" transform="translate(439.990234 0)"/>
    <use xlink:href="#DejaVuSans-Bold-74" transform="translate(474.267578 0)"/>
    <use xlink:href="#DejaVuSans-Bold-73" transform="translate(522.070312 0)"/>
    <use xlink:href="#DejaVuSans-Bold-74" transform="translate(581.591797 0)"/>
    <use xlink:href="#DejaVuSans-Bold-72" transform="translate(629.394531 0)"/>
    <use xlink:href="#DejaVuSans-Bold-65" transform="translate(678.710938 0)"/>
    <use xlink:href="#DejaVuSans-Bold-61" transform="translate(746.533203 0)"/>
    <use xlink:href="#DejaVuSans-Bold-6d" transform="translate(814.013672 0)"/>
    <use xlink:href="#DejaVuSans-Bold-20" transform="translate(918.212891 0)"/>
    <use xlink:href="#DejaVuSans-Bold-4c" transform="translate(953.027344 0)"/>
    <use xlink:href="#DejaVuSans-Bold-65" transform="translate(1016.748047 0)"/>
    <use xlink:href="#DejaVuSans-Bold-6e" transform="translate(1084.570312 0)"/>
    <use xlink:href="#DejaVuSans-Bold-67" transform="translate(1155.761719 0)"/>
    <use xlink:href="#DejaVuSans-Bold-74" transform="translate(1227.34375 0)"/>
    <use xlink:href="#DejaVuSans-Bold-68" transform="translate(1275.146484 0)"/>
    <use xlink:href="#DejaVuSans-Bold-20" transform="translate(1346.337891 0)"/>
    <use xlink:href="#DejaVuSans-Bold-76" transform="translate(1381.152344 0)"/>
    <use xlink:href="#DejaVuSans-Bold-73" transform="translate(1446.337891 0)"/>
    <use xlink:href="#DejaVuSans-Bold-2e" transform="translate(1505.859375 0)"/>
    <use xlink:href="#DejaVuSans-Bold-20" transform="translate(1543.847656 0)"/>
    <use xlink:href="#DejaVuSans-Bold-53" transform="translate(1578.662109 0)"/>
    <use xlink:href="#DejaVuSans-Bold-65" transform="translate(1650.683594 0)"/>
    <use xlink:href="#DejaVuSans-Bold-76" transform="translate(1718.505859 0)"/>
    <use xlink:href="#DejaVuSans-Bold-65" transform="translate(1783.691406 0)"/>
    <use xlink:href="#DejaVuSans-Bold-72" transform="translate(1851.513672 0)"/>
    <use xlink:href="#DejaVuSans-Bold-69" transform="translate(1900.830078 0)"/>
    <use xlink:href="#DejaVuSans-Bold-74" transform="translate(1935.107422 0)"/>
    <use xlink:href="#DejaVuSans-Bold-79" transform="translate(1982.910156 0)"/>
    <use xlink:href="#DejaVuSans-Bold-20" transform="translate(2048.095703 0)"/>
    <use xlink:href="#DejaVuSans-Bold-4c" transform="translate(2082.910156 0)"/>
    <use xlink:href="#DejaVuSans-Bold-65" transform="translate(2146.630859 0)"/>
    <use xlink:href="#DejaVuSans-Bold-76" transform="translate(2214.453125 0)"/>
    <use xlink:href="#DejaVuSans-Bold-65" transform="translate(2279.638672 0)"/>
    <use xlink:href="#DejaVuSans-Bold-6c" transform="translate(2347.460938 0)"/>
   </g>
  </g>
 </g>
 <defs>
  <clipPath id="p69bc54e8d7">
   <rect x="94.975" y="57.6" width="473.086957" height="388.08"/>
  </clipPath>
  <clipPath id="p33ba6bfec4">
   <rect x="662.679348" y="57.6" width="157.695652" height="388.08"/>
  </clipPath>
 </defs>
</svg>
