<?xml version="1.0" encoding="utf-8" standalone="no"?>
<!DOCTYPE svg PUBLIC "-//W3C//DTD SVG 1.1//EN"
  "http://www.w3.org/Graphics/SVG/1.1/DTD/svg11.dtd">
<svg xmlns:xlink="http://www.w3.org/1999/xlink" width="784.519062pt" height="497.006562pt" viewBox="0 0 784.519062 497.006562" xmlns="http://www.w3.org/2000/svg" version="1.1">
 <metadata>
  <rdf:RDF xmlns:dc="http://purl.org/dc/elements/1.1/" xmlns:cc="http://creativecommons.org/ns#" xmlns:rdf="http://www.w3.org/1999/02/22-rdf-syntax-ns#">
   <cc:Work>
    <dc:type rdf:resource="http://purl.org/dc/dcmitype/StillImage"/>
    <dc:date>2026-01-17T16:10:31.899668</dc:date>
    <dc:format>image/svg+xml</dc:format>
    <dc:creator>
     <cc:Agent>
      <dc:title>Matplotlib v3.10.5, https://matplotlib.org/</dc:title>
     </cc:Agent>
    </dc:creator>
   </cc:Work>
  </rdf:RDF>
 </metadata>
 <defs>
  <style type="text/css">*{stroke-linejoin: round; stroke-linecap: butt}</style>
 </defs>
 <g id="figure_1">
  <g id="patch_1">
   <path d="M -0 497.006562 
L 784.519062 497.006562 
L 784.519062 0 
L -0 0 
z
" style="fill: #ffffff"/>
  </g>
  <g id="axes_1">
   <g id="patch_2">
    <path d="M 49.869063 455.4775 
L 777.319062 455.4775 
L 777.319062 39.3575 
L 49.869063 39.3575 
z
" style="fill: #fafafa"/>
   </g>
   <g id="matplotlib.axis_1">
    <g id="xtick_1">
     <g id="line2d_1">
      <path d="M 133.805601 455.4775 
L 133.805601 39.3575 
" clip-path="url(#pe00c4d79db)" style="fill: none; stroke-dasharray: 0.8,1.32; stroke-dashoffset: 0; stroke: #808080; stroke-opacity: 0.25; stroke-width: 0.8"/>
     </g>
     <g id="line2d_2">
      <defs>
       <path id="m9e7516d99e" d="M 0 0 
L 0 3.5 
" style="stroke: #000000; stroke-width: 0.8"/>
      </defs>
      <g>
       <use xlink:href="#m9e7516d99e" x="133.805601" y="455.4775" style="stroke: #000000; stroke-width: 0.8"/>
      </g>
     </g>
     <g id="text_1">
      <!-- S5 -->
      <g transform="translate(126.814585 470.835781) scale(0.11 -0.11)">
       <defs>
        <path id="DejaVuSans-53" d="M 3425 4513 
L 3425 3897 
Q 3066 4069 2747 4153 
Q 2428 4238 2131 4238 
Q 1616 4238 1336 4038 
Q 1056 3838 1056 3469 
Q 1056 3159 1242 3001 
Q 1428 2844 1947 2747 
L 2328 2669 
Q 3034 2534 3370 2195 
Q 3706 1856 3706 1288 
Q 3706 609 3251 259 
Q 2797 -91 1919 -91 
Q 1588 -91 1214 -16 
Q 841 59 441 206 
L 441 856 
Q 825 641 1194 531 
Q 1563 422 1919 422 
Q 2459 422 2753 634 
Q 3047 847 3047 1241 
Q 3047 1584 2836 1778 
Q 2625 1972 2144 2069 
L 1759 2144 
Q 1053 2284 737 2584 
Q 422 2884 422 3419 
Q 422 4038 858 4394 
Q 1294 4750 2059 4750 
Q 2388 4750 2728 4690 
Q 3069 4631 3425 4513 
z
" transform="scale(0.015625)"/>
        <path id="DejaVuSans-35" d="M 691 4666 
L 3169 4666 
L 3169 4134 
L 1269 4134 
L 1269 2991 
Q 1406 3038 1543 3061 
Q 1681 3084 1819 3084 
Q 2600 3084 3056 2656 
Q 3513 2228 3513 1497 
Q 3513 744 3044 326 
Q 2575 -91 1722 -91 
Q 1428 -91 1123 -41 
Q 819 9 494 109 
L 494 744 
Q 775 591 1075 516 
Q 1375 441 1709 441 
Q 2250 441 2565 725 
Q 2881 1009 2881 1497 
Q 2881 1984 2565 2268 
Q 2250 2553 1709 2553 
Q 1456 2553 1204 2497 
Q 953 2441 691 2322 
L 691 4666 
z
" transform="scale(0.015625)"/>
       </defs>
       <use xlink:href="#DejaVuSans-53"/>
       <use xlink:href="#DejaVuSans-35" transform="translate(63.476562 0)"/>
      </g>
     </g>
    </g>
    <g id="xtick_2">
     <g id="line2d_3">
      <path d="M 189.763293 455.4775 
L 189.763293 39.3575 
" clip-path="url(#pe00c4d79db)" style="fill: none; stroke-dasharray: 0.8,1.32; stroke-dashoffset: 0; stroke: #808080; stroke-opacity: 0.25; stroke-width: 0.8"/>
     </g>
     <g id="line2d_4">
      <g>
       <use xlink:href="#m9e7516d99e" x="189.763293" y="455.4775" style="stroke: #000000; stroke-width: 0.8"/>
      </g>
     </g>
     <g id="text_2">
      <!-- S4 -->
      <g transform="translate(182.772278 470.835781) scale(0.11 -0.11)">
       <defs>
        <path id="DejaVuSans-34" d="M 2419 4116 
L 825 1625 
L 2419 1625 
L 2419 4116 
z
M 2253 4666 
L 3047 4666 
L 3047 1625 
L 3713 1625 
L 3713 1100 
L 3047 1100 
L 3047 0 
L 2419 0 
L 2419 1100 
L 313 1100 
L 313 1709 
L 2253 4666 
z
" transform="scale(0.015625)"/>
       </defs>
       <use xlink:href="#DejaVuSans-53"/>
       <use xlink:href="#DejaVuSans-34" transform="translate(63.476562 0)"/>
      </g>
     </g>
    </g>
    <g id="xtick_3">
     <g id="line2d_5">
      <path d="M 245.720986 455.4775 
L 245.720986 39.3575 
" clip-path="url(#pe00c4d79db)" style="fill: none; stroke-dasharray: 0.8,1.32; stroke-dashoffset: 0; stroke: #808080; stroke-opacity: 0.25; stroke-width: 0.8"/>
     </g>
     <g id="line2d_6">
      <g>
       <use xlink:href="#m9e7516d99e" x="245.720986" y="455.4775" style="stroke: #000000; stroke-width: 0.8"/>
      </g>
     </g>
     <g id="text_3">
      <!-- S3 -->
      <g transform="translate(238.72997 470.835781) scale(0.11 -0.11)">
       <defs>
        <path id="DejaVuSans-33" d="M 2597 2516 
Q 3050 2419 3304 2112 
Q 3559 1806 3559 1356 
Q 3559 666 3084 287 
Q 2609 -91 1734 -91 
Q 1441 -91 1130 -33 
Q 819 25 488 141 
L 488 750 
Q 750 597 1062 519 
Q 1375 441 1716 441 
Q 2309 441 2620 675 
Q 2931 909 2931 1356 
Q 2931 1769 2642 2001 
Q 2353 2234 1838 2234 
L 1294 2234 
L 1294 2753 
L 1863 2753 
Q 2328 2753 2575 2939 
Q 2822 3125 2822 3475 
Q 2822 3834 2567 4026 
Q 2313 4219 1838 4219 
Q 1578 4219 1281 4162 
Q 984 4106 628 3988 
L 628 4550 
Q 988 4650 1302 4700 
Q 1616 4750 1894 4750 
Q 2613 4750 3031 4423 
Q 3450 4097 3450 3541 
Q 3450 3153 3228 2886 
Q 3006 2619 2597 2516 
z
" transform="scale(0.015625)"/>
       </defs>
       <use xlink:href="#DejaVuSans-53"/>
       <use xlink:href="#DejaVuSans-33" transform="translate(63.476562 0)"/>
      </g>
     </g>
    </g>
    <g id="xtick_4">
     <g id="line2d_7">
      <path d="M 301.678678 455.4775 
L 301.678678 39.3575 
" clip-path="url(#pe00c4d79db)" style="fill: none; stroke-dasharray: 0.8,1.32; stroke-dashoffset: 0; stroke: #808080; stroke-opacity: 0.25; stroke-width: 0.8"/>
     </g>
     <g id="line2d_8">
      <g>
       <use xlink:href="#m9e7516d99e" x="301.678678" y="455.4775" style="stroke: #000000; stroke-width: 0.8"/>
      </g>
     </g>
     <g id="text_4">
      <!-- S2 -->
      <g transform="translate(294.687662 470.835781) scale(0.11 -0.11)">
       <defs>
        <path id="DejaVuSans-32" d="M 1228 531 
L 3431 531 
L 3431 0 
L 469 0 
L 469 531 
Q 828 903 1448 1529 
Q 2069 2156 2228 2338 
Q 2531 2678 2651 2914 
Q 2772 3150 2772 3378 
Q 2772 3750 2511 3984 
Q 2250 4219 1831 4219 
Q 1534 4219 1204 4116 
Q 875 4013 500 3803 
L 500 4441 
Q 881 4594 1212 4672 
Q 1544 4750 1819 4750 
Q 2544 4750 2975 4387 
Q 3406 4025 3406 3419 
Q 3406 3131 3298 2873 
Q 3191 2616 2906 2266 
Q 2828 2175 2409 1742 
Q 1991 1309 1228 531 
z
" transform="scale(0.015625)"/>
       </defs>
       <use xlink:href="#DejaVuSans-53"/>
       <use xlink:href="#DejaVuSans-32" transform="translate(63.476562 0)"/>
      </g>
     </g>
    </g>
    <g id="xtick_5">
     <g id="line2d_9">
      <path d="M 357.63637 455.4775 
L 357.63637 39.3575 
" clip-path="url(#pe00c4d79db)" style="fill: none; stroke-dasharray: 0.8,1.32; stroke-dashoffset: 0; stroke: #808080; stroke-opacity: 0.25; stroke-width: 0.8"/>
     </g>
     <g id="line2d_10">
      <g>
       <use xlink:href="#m9e7516d99e" x="357.63637" y="455.4775" style="stroke: #000000; stroke-width: 0.8"/>
      </g>
     </g>
     <g id="text_5">
      <!-- S1 -->
      <g transform="translate(350.645355 470.835781) scale(0.11 -0.11)">
       <defs>
        <path id="DejaVuSans-31" d="M 794 531 
L 1825 531 
L 1825 4091 
L 703 3866 
L 703 4441 
L 1819 4666 
L 2450 4666 
L 2450 531 
L 3481 531 
L 3481 0 
L 794 0 
L 794 531 
z
" transform="scale(0.015625)"/>
       </defs>
       <use xlink:href="#DejaVuSans-53"/>
       <use xlink:href="#DejaVuSans-31" transform="translate(63.476562 0)"/>
      </g>
     </g>
    </g>
    <g id="xtick_6">
     <g id="line2d_11">
      <path d="M 413.594062 455.4775 
L 413.594062 39.3575 
" clip-path="url(#pe00c4d79db)" style="fill: none; stroke-dasharray: 0.8,1.32; stroke-dashoffset: 0; stroke: #808080; stroke-opacity: 0.25; stroke-width: 0.8"/>
     </g>
     <g id="line2d_12">
      <g>
       <use xlink:href="#m9e7516d99e" x="413.594062" y="455.4775" style="stroke: #000000; stroke-width: 0.8"/>
      </g>
     </g>
     <g id="text_6">
      <!-- S0 -->
      <g transform="translate(406.603047 470.835781) scale(0.11 -0.11)">
       <defs>
        <path id="DejaVuSans-30" d="M 2034 4250 
Q 1547 4250 1301 3770 
Q 1056 3291 1056 2328 
Q 1056 1369 1301 889 
Q 1547 409 2034 409 
Q 2525 409 2770 889 
Q 3016 1369 3016 2328 
Q 3016 3291 2770 3770 
Q 2525 4250 2034 4250 
z
M 2034 4750 
Q 2819 4750 3233 4129 
Q 3647 3509 3647 2328 
Q 3647 1150 3233 529 
Q 2819 -91 2034 -91 
Q 1250 -91 836 529 
Q 422 1150 422 2328 
Q 422 3509 836 4129 
Q 1250 4750 2034 4750 
z
" transform="scale(0.015625)"/>
       </defs>
       <use xlink:href="#DejaVuSans-53"/>
       <use xlink:href="#DejaVuSans-30" transform="translate(63.476562 0)"/>
      </g>
     </g>
    </g>
    <g id="xtick_7">
     <g id="line2d_13">
      <path d="M 469.551755 455.4775 
L 469.551755 39.3575 
" clip-path="url(#pe00c4d79db)" style="fill: none; stroke-dasharray: 0.8,1.32; stroke-dashoffset: 0; stroke: #808080; stroke-opacity: 0.25; stroke-width: 0.8"/>
     </g>
     <g id="line2d_14">
      <g>
       <use xlink:href="#m9e7516d99e" x="469.551755" y="455.4775" style="stroke: #000000; stroke-width: 0.8"/>
      </g>
     </g>
     <g id="text_7">
      <!-- S1 -->
      <g transform="translate(462.560739 470.835781) scale(0.11 -0.11)">
       <use xlink:href="#DejaVuSans-53"/>
       <use xlink:href="#DejaVuSans-31" transform="translate(63.476562 0)"/>
      </g>
     </g>
    </g>
    <g id="xtick_8">
     <g id="line2d_15">
      <path d="M 525.509447 455.4775 
L 525.509447 39.3575 
" clip-path="url(#pe00c4d79db)" style="fill: none; stroke-dasharray: 0.8,1.32; stroke-dashoffset: 0; stroke: #808080; stroke-opacity: 0.25; stroke-width: 0.8"/>
     </g>
     <g id="line2d_16">
      <g>
       <use xlink:href="#m9e7516d99e" x="525.509447" y="455.4775" style="stroke: #000000; stroke-width: 0.8"/>
      </g>
     </g>
     <g id="text_8">
      <!-- S2 -->
      <g transform="translate(518.518431 470.835781) scale(0.11 -0.11)">
       <use xlink:href="#DejaVuSans-53"/>
       <use xlink:href="#DejaVuSans-32" transform="translate(63.476562 0)"/>
      </g>
     </g>
    </g>
    <g id="xtick_9">
     <g id="line2d_17">
      <path d="M 581.467139 455.4775 
L 581.467139 39.3575 
" clip-path="url(#pe00c4d79db)" style="fill: none; stroke-dasharray: 0.8,1.32; stroke-dashoffset: 0; stroke: #808080; stroke-opacity: 0.25; stroke-width: 0.8"/>
     </g>
     <g id="line2d_18">
      <g>
       <use xlink:href="#m9e7516d99e" x="581.467139" y="455.4775" style="stroke: #000000; stroke-width: 0.8"/>
      </g>
     </g>
     <g id="text_9">
      <!-- S3 -->
      <g transform="translate(574.476124 470.835781) scale(0.11 -0.11)">
       <use xlink:href="#DejaVuSans-53"/>
       <use xlink:href="#DejaVuSans-33" transform="translate(63.476562 0)"/>
      </g>
     </g>
    </g>
    <g id="xtick_10">
     <g id="line2d_19">
      <path d="M 637.424832 455.4775 
L 637.424832 39.3575 
" clip-path="url(#pe00c4d79db)" style="fill: none; stroke-dasharray: 0.8,1.32; stroke-dashoffset: 0; stroke: #808080; stroke-opacity: 0.25; stroke-width: 0.8"/>
     </g>
     <g id="line2d_20">
      <g>
       <use xlink:href="#m9e7516d99e" x="637.424832" y="455.4775" style="stroke: #000000; stroke-width: 0.8"/>
      </g>
     </g>
     <g id="text_10">
      <!-- S4 -->
      <g transform="translate(630.433816 470.835781) scale(0.11 -0.11)">
       <use xlink:href="#DejaVuSans-53"/>
       <use xlink:href="#DejaVuSans-34" transform="translate(63.476562 0)"/>
      </g>
     </g>
    </g>
    <g id="xtick_11">
     <g id="line2d_21">
      <path d="M 693.382524 455.4775 
L 693.382524 39.3575 
" clip-path="url(#pe00c4d79db)" style="fill: none; stroke-dasharray: 0.8,1.32; stroke-dashoffset: 0; stroke: #808080; stroke-opacity: 0.25; stroke-width: 0.8"/>
     </g>
     <g id="line2d_22">
      <g>
       <use xlink:href="#m9e7516d99e" x="693.382524" y="455.4775" style="stroke: #000000; stroke-width: 0.8"/>
      </g>
     </g>
     <g id="text_11">
      <!-- S5 -->
      <g transform="translate(686.391508 470.835781) scale(0.11 -0.11)">
       <use xlink:href="#DejaVuSans-53"/>
       <use xlink:href="#DejaVuSans-35" transform="translate(63.476562 0)"/>
      </g>
     </g>
    </g>
    <g id="text_12">
     <!-- Corruption Severity -->
     <g transform="translate(341.463359 487.001406) scale(0.13 -0.13)">
      <defs>
       <path id="DejaVuSans-Bold-43" d="M 4288 256 
Q 3956 84 3597 -3 
Q 3238 -91 2847 -91 
Q 1681 -91 1000 561 
Q 319 1213 319 2328 
Q 319 3447 1000 4098 
Q 1681 4750 2847 4750 
Q 3238 4750 3597 4662 
Q 3956 4575 4288 4403 
L 4288 3438 
Q 3953 3666 3628 3772 
Q 3303 3878 2944 3878 
Q 2300 3878 1931 3465 
Q 1563 3053 1563 2328 
Q 1563 1606 1931 1193 
Q 2300 781 2944 781 
Q 3303 781 3628 887 
Q 3953 994 4288 1222 
L 4288 256 
z
" transform="scale(0.015625)"/>
       <path id="DejaVuSans-Bold-6f" d="M 2203 2784 
Q 1831 2784 1636 2517 
Q 1441 2250 1441 1747 
Q 1441 1244 1636 976 
Q 1831 709 2203 709 
Q 2569 709 2762 976 
Q 2956 1244 2956 1747 
Q 2956 2250 2762 2517 
Q 2569 2784 2203 2784 
z
M 2203 3584 
Q 3106 3584 3614 3096 
Q 4122 2609 4122 1747 
Q 4122 884 3614 396 
Q 3106 -91 2203 -91 
Q 1297 -91 786 396 
Q 275 884 275 1747 
Q 275 2609 786 3096 
Q 1297 3584 2203 3584 
z
" transform="scale(0.015625)"/>
       <path id="DejaVuSans-Bold-72" d="M 3138 2547 
Q 2991 2616 2845 2648 
Q 2700 2681 2553 2681 
Q 2122 2681 1889 2404 
Q 1656 2128 1656 1613 
L 1656 0 
L 538 0 
L 538 3500 
L 1656 3500 
L 1656 2925 
Q 1872 3269 2151 3426 
Q 2431 3584 2822 3584 
Q 2878 3584 2943 3579 
Q 3009 3575 3134 3559 
L 3138 2547 
z
" transform="scale(0.015625)"/>
       <path id="DejaVuSans-Bold-75" d="M 500 1363 
L 500 3500 
L 1625 3500 
L 1625 3150 
Q 1625 2866 1622 2436 
Q 1619 2006 1619 1863 
Q 1619 1441 1641 1255 
Q 1663 1069 1716 984 
Q 1784 875 1895 815 
Q 2006 756 2150 756 
Q 2500 756 2700 1025 
Q 2900 1294 2900 1772 
L 2900 3500 
L 4019 3500 
L 4019 0 
L 2900 0 
L 2900 506 
Q 2647 200 2364 54 
Q 2081 -91 1741 -91 
Q 1134 -91 817 281 
Q 500 653 500 1363 
z
" transform="scale(0.015625)"/>
       <path id="DejaVuSans-Bold-70" d="M 1656 506 
L 1656 -1331 
L 538 -1331 
L 538 3500 
L 1656 3500 
L 1656 2988 
Q 1888 3294 2169 3439 
Q 2450 3584 2816 3584 
Q 3463 3584 3878 3070 
Q 4294 2556 4294 1747 
Q 4294 938 3878 423 
Q 3463 -91 2816 -91 
Q 2450 -91 2169 54 
Q 1888 200 1656 506 
z
M 2400 2772 
Q 2041 2772 1848 2508 
Q 1656 2244 1656 1747 
Q 1656 1250 1848 986 
Q 2041 722 2400 722 
Q 2759 722 2948 984 
Q 3138 1247 3138 1747 
Q 3138 2247 2948 2509 
Q 2759 2772 2400 2772 
z
" transform="scale(0.015625)"/>
       <path id="DejaVuSans-Bold-74" d="M 1759 4494 
L 1759 3500 
L 2913 3500 
L 2913 2700 
L 1759 2700 
L 1759 1216 
Q 1759 972 1856 886 
Q 1953 800 2241 800 
L 2816 800 
L 2816 0 
L 1856 0 
Q 1194 0 917 276 
Q 641 553 641 1216 
L 641 2700 
L 84 2700 
L 84 3500 
L 641 3500 
L 641 4494 
L 1759 4494 
z
" transform="scale(0.015625)"/>
       <path id="DejaVuSans-Bold-69" d="M 538 3500 
L 1656 3500 
L 1656 0 
L 538 0 
L 538 3500 
z
M 538 4863 
L 1656 4863 
L 1656 3950 
L 538 3950 
L 538 4863 
z
" transform="scale(0.015625)"/>
       <path id="DejaVuSans-Bold-6e" d="M 4056 2131 
L 4056 0 
L 2931 0 
L 2931 347 
L 2931 1631 
Q 2931 2084 2911 2256 
Q 2891 2428 2841 2509 
Q 2775 2619 2662 2680 
Q 2550 2741 2406 2741 
Q 2056 2741 1856 2470 
Q 1656 2200 1656 1722 
L 1656 0 
L 538 0 
L 538 3500 
L 1656 3500 
L 1656 2988 
Q 1909 3294 2193 3439 
Q 2478 3584 2822 3584 
Q 3428 3584 3742 3212 
Q 4056 2841 4056 2131 
z
" transform="scale(0.015625)"/>
       <path id="DejaVuSans-Bold-20" transform="scale(0.015625)"/>
       <path id="DejaVuSans-Bold-53" d="M 3834 4519 
L 3834 3531 
Q 3450 3703 3084 3790 
Q 2719 3878 2394 3878 
Q 1963 3878 1756 3759 
Q 1550 3641 1550 3391 
Q 1550 3203 1689 3098 
Q 1828 2994 2194 2919 
L 2706 2816 
Q 3484 2659 3812 2340 
Q 4141 2022 4141 1434 
Q 4141 663 3683 286 
Q 3225 -91 2284 -91 
Q 1841 -91 1394 -6 
Q 947 78 500 244 
L 500 1259 
Q 947 1022 1364 901 
Q 1781 781 2169 781 
Q 2563 781 2772 912 
Q 2981 1044 2981 1288 
Q 2981 1506 2839 1625 
Q 2697 1744 2272 1838 
L 1806 1941 
Q 1106 2091 782 2419 
Q 459 2747 459 3303 
Q 459 4000 909 4375 
Q 1359 4750 2203 4750 
Q 2588 4750 2994 4692 
Q 3400 4634 3834 4519 
z
" transform="scale(0.015625)"/>
       <path id="DejaVuSans-Bold-65" d="M 4031 1759 
L 4031 1441 
L 1416 1441 
Q 1456 1047 1700 850 
Q 1944 653 2381 653 
Q 2734 653 3104 758 
Q 3475 863 3866 1075 
L 3866 213 
Q 3469 63 3072 -14 
Q 2675 -91 2278 -91 
Q 1328 -91 801 392 
Q 275 875 275 1747 
Q 275 2603 792 3093 
Q 1309 3584 2216 3584 
Q 3041 3584 3536 3087 
Q 4031 2591 4031 1759 
z
M 2881 2131 
Q 2881 2450 2695 2645 
Q 2509 2841 2209 2841 
Q 1884 2841 1681 2658 
Q 1478 2475 1428 2131 
L 2881 2131 
z
" transform="scale(0.015625)"/>
       <path id="DejaVuSans-Bold-76" d="M 97 3500 
L 1216 3500 
L 2088 1081 
L 2956 3500 
L 4078 3500 
L 2700 0 
L 1472 0 
L 97 3500 
z
" transform="scale(0.015625)"/>
       <path id="DejaVuSans-Bold-79" d="M 78 3500 
L 1197 3500 
L 2138 1125 
L 2938 3500 
L 4056 3500 
L 2584 -331 
Q 2363 -916 2067 -1148 
Q 1772 -1381 1288 -1381 
L 641 -1381 
L 641 -647 
L 991 -647 
Q 1275 -647 1404 -556 
Q 1534 -466 1606 -231 
L 1638 -134 
L 78 3500 
z
" transform="scale(0.015625)"/>
      </defs>
      <use xlink:href="#DejaVuSans-Bold-43"/>
      <use xlink:href="#DejaVuSans-Bold-6f" transform="translate(73.388672 0)"/>
      <use xlink:href="#DejaVuSans-Bold-72" transform="translate(142.089844 0)"/>
      <use xlink:href="#DejaVuSans-Bold-72" transform="translate(191.40625 0)"/>
      <use xlink:href="#DejaVuSans-Bold-75" transform="translate(240.722656 0)"/>
      <use xlink:href="#DejaVuSans-Bold-70" transform="translate(311.914062 0)"/>
      <use xlink:href="#DejaVuSans-Bold-74" transform="translate(383.496094 0)"/>
      <use xlink:href="#DejaVuSans-Bold-69" transform="translate(431.298828 0)"/>
      <use xlink:href="#DejaVuSans-Bold-6f" transform="translate(465.576172 0)"/>
      <use xlink:href="#DejaVuSans-Bold-6e" transform="translate(534.277344 0)"/>
      <use xlink:href="#DejaVuSans-Bold-20" transform="translate(605.46875 0)"/>
      <use xlink:href="#DejaVuSans-Bold-53" transform="translate(640.283203 0)"/>
      <use xlink:href="#DejaVuSans-Bold-65" transform="translate(712.304688 0)"/>
      <use xlink:href="#DejaVuSans-Bold-76" transform="translate(780.126953 0)"/>
      <use xlink:href="#DejaVuSans-Bold-65" transform="translate(845.3125 0)"/>
      <use xlink:href="#DejaVuSans-Bold-72" transform="translate(913.134766 0)"/>
      <use xlink:href="#DejaVuSans-Bold-69" transform="translate(962.451172 0)"/>
      <use xlink:href="#DejaVuSans-Bold-74" transform="translate(996.728516 0)"/>
      <use xlink:href="#DejaVuSans-Bold-79" transform="translate(1044.53125 0)"/>
     </g>
    </g>
   </g>
   <g id="matplotlib.axis_2">
    <g id="ytick_1">
     <g id="line2d_23">
      <path d="M 49.869063 436.562955 
L 777.319062 436.562955 
" clip-path="url(#pe00c4d79db)" style="fill: none; stroke-dasharray: 0.8,1.32; stroke-dashoffset: 0; stroke: #808080; stroke-opacity: 0.25; stroke-width: 0.8"/>
     </g>
     <g id="line2d_24">
      <defs>
       <path id="m19c99cfbbb" d="M 0 0 
L -3.5 0 
" style="stroke: #000000; stroke-width: 0.8"/>
      </defs>
      <g>
       <use xlink:href="#m19c99cfbbb" x="49.869063" y="436.562955" style="stroke: #000000; stroke-width: 0.8"/>
      </g>
     </g>
     <g id="text_13">
      <!-- 100 -->
      <g transform="translate(23.781563 440.362173) scale(0.1 -0.1)">
       <use xlink:href="#DejaVuSans-31"/>
       <use xlink:href="#DejaVuSans-30" transform="translate(63.623047 0)"/>
       <use xlink:href="#DejaVuSans-30" transform="translate(127.246094 0)"/>
      </g>
     </g>
    </g>
    <g id="ytick_2">
     <g id="line2d_25">
      <path d="M 49.869063 389.276591 
L 777.319062 389.276591 
" clip-path="url(#pe00c4d79db)" style="fill: none; stroke-dasharray: 0.8,1.32; stroke-dashoffset: 0; stroke: #808080; stroke-opacity: 0.25; stroke-width: 0.8"/>
     </g>
     <g id="line2d_26">
      <g>
       <use xlink:href="#m19c99cfbbb" x="49.869063" y="389.276591" style="stroke: #000000; stroke-width: 0.8"/>
      </g>
     </g>
     <g id="text_14">
      <!-- 75 -->
      <g transform="translate(30.144063 393.07581) scale(0.1 -0.1)">
       <defs>
        <path id="DejaVuSans-37" d="M 525 4666 
L 3525 4666 
L 3525 4397 
L 1831 0 
L 1172 0 
L 2766 4134 
L 525 4134 
L 525 4666 
z
" transform="scale(0.015625)"/>
       </defs>
       <use xlink:href="#DejaVuSans-37"/>
       <use xlink:href="#DejaVuSans-35" transform="translate(63.623047 0)"/>
      </g>
     </g>
    </g>
    <g id="ytick_3">
     <g id="line2d_27">
      <path d="M 49.869063 341.990227 
L 777.319062 341.990227 
" clip-path="url(#pe00c4d79db)" style="fill: none; stroke-dasharray: 0.8,1.32; stroke-dashoffset: 0; stroke: #808080; stroke-opacity: 0.25; stroke-width: 0.8"/>
     </g>
     <g id="line2d_28">
      <g>
       <use xlink:href="#m19c99cfbbb" x="49.869063" y="341.990227" style="stroke: #000000; stroke-width: 0.8"/>
      </g>
     </g>
     <g id="text_15">
      <!-- 50 -->
      <g transform="translate(30.144063 345.789446) scale(0.1 -0.1)">
       <use xlink:href="#DejaVuSans-35"/>
       <use xlink:href="#DejaVuSans-30" transform="translate(63.623047 0)"/>
      </g>
     </g>
    </g>
    <g id="ytick_4">
     <g id="line2d_29">
      <path d="M 49.869063 294.703864 
L 777.319062 294.703864 
" clip-path="url(#pe00c4d79db)" style="fill: none; stroke-dasharray: 0.8,1.32; stroke-dashoffset: 0; stroke: #808080; stroke-opacity: 0.25; stroke-width: 0.8"/>
     </g>
     <g id="line2d_30">
      <g>
       <use xlink:href="#m19c99cfbbb" x="49.869063" y="294.703864" style="stroke: #000000; stroke-width: 0.8"/>
      </g>
     </g>
     <g id="text_16">
      <!-- 25 -->
      <g transform="translate(30.144063 298.503082) scale(0.1 -0.1)">
       <use xlink:href="#DejaVuSans-32"/>
       <use xlink:href="#DejaVuSans-35" transform="translate(63.623047 0)"/>
      </g>
     </g>
    </g>
    <g id="ytick_5">
     <g id="line2d_31">
      <path d="M 49.869063 247.4175 
L 777.319062 247.4175 
" clip-path="url(#pe00c4d79db)" style="fill: none; stroke-dasharray: 0.8,1.32; stroke-dashoffset: 0; stroke: #808080; stroke-opacity: 0.25; stroke-width: 0.8"/>
     </g>
     <g id="line2d_32">
      <g>
       <use xlink:href="#m19c99cfbbb" x="49.869063" y="247.4175" style="stroke: #000000; stroke-width: 0.8"/>
      </g>
     </g>
     <g id="text_17">
      <!-- 0 -->
      <g transform="translate(36.506563 251.216719) scale(0.1 -0.1)">
       <use xlink:href="#DejaVuSans-30"/>
      </g>
     </g>
    </g>
    <g id="ytick_6">
     <g id="line2d_33">
      <path d="M 49.869063 200.131136 
L 777.319062 200.131136 
" clip-path="url(#pe00c4d79db)" style="fill: none; stroke-dasharray: 0.8,1.32; stroke-dashoffset: 0; stroke: #808080; stroke-opacity: 0.25; stroke-width: 0.8"/>
     </g>
     <g id="line2d_34">
      <g>
       <use xlink:href="#m19c99cfbbb" x="49.869063" y="200.131136" style="stroke: #000000; stroke-width: 0.8"/>
      </g>
     </g>
     <g id="text_18">
      <!-- 25 -->
      <g transform="translate(30.144063 203.930355) scale(0.1 -0.1)">
       <use xlink:href="#DejaVuSans-32"/>
       <use xlink:href="#DejaVuSans-35" transform="translate(63.623047 0)"/>
      </g>
     </g>
    </g>
    <g id="ytick_7">
     <g id="line2d_35">
      <path d="M 49.869063 152.844773 
L 777.319062 152.844773 
" clip-path="url(#pe00c4d79db)" style="fill: none; stroke-dasharray: 0.8,1.32; stroke-dashoffset: 0; stroke: #808080; stroke-opacity: 0.25; stroke-width: 0.8"/>
     </g>
     <g id="line2d_36">
      <g>
       <use xlink:href="#m19c99cfbbb" x="49.869063" y="152.844773" style="stroke: #000000; stroke-width: 0.8"/>
      </g>
     </g>
     <g id="text_19">
      <!-- 50 -->
      <g transform="translate(30.144063 156.643991) scale(0.1 -0.1)">
       <use xlink:href="#DejaVuSans-35"/>
       <use xlink:href="#DejaVuSans-30" transform="translate(63.623047 0)"/>
      </g>
     </g>
    </g>
    <g id="ytick_8">
     <g id="line2d_37">
      <path d="M 49.869063 105.558409 
L 777.319062 105.558409 
" clip-path="url(#pe00c4d79db)" style="fill: none; stroke-dasharray: 0.8,1.32; stroke-dashoffset: 0; stroke: #808080; stroke-opacity: 0.25; stroke-width: 0.8"/>
     </g>
     <g id="line2d_38">
      <g>
       <use xlink:href="#m19c99cfbbb" x="49.869063" y="105.558409" style="stroke: #000000; stroke-width: 0.8"/>
      </g>
     </g>
     <g id="text_20">
      <!-- 75 -->
      <g transform="translate(30.144063 109.357628) scale(0.1 -0.1)">
       <use xlink:href="#DejaVuSans-37"/>
       <use xlink:href="#DejaVuSans-35" transform="translate(63.623047 0)"/>
      </g>
     </g>
    </g>
    <g id="ytick_9">
     <g id="line2d_39">
      <path d="M 49.869063 58.272045 
L 777.319062 58.272045 
" clip-path="url(#pe00c4d79db)" style="fill: none; stroke-dasharray: 0.8,1.32; stroke-dashoffset: 0; stroke: #808080; stroke-opacity: 0.25; stroke-width: 0.8"/>
     </g>
     <g id="line2d_40">
      <g>
       <use xlink:href="#m19c99cfbbb" x="49.869063" y="58.272045" style="stroke: #000000; stroke-width: 0.8"/>
      </g>
     </g>
     <g id="text_21">
      <!-- 100 -->
      <g transform="translate(23.781563 62.071264) scale(0.1 -0.1)">
       <use xlink:href="#DejaVuSans-31"/>
       <use xlink:href="#DejaVuSans-30" transform="translate(63.623047 0)"/>
       <use xlink:href="#DejaVuSans-30" transform="translate(127.246094 0)"/>
      </g>
     </g>
    </g>
    <g id="text_22">
     <!-- Relative Metric (%) -->
     <g transform="translate(17.077969 317.678437) rotate(-90) scale(0.13 -0.13)">
      <defs>
       <path id="DejaVuSans-Bold-52" d="M 2297 2597 
Q 2675 2597 2839 2737 
Q 3003 2878 3003 3200 
Q 3003 3519 2839 3656 
Q 2675 3794 2297 3794 
L 1791 3794 
L 1791 2597 
L 2297 2597 
z
M 1791 1766 
L 1791 0 
L 588 0 
L 588 4666 
L 2425 4666 
Q 3347 4666 3776 4356 
Q 4206 4047 4206 3378 
Q 4206 2916 3982 2619 
Q 3759 2322 3309 2181 
Q 3556 2125 3751 1926 
Q 3947 1728 4147 1325 
L 4800 0 
L 3519 0 
L 2950 1159 
Q 2778 1509 2601 1637 
Q 2425 1766 2131 1766 
L 1791 1766 
z
" transform="scale(0.015625)"/>
       <path id="DejaVuSans-Bold-6c" d="M 538 4863 
L 1656 4863 
L 1656 0 
L 538 0 
L 538 4863 
z
" transform="scale(0.015625)"/>
       <path id="DejaVuSans-Bold-61" d="M 2106 1575 
Q 1756 1575 1579 1456 
Q 1403 1338 1403 1106 
Q 1403 894 1545 773 
Q 1688 653 1941 653 
Q 2256 653 2472 879 
Q 2688 1106 2688 1447 
L 2688 1575 
L 2106 1575 
z
M 3816 1997 
L 3816 0 
L 2688 0 
L 2688 519 
Q 2463 200 2181 54 
Q 1900 -91 1497 -91 
Q 953 -91 614 226 
Q 275 544 275 1050 
Q 275 1666 698 1953 
Q 1122 2241 2028 2241 
L 2688 2241 
L 2688 2328 
Q 2688 2594 2478 2717 
Q 2269 2841 1825 2841 
Q 1466 2841 1156 2769 
Q 847 2697 581 2553 
L 581 3406 
Q 941 3494 1303 3539 
Q 1666 3584 2028 3584 
Q 2975 3584 3395 3211 
Q 3816 2838 3816 1997 
z
" transform="scale(0.015625)"/>
       <path id="DejaVuSans-Bold-4d" d="M 588 4666 
L 2119 4666 
L 3181 2169 
L 4250 4666 
L 5778 4666 
L 5778 0 
L 4641 0 
L 4641 3413 
L 3566 897 
L 2803 897 
L 1728 3413 
L 1728 0 
L 588 0 
L 588 4666 
z
" transform="scale(0.015625)"/>
       <path id="DejaVuSans-Bold-63" d="M 3366 3391 
L 3366 2478 
Q 3138 2634 2908 2709 
Q 2678 2784 2431 2784 
Q 1963 2784 1702 2511 
Q 1441 2238 1441 1747 
Q 1441 1256 1702 982 
Q 1963 709 2431 709 
Q 2694 709 2930 787 
Q 3166 866 3366 1019 
L 3366 103 
Q 3103 6 2833 -42 
Q 2563 -91 2291 -91 
Q 1344 -91 809 395 
Q 275 881 275 1747 
Q 275 2613 809 3098 
Q 1344 3584 2291 3584 
Q 2566 3584 2833 3536 
Q 3100 3488 3366 3391 
z
" transform="scale(0.015625)"/>
       <path id="DejaVuSans-Bold-28" d="M 2413 -844 
L 1484 -844 
Q 1006 -72 778 623 
Q 550 1319 550 2003 
Q 550 2688 779 3389 
Q 1009 4091 1484 4856 
L 2413 4856 
Q 2013 4116 1813 3408 
Q 1613 2700 1613 2009 
Q 1613 1319 1811 609 
Q 2009 -100 2413 -844 
z
" transform="scale(0.015625)"/>
       <path id="DejaVuSans-Bold-25" d="M 4959 1925 
Q 4738 1925 4616 1733 
Q 4494 1541 4494 1184 
Q 4494 825 4614 633 
Q 4734 441 4959 441 
Q 5184 441 5303 633 
Q 5422 825 5422 1184 
Q 5422 1541 5301 1733 
Q 5181 1925 4959 1925 
z
M 4959 2450 
Q 5541 2450 5875 2112 
Q 6209 1775 6209 1184 
Q 6209 594 5875 251 
Q 5541 -91 4959 -91 
Q 4378 -91 4042 251 
Q 3706 594 3706 1184 
Q 3706 1772 4042 2111 
Q 4378 2450 4959 2450 
z
M 2094 -91 
L 1403 -91 
L 4319 4750 
L 5013 4750 
L 2094 -91 
z
M 1453 4750 
Q 2034 4750 2367 4411 
Q 2700 4072 2700 3481 
Q 2700 2891 2367 2550 
Q 2034 2209 1453 2209 
Q 872 2209 539 2550 
Q 206 2891 206 3481 
Q 206 4072 539 4411 
Q 872 4750 1453 4750 
z
M 1453 4225 
Q 1228 4225 1106 4031 
Q 984 3838 984 3481 
Q 984 3122 1106 2926 
Q 1228 2731 1453 2731 
Q 1678 2731 1798 2926 
Q 1919 3122 1919 3481 
Q 1919 3838 1797 4031 
Q 1675 4225 1453 4225 
z
" transform="scale(0.015625)"/>
       <path id="DejaVuSans-Bold-29" d="M 513 -844 
Q 913 -100 1113 609 
Q 1313 1319 1313 2009 
Q 1313 2700 1113 3408 
Q 913 4116 513 4856 
L 1441 4856 
Q 1916 4091 2145 3389 
Q 2375 2688 2375 2003 
Q 2375 1319 2147 623 
Q 1919 -72 1441 -844 
L 513 -844 
z
" transform="scale(0.015625)"/>
      </defs>
      <use xlink:href="#DejaVuSans-Bold-52"/>
      <use xlink:href="#DejaVuSans-Bold-65" transform="translate(77.001953 0)"/>
      <use xlink:href="#DejaVuSans-Bold-6c" transform="translate(144.824219 0)"/>
      <use xlink:href="#DejaVuSans-Bold-61" transform="translate(179.101562 0)"/>
      <use xlink:href="#DejaVuSans-Bold-74" transform="translate(246.582031 0)"/>
      <use xlink:href="#DejaVuSans-Bold-69" transform="translate(294.384766 0)"/>
      <use xlink:href="#DejaVuSans-Bold-76" transform="translate(328.662109 0)"/>
      <use xlink:href="#DejaVuSans-Bold-65" transform="translate(393.847656 0)"/>
      <use xlink:href="#DejaVuSans-Bold-20" transform="translate(461.669922 0)"/>
      <use xlink:href="#DejaVuSans-Bold-4d" transform="translate(496.484375 0)"/>
      <use xlink:href="#DejaVuSans-Bold-65" transform="translate(595.996094 0)"/>
      <use xlink:href="#DejaVuSans-Bold-74" transform="translate(663.818359 0)"/>
      <use xlink:href="#DejaVuSans-Bold-72" transform="translate(711.621094 0)"/>
      <use xlink:href="#DejaVuSans-Bold-69" transform="translate(760.9375 0)"/>
      <use xlink:href="#DejaVuSans-Bold-63" transform="translate(795.214844 0)"/>
      <use xlink:href="#DejaVuSans-Bold-20" transform="translate(854.492188 0)"/>
      <use xlink:href="#DejaVuSans-Bold-28" transform="translate(889.306641 0)"/>
      <use xlink:href="#DejaVuSans-Bold-25" transform="translate(935.009766 0)"/>
      <use xlink:href="#DejaVuSans-Bold-29" transform="translate(1035.205078 0)"/>
     </g>
    </g>
   </g>
   <g id="patch_3">
    <path d="M 396.806755 247.4175 
L 413.594062 247.4175 
L 413.594062 58.272045 
L 396.806755 58.272045 
z
" clip-path="url(#pe00c4d79db)" style="fill: #2e5c8a; opacity: 0.8; stroke: #00008b; stroke-width: 0.5; stroke-linejoin: miter"/>
   </g>
   <g id="patch_4">
    <path d="M 413.594062 247.4175 
L 430.38137 247.4175 
L 430.38137 58.272045 
L 413.594062 58.272045 
z
" clip-path="url(#pe00c4d79db)" style="fill: #e67e22; opacity: 0.8; stroke: #ff8c00; stroke-width: 0.5; stroke-linejoin: miter"/>
   </g>
   <g id="patch_5">
    <path d="M 340.849062 247.4175 
L 357.63637 247.4175 
L 357.63637 58.487941 
L 340.849062 58.487941 
z
" clip-path="url(#pe00c4d79db)" style="fill: #2e5c8a; opacity: 0.8; stroke: #00008b; stroke-width: 0.5; stroke-linejoin: miter"/>
   </g>
   <g id="patch_6">
    <path d="M 357.63637 247.4175 
L 374.423678 247.4175 
L 374.423678 138.281065 
L 357.63637 138.281065 
z
" clip-path="url(#pe00c4d79db)" style="fill: #e67e22; opacity: 0.8; stroke: #ff8c00; stroke-width: 0.5; stroke-linejoin: miter"/>
   </g>
   <g id="patch_7">
    <path d="M 284.89137 247.4175 
L 301.678678 247.4175 
L 301.678678 62.577772 
L 284.89137 62.577772 
z
" clip-path="url(#pe00c4d79db)" style="fill: #2e5c8a; opacity: 0.8; stroke: #00008b; stroke-width: 0.5; stroke-linejoin: miter"/>
   </g>
   <g id="patch_8">
    <path d="M 301.678678 247.4175 
L 318.465986 247.4175 
L 318.465986 223.157029 
L 301.678678 223.157029 
z
" clip-path="url(#pe00c4d79db)" style="fill: #e67e22; opacity: 0.8; stroke: #ff8c00; stroke-width: 0.5; stroke-linejoin: miter"/>
   </g>
   <g id="patch_9">
    <path d="M 228.933678 247.4175 
L 245.720986 247.4175 
L 245.720986 66.808888 
L 228.933678 66.808888 
z
" clip-path="url(#pe00c4d79db)" style="fill: #2e5c8a; opacity: 0.8; stroke: #00008b; stroke-width: 0.5; stroke-linejoin: miter"/>
   </g>
   <g id="patch_10">
    <path d="M 245.720986 247.4175 
L 262.508293 247.4175 
L 262.508293 241.098514 
L 245.720986 241.098514 
z
" clip-path="url(#pe00c4d79db)" style="fill: #e67e22; opacity: 0.8; stroke: #ff8c00; stroke-width: 0.5; stroke-linejoin: miter"/>
   </g>
   <g id="patch_11">
    <path d="M 172.975986 247.4175 
L 189.763293 247.4175 
L 189.763293 91.841968 
L 172.975986 91.841968 
z
" clip-path="url(#pe00c4d79db)" style="fill: #2e5c8a; opacity: 0.8; stroke: #00008b; stroke-width: 0.5; stroke-linejoin: miter"/>
   </g>
   <g id="patch_12">
    <path d="M 189.763293 247.4175 
L 206.550601 247.4175 
L 206.550601 243.948797 
L 189.763293 243.948797 
z
" clip-path="url(#pe00c4d79db)" style="fill: #e67e22; opacity: 0.8; stroke: #ff8c00; stroke-width: 0.5; stroke-linejoin: miter"/>
   </g>
   <g id="patch_13">
    <path d="M 117.018293 247.4175 
L 133.805601 247.4175 
L 133.805601 227.346743 
L 117.018293 227.346743 
z
" clip-path="url(#pe00c4d79db)" style="fill: #2e5c8a; opacity: 0.8; stroke: #00008b; stroke-width: 0.5; stroke-linejoin: miter"/>
   </g>
   <g id="patch_14">
    <path d="M 133.805601 247.4175 
L 150.592909 247.4175 
L 150.592909 245.548812 
L 133.805601 245.548812 
z
" clip-path="url(#pe00c4d79db)" style="fill: #e67e22; opacity: 0.8; stroke: #ff8c00; stroke-width: 0.5; stroke-linejoin: miter"/>
   </g>
   <g id="patch_15">
    <path d="M 396.806755 247.4175 
L 413.594062 247.4175 
L 413.594062 58.272045 
L 396.806755 58.272045 
z
" clip-path="url(#pe00c4d79db)" style="fill: #2e5c8a; opacity: 0.8; stroke: #00008b; stroke-width: 0.5; stroke-linejoin: miter"/>
   </g>
   <g id="patch_16">
    <path d="M 413.594062 247.4175 
L 430.38137 247.4175 
L 430.38137 58.272045 
L 413.594062 58.272045 
z
" clip-path="url(#pe00c4d79db)" style="fill: #e67e22; opacity: 0.8; stroke: #ff8c00; stroke-width: 0.5; stroke-linejoin: miter"/>
   </g>
   <g id="patch_17">
    <path d="M 452.764447 247.4175 
L 469.551755 247.4175 
L 469.551755 60.146361 
L 452.764447 60.146361 
z
" clip-path="url(#pe00c4d79db)" style="fill: #2e5c8a; opacity: 0.8; stroke: #00008b; stroke-width: 0.5; stroke-linejoin: miter"/>
   </g>
   <g id="patch_18">
    <path d="M 469.551755 247.4175 
L 486.339062 247.4175 
L 486.339062 174.367426 
L 469.551755 174.367426 
z
" clip-path="url(#pe00c4d79db)" style="fill: #e67e22; opacity: 0.8; stroke: #ff8c00; stroke-width: 0.5; stroke-linejoin: miter"/>
   </g>
   <g id="patch_19">
    <path d="M 508.722139 247.4175 
L 525.509447 247.4175 
L 525.509447 59.622421 
L 508.722139 59.622421 
z
" clip-path="url(#pe00c4d79db)" style="fill: #2e5c8a; opacity: 0.8; stroke: #00008b; stroke-width: 0.5; stroke-linejoin: miter"/>
   </g>
   <g id="patch_20">
    <path d="M 525.509447 247.4175 
L 542.296755 247.4175 
L 542.296755 205.95913 
L 525.509447 205.95913 
z
" clip-path="url(#pe00c4d79db)" style="fill: #e67e22; opacity: 0.8; stroke: #ff8c00; stroke-width: 0.5; stroke-linejoin: miter"/>
   </g>
   <g id="patch_21">
    <path d="M 564.679832 247.4175 
L 581.467139 247.4175 
L 581.467139 65.566701 
L 564.679832 65.566701 
z
" clip-path="url(#pe00c4d79db)" style="fill: #2e5c8a; opacity: 0.8; stroke: #00008b; stroke-width: 0.5; stroke-linejoin: miter"/>
   </g>
   <g id="patch_22">
    <path d="M 581.467139 247.4175 
L 598.254447 247.4175 
L 598.254447 237.560762 
L 581.467139 237.560762 
z
" clip-path="url(#pe00c4d79db)" style="fill: #e67e22; opacity: 0.8; stroke: #ff8c00; stroke-width: 0.5; stroke-linejoin: miter"/>
   </g>
   <g id="patch_23">
    <path d="M 620.637524 247.4175 
L 637.424832 247.4175 
L 637.424832 103.429904 
L 620.637524 103.429904 
z
" clip-path="url(#pe00c4d79db)" style="fill: #2e5c8a; opacity: 0.8; stroke: #00008b; stroke-width: 0.5; stroke-linejoin: miter"/>
   </g>
   <g id="patch_24">
    <path d="M 637.424832 247.4175 
L 654.212139 247.4175 
L 654.212139 245.179664 
L 637.424832 245.179664 
z
" clip-path="url(#pe00c4d79db)" style="fill: #e67e22; opacity: 0.8; stroke: #ff8c00; stroke-width: 0.5; stroke-linejoin: miter"/>
   </g>
   <g id="patch_25">
    <path d="M 676.595216 247.4175 
L 693.382524 247.4175 
L 693.382524 220.942075 
L 676.595216 220.942075 
z
" clip-path="url(#pe00c4d79db)" style="fill: #2e5c8a; opacity: 0.8; stroke: #00008b; stroke-width: 0.5; stroke-linejoin: miter"/>
   </g>
   <g id="patch_26">
    <path d="M 693.382524 247.4175 
L 710.169832 247.4175 
L 710.169832 245.465464 
L 693.382524 245.465464 
z
" clip-path="url(#pe00c4d79db)" style="fill: #e67e22; opacity: 0.8; stroke: #ff8c00; stroke-width: 0.5; stroke-linejoin: miter"/>
   </g>
   <g id="patch_27">
    <path d="M 396.806755 247.4175 
L 413.594062 247.4175 
L 413.594062 436.562955 
L 396.806755 436.562955 
z
" clip-path="url(#pe00c4d79db)" style="fill: #2e5c8a; opacity: 0.8; stroke: #00008b; stroke-width: 0.5; stroke-linejoin: miter"/>
   </g>
   <g id="patch_28">
    <path d="M 413.594062 247.4175 
L 430.38137 247.4175 
L 430.38137 436.562955 
L 413.594062 436.562955 
z
" clip-path="url(#pe00c4d79db)" style="fill: #e67e22; opacity: 0.8; stroke: #ff8c00; stroke-width: 0.5; stroke-linejoin: miter"/>
   </g>
   <g id="patch_29">
    <path d="M 340.849062 247.4175 
L 357.63637 247.4175 
L 357.63637 436.68692 
L 340.849062 436.68692 
z
" clip-path="url(#pe00c4d79db)" style="fill: #2e5c8a; opacity: 0.8; stroke: #00008b; stroke-width: 0.5; stroke-linejoin: miter"/>
   </g>
   <g id="patch_30">
    <path d="M 357.63637 247.4175 
L 374.423678 247.4175 
L 374.423678 359.343555 
L 357.63637 359.343555 
z
" clip-path="url(#pe00c4d79db)" style="fill: #e67e22; opacity: 0.8; stroke: #ff8c00; stroke-width: 0.5; stroke-linejoin: miter"/>
   </g>
   <g id="patch_31">
    <path d="M 284.89137 247.4175 
L 301.678678 247.4175 
L 301.678678 431.250596 
L 284.89137 431.250596 
z
" clip-path="url(#pe00c4d79db)" style="fill: #2e5c8a; opacity: 0.8; stroke: #00008b; stroke-width: 0.5; stroke-linejoin: miter"/>
   </g>
   <g id="patch_32">
    <path d="M 301.678678 247.4175 
L 318.465986 247.4175 
L 318.465986 281.426034 
L 301.678678 281.426034 
z
" clip-path="url(#pe00c4d79db)" style="fill: #e67e22; opacity: 0.8; stroke: #ff8c00; stroke-width: 0.5; stroke-linejoin: miter"/>
   </g>
   <g id="patch_33">
    <path d="M 228.933678 247.4175 
L 245.720986 247.4175 
L 245.720986 426.057562 
L 228.933678 426.057562 
z
" clip-path="url(#pe00c4d79db)" style="fill: #2e5c8a; opacity: 0.8; stroke: #00008b; stroke-width: 0.5; stroke-linejoin: miter"/>
   </g>
   <g id="patch_34">
    <path d="M 245.720986 247.4175 
L 262.508293 247.4175 
L 262.508293 262.165202 
L 245.720986 262.165202 
z
" clip-path="url(#pe00c4d79db)" style="fill: #e67e22; opacity: 0.8; stroke: #ff8c00; stroke-width: 0.5; stroke-linejoin: miter"/>
   </g>
   <g id="patch_35">
    <path d="M 172.975986 247.4175 
L 189.763293 247.4175 
L 189.763293 406.37654 
L 172.975986 406.37654 
z
" clip-path="url(#pe00c4d79db)" style="fill: #2e5c8a; opacity: 0.8; stroke: #00008b; stroke-width: 0.5; stroke-linejoin: miter"/>
   </g>
   <g id="patch_36">
    <path d="M 189.763293 247.4175 
L 206.550601 247.4175 
L 206.550601 256.574272 
L 189.763293 256.574272 
z
" clip-path="url(#pe00c4d79db)" style="fill: #e67e22; opacity: 0.8; stroke: #ff8c00; stroke-width: 0.5; stroke-linejoin: miter"/>
   </g>
   <g id="patch_37">
    <path d="M 117.018293 247.4175 
L 133.805601 247.4175 
L 133.805601 291.119014 
L 117.018293 291.119014 
z
" clip-path="url(#pe00c4d79db)" style="fill: #2e5c8a; opacity: 0.8; stroke: #00008b; stroke-width: 0.5; stroke-linejoin: miter"/>
   </g>
   <g id="patch_38">
    <path d="M 133.805601 247.4175 
L 150.592909 247.4175 
L 150.592909 253.36481 
L 133.805601 253.36481 
z
" clip-path="url(#pe00c4d79db)" style="fill: #e67e22; opacity: 0.8; stroke: #ff8c00; stroke-width: 0.5; stroke-linejoin: miter"/>
   </g>
   <g id="patch_39">
    <path d="M 396.806755 247.4175 
L 413.594062 247.4175 
L 413.594062 436.562955 
L 396.806755 436.562955 
z
" clip-path="url(#pe00c4d79db)" style="fill: #2e5c8a; opacity: 0.8; stroke: #00008b; stroke-width: 0.5; stroke-linejoin: miter"/>
   </g>
   <g id="patch_40">
    <path d="M 413.594062 247.4175 
L 430.38137 247.4175 
L 430.38137 436.562955 
L 413.594062 436.562955 
z
" clip-path="url(#pe00c4d79db)" style="fill: #e67e22; opacity: 0.8; stroke: #ff8c00; stroke-width: 0.5; stroke-linejoin: miter"/>
   </g>
   <g id="patch_41">
    <path d="M 452.764447 247.4175 
L 469.551755 247.4175 
L 469.551755 439.072304 
L 452.764447 439.072304 
z
" clip-path="url(#pe00c4d79db)" style="fill: #2e5c8a; opacity: 0.8; stroke: #00008b; stroke-width: 0.5; stroke-linejoin: miter"/>
   </g>
   <g id="patch_42">
    <path d="M 469.551755 247.4175 
L 486.339062 247.4175 
L 486.339062 329.002289 
L 469.551755 329.002289 
z
" clip-path="url(#pe00c4d79db)" style="fill: #e67e22; opacity: 0.8; stroke: #ff8c00; stroke-width: 0.5; stroke-linejoin: miter"/>
   </g>
   <g id="patch_43">
    <path d="M 508.722139 247.4175 
L 525.509447 247.4175 
L 525.509447 434.787238 
L 508.722139 434.787238 
z
" clip-path="url(#pe00c4d79db)" style="fill: #2e5c8a; opacity: 0.8; stroke: #00008b; stroke-width: 0.5; stroke-linejoin: miter"/>
   </g>
   <g id="patch_44">
    <path d="M 525.509447 247.4175 
L 542.296755 247.4175 
L 542.296755 298.495984 
L 525.509447 298.495984 
z
" clip-path="url(#pe00c4d79db)" style="fill: #e67e22; opacity: 0.8; stroke: #ff8c00; stroke-width: 0.5; stroke-linejoin: miter"/>
   </g>
   <g id="patch_45">
    <path d="M 564.679832 247.4175 
L 581.467139 247.4175 
L 581.467139 432.745159 
L 564.679832 432.745159 
z
" clip-path="url(#pe00c4d79db)" style="fill: #2e5c8a; opacity: 0.8; stroke: #00008b; stroke-width: 0.5; stroke-linejoin: miter"/>
   </g>
   <g id="patch_46">
    <path d="M 581.467139 247.4175 
L 598.254447 247.4175 
L 598.254447 263.381555 
L 581.467139 263.381555 
z
" clip-path="url(#pe00c4d79db)" style="fill: #e67e22; opacity: 0.8; stroke: #ff8c00; stroke-width: 0.5; stroke-linejoin: miter"/>
   </g>
   <g id="patch_47">
    <path d="M 620.637524 247.4175 
L 637.424832 247.4175 
L 637.424832 397.898012 
L 620.637524 397.898012 
z
" clip-path="url(#pe00c4d79db)" style="fill: #2e5c8a; opacity: 0.8; stroke: #00008b; stroke-width: 0.5; stroke-linejoin: miter"/>
   </g>
   <g id="patch_48">
    <path d="M 637.424832 247.4175 
L 654.212139 247.4175 
L 654.212139 254.063191 
L 637.424832 254.063191 
z
" clip-path="url(#pe00c4d79db)" style="fill: #e67e22; opacity: 0.8; stroke: #ff8c00; stroke-width: 0.5; stroke-linejoin: miter"/>
   </g>
   <g id="patch_49">
    <path d="M 676.595216 247.4175 
L 693.382524 247.4175 
L 693.382524 285.122711 
L 676.595216 285.122711 
z
" clip-path="url(#pe00c4d79db)" style="fill: #2e5c8a; opacity: 0.8; stroke: #00008b; stroke-width: 0.5; stroke-linejoin: miter"/>
   </g>
   <g id="patch_50">
    <path d="M 693.382524 247.4175 
L 710.169832 247.4175 
L 710.169832 253.515135 
L 693.382524 253.515135 
z
" clip-path="url(#pe00c4d79db)" style="fill: #e67e22; opacity: 0.8; stroke: #ff8c00; stroke-width: 0.5; stroke-linejoin: miter"/>
   </g>
   <g id="line2d_41">
    <path d="M 49.869063 247.4175 
L 777.319062 247.4175 
" clip-path="url(#pe00c4d79db)" style="fill: none; stroke: #000000; stroke-opacity: 0.8; stroke-width: 2; stroke-linecap: square"/>
   </g>
   <g id="line2d_42">
    <path d="M 413.594062 455.4775 
L 413.594062 39.3575 
" clip-path="url(#pe00c4d79db)" style="fill: none; stroke: #000000; stroke-opacity: 0.8; stroke-width: 2; stroke-linecap: square"/>
   </g>
   <g id="patch_51">
    <path d="M 49.869063 455.4775 
L 49.869063 39.3575 
" style="fill: none; stroke: #000000; stroke-width: 0.8; stroke-linejoin: miter; stroke-linecap: square"/>
   </g>
   <g id="patch_52">
    <path d="M 777.319062 455.4775 
L 777.319062 39.3575 
" style="fill: none; stroke: #000000; stroke-width: 0.8; stroke-linejoin: miter; stroke-linecap: square"/>
   </g>
   <g id="patch_53">
    <path d="M 49.869062 455.4775 
L 777.319062 455.4775 
" style="fill: none; stroke: #000000; stroke-width: 0.8; stroke-linejoin: miter; stroke-linecap: square"/>
   </g>
   <g id="patch_54">
    <path d="M 49.869062 39.3575 
L 777.319062 39.3575 
" style="fill: none; stroke: #000000; stroke-width: 0.8; stroke-linejoin: miter; stroke-linecap: square"/>
   </g>
   <g id="text_23">
    <!-- Relative Metrics: BCM vs Avg over Four Quadrants -->
    <g transform="translate(186.205312 19.3575) scale(0.16 -0.16)">
     <defs>
      <path id="DejaVuSans-Bold-73" d="M 3272 3391 
L 3272 2541 
Q 2913 2691 2578 2766 
Q 2244 2841 1947 2841 
Q 1628 2841 1473 2761 
Q 1319 2681 1319 2516 
Q 1319 2381 1436 2309 
Q 1553 2238 1856 2203 
L 2053 2175 
Q 2913 2066 3209 1816 
Q 3506 1566 3506 1031 
Q 3506 472 3093 190 
Q 2681 -91 1863 -91 
Q 1516 -91 1145 -36 
Q 775 19 384 128 
L 384 978 
Q 719 816 1070 734 
Q 1422 653 1784 653 
Q 2113 653 2278 743 
Q 2444 834 2444 1013 
Q 2444 1163 2330 1236 
Q 2216 1309 1875 1350 
L 1678 1375 
Q 931 1469 631 1722 
Q 331 1975 331 2491 
Q 331 3047 712 3315 
Q 1094 3584 1881 3584 
Q 2191 3584 2531 3537 
Q 2872 3491 3272 3391 
z
" transform="scale(0.015625)"/>
      <path id="DejaVuSans-Bold-3a" d="M 716 3500 
L 1844 3500 
L 1844 2291 
L 716 2291 
L 716 3500 
z
M 716 1209 
L 1844 1209 
L 1844 0 
L 716 0 
L 716 1209 
z
" transform="scale(0.015625)"/>
      <path id="DejaVuSans-Bold-42" d="M 2456 2859 
Q 2741 2859 2887 2984 
Q 3034 3109 3034 3353 
Q 3034 3594 2887 3720 
Q 2741 3847 2456 3847 
L 1791 3847 
L 1791 2859 
L 2456 2859 
z
M 2497 819 
Q 2859 819 3042 972 
Q 3225 1125 3225 1434 
Q 3225 1738 3044 1889 
Q 2863 2041 2497 2041 
L 1791 2041 
L 1791 819 
L 2497 819 
z
M 3616 2497 
Q 4003 2384 4215 2081 
Q 4428 1778 4428 1338 
Q 4428 663 3972 331 
Q 3516 0 2584 0 
L 588 0 
L 588 4666 
L 2394 4666 
Q 3366 4666 3802 4372 
Q 4238 4078 4238 3431 
Q 4238 3091 4078 2852 
Q 3919 2613 3616 2497 
z
" transform="scale(0.015625)"/>
      <path id="DejaVuSans-Bold-41" d="M 3419 850 
L 1538 850 
L 1241 0 
L 31 0 
L 1759 4666 
L 3194 4666 
L 4922 0 
L 3713 0 
L 3419 850 
z
M 1838 1716 
L 3116 1716 
L 2478 3572 
L 1838 1716 
z
" transform="scale(0.015625)"/>
      <path id="DejaVuSans-Bold-67" d="M 2919 594 
Q 2688 288 2409 144 
Q 2131 0 1766 0 
Q 1125 0 706 504 
Q 288 1009 288 1791 
Q 288 2575 706 3076 
Q 1125 3578 1766 3578 
Q 2131 3578 2409 3434 
Q 2688 3291 2919 2981 
L 2919 3500 
L 4044 3500 
L 4044 353 
Q 4044 -491 3511 -936 
Q 2978 -1381 1966 -1381 
Q 1638 -1381 1331 -1331 
Q 1025 -1281 716 -1178 
L 716 -306 
Q 1009 -475 1290 -558 
Q 1572 -641 1856 -641 
Q 2406 -641 2662 -400 
Q 2919 -159 2919 353 
L 2919 594 
z
M 2181 2772 
Q 1834 2772 1640 2515 
Q 1447 2259 1447 1791 
Q 1447 1309 1634 1061 
Q 1822 813 2181 813 
Q 2531 813 2725 1069 
Q 2919 1325 2919 1791 
Q 2919 2259 2725 2515 
Q 2531 2772 2181 2772 
z
" transform="scale(0.015625)"/>
      <path id="DejaVuSans-Bold-46" d="M 588 4666 
L 3834 4666 
L 3834 3756 
L 1791 3756 
L 1791 2888 
L 3713 2888 
L 3713 1978 
L 1791 1978 
L 1791 0 
L 588 0 
L 588 4666 
z
" transform="scale(0.015625)"/>
      <path id="DejaVuSans-Bold-51" d="M 2847 -84 
L 2753 -84 
Q 1600 -84 959 553 
Q 319 1191 319 2328 
Q 319 3463 958 4106 
Q 1597 4750 2719 4750 
Q 3853 4750 4486 4112 
Q 5119 3475 5119 2328 
Q 5119 1541 4783 972 
Q 4447 403 3816 116 
L 4756 -934 
L 3609 -934 
L 2847 -84 
z
M 2719 3878 
Q 2169 3878 1866 3472 
Q 1563 3066 1563 2328 
Q 1563 1578 1859 1179 
Q 2156 781 2719 781 
Q 3272 781 3575 1187 
Q 3878 1594 3878 2328 
Q 3878 3066 3575 3472 
Q 3272 3878 2719 3878 
z
" transform="scale(0.015625)"/>
      <path id="DejaVuSans-Bold-64" d="M 2919 2988 
L 2919 4863 
L 4044 4863 
L 4044 0 
L 2919 0 
L 2919 506 
Q 2688 197 2409 53 
Q 2131 -91 1766 -91 
Q 1119 -91 703 423 
Q 288 938 288 1747 
Q 288 2556 703 3070 
Q 1119 3584 1766 3584 
Q 2128 3584 2408 3439 
Q 2688 3294 2919 2988 
z
M 2181 722 
Q 2541 722 2730 984 
Q 2919 1247 2919 1747 
Q 2919 2247 2730 2509 
Q 2541 2772 2181 2772 
Q 1825 2772 1636 2509 
Q 1447 2247 1447 1747 
Q 1447 1247 1636 984 
Q 1825 722 2181 722 
z
" transform="scale(0.015625)"/>
     </defs>
     <use xlink:href="#DejaVuSans-Bold-52"/>
     <use xlink:href="#DejaVuSans-Bold-65" transform="translate(77.001953 0)"/>
     <use xlink:href="#DejaVuSans-Bold-6c" transform="translate(144.824219 0)"/>
     <use xlink:href="#DejaVuSans-Bold-61" transform="translate(179.101562 0)"/>
     <use xlink:href="#DejaVuSans-Bold-74" transform="translate(246.582031 0)"/>
     <use xlink:href="#DejaVuSans-Bold-69" transform="translate(294.384766 0)"/>
     <use xlink:href="#DejaVuSans-Bold-76" transform="translate(328.662109 0)"/>
     <use xlink:href="#DejaVuSans-Bold-65" transform="translate(393.847656 0)"/>
     <use xlink:href="#DejaVuSans-Bold-20" transform="translate(461.669922 0)"/>
     <use xlink:href="#DejaVuSans-Bold-4d" transform="translate(496.484375 0)"/>
     <use xlink:href="#DejaVuSans-Bold-65" transform="translate(595.996094 0)"/>
     <use xlink:href="#DejaVuSans-Bold-74" transform="translate(663.818359 0)"/>
     <use xlink:href="#DejaVuSans-Bold-72" transform="translate(711.621094 0)"/>
     <use xlink:href="#DejaVuSans-Bold-69" transform="translate(760.9375 0)"/>
     <use xlink:href="#DejaVuSans-Bold-63" transform="translate(795.214844 0)"/>
     <use xlink:href="#DejaVuSans-Bold-73" transform="translate(854.492188 0)"/>
     <use xlink:href="#DejaVuSans-Bold-3a" transform="translate(914.013672 0)"/>
     <use xlink:href="#DejaVuSans-Bold-20" transform="translate(954.003906 0)"/>
     <use xlink:href="#DejaVuSans-Bold-42" transform="translate(988.818359 0)"/>
     <use xlink:href="#DejaVuSans-Bold-43" transform="translate(1065.039062 0)"/>
     <use xlink:href="#DejaVuSans-Bold-4d" transform="translate(1138.427734 0)"/>
     <use xlink:href="#DejaVuSans-Bold-20" transform="translate(1237.939453 0)"/>
     <use xlink:href="#DejaVuSans-Bold-76" transform="translate(1272.753906 0)"/>
     <use xlink:href="#DejaVuSans-Bold-73" transform="translate(1337.939453 0)"/>
     <use xlink:href="#DejaVuSans-Bold-20" transform="translate(1397.460938 0)"/>
     <use xlink:href="#DejaVuSans-Bold-41" transform="translate(1432.275391 0)"/>
     <use xlink:href="#DejaVuSans-Bold-76" transform="translate(1506.042969 0)"/>
     <use xlink:href="#DejaVuSans-Bold-67" transform="translate(1571.228516 0)"/>
     <use xlink:href="#DejaVuSans-Bold-20" transform="translate(1642.810547 0)"/>
     <use xlink:href="#DejaVuSans-Bold-6f" transform="translate(1677.625 0)"/>
     <use xlink:href="#DejaVuSans-Bold-76" transform="translate(1746.326172 0)"/>
     <use xlink:href="#DejaVuSans-Bold-65" transform="translate(1811.511719 0)"/>
     <use xlink:href="#DejaVuSans-Bold-72" transform="translate(1879.333984 0)"/>
     <use xlink:href="#DejaVuSans-Bold-20" transform="translate(1928.650391 0)"/>
     <use xlink:href="#DejaVuSans-Bold-46" transform="translate(1963.464844 0)"/>
     <use xlink:href="#DejaVuSans-Bold-6f" transform="translate(2027.775391 0)"/>
     <use xlink:href="#DejaVuSans-Bold-75" transform="translate(2096.476562 0)"/>
     <use xlink:href="#DejaVuSans-Bold-72" transform="translate(2167.667969 0)"/>
     <use xlink:href="#DejaVuSans-Bold-20" transform="translate(2216.984375 0)"/>
     <use xlink:href="#DejaVuSans-Bold-51" transform="translate(2251.798828 0)"/>
     <use xlink:href="#DejaVuSans-Bold-75" transform="translate(2336.808594 0)"/>
     <use xlink:href="#DejaVuSans-Bold-61" transform="translate(2408 0)"/>
     <use xlink:href="#DejaVuSans-Bold-64" transform="translate(2475.480469 0)"/>
     <use xlink:href="#DejaVuSans-Bold-72" transform="translate(2547.0625 0)"/>
     <use xlink:href="#DejaVuSans-Bold-61" transform="translate(2596.378906 0)"/>
     <use xlink:href="#DejaVuSans-Bold-6e" transform="translate(2663.859375 0)"/>
     <use xlink:href="#DejaVuSans-Bold-74" transform="translate(2735.050781 0)"/>
     <use xlink:href="#DejaVuSans-Bold-73" transform="translate(2782.853516 0)"/>
    </g>
   </g>
   <g id="text_24">
    <g id="patch_55">
     <path d="M 203.096707 118.565284 
L 344.302957 118.565284 
Q 351.502957 118.565284 351.502957 111.365284 
L 351.502957 99.751534 
Q 351.502957 92.551534 344.302957 92.551534 
L 203.096707 92.551534 
Q 195.896707 92.551534 195.896707 99.751534 
L 195.896707 111.365284 
Q 195.896707 118.565284 203.096707 118.565284 
z
" style="fill: #ffffff; opacity: 0.9; stroke: #000000; stroke-linejoin: miter"/>
    </g>
    <!-- (a) RBBF × Rel-CIDEr -->
    <g transform="translate(203.096707 108.869659) scale(0.12 -0.12)">
     <defs>
      <path id="DejaVuSans-Bold-d7" d="M 4563 3359 
L 3206 2003 
L 4563 653 
L 4038 128 
L 2681 1478 
L 1325 128 
L 800 653 
L 2156 2003 
L 800 3359 
L 1325 3884 
L 2681 2528 
L 4038 3884 
L 4563 3359 
z
" transform="scale(0.015625)"/>
      <path id="DejaVuSans-Bold-2d" d="M 347 2297 
L 2309 2297 
L 2309 1388 
L 347 1388 
L 347 2297 
z
" transform="scale(0.015625)"/>
      <path id="DejaVuSans-Bold-49" d="M 588 4666 
L 1791 4666 
L 1791 0 
L 588 0 
L 588 4666 
z
" transform="scale(0.015625)"/>
      <path id="DejaVuSans-Bold-44" d="M 1791 3756 
L 1791 909 
L 2222 909 
Q 2959 909 3348 1275 
Q 3738 1641 3738 2338 
Q 3738 3031 3350 3393 
Q 2963 3756 2222 3756 
L 1791 3756 
z
M 588 4666 
L 1856 4666 
Q 2919 4666 3439 4514 
Q 3959 4363 4331 4000 
Q 4659 3684 4818 3271 
Q 4978 2859 4978 2338 
Q 4978 1809 4818 1395 
Q 4659 981 4331 666 
Q 3956 303 3431 151 
Q 2906 0 1856 0 
L 588 0 
L 588 4666 
z
" transform="scale(0.015625)"/>
      <path id="DejaVuSans-Bold-45" d="M 588 4666 
L 3834 4666 
L 3834 3756 
L 1791 3756 
L 1791 2888 
L 3713 2888 
L 3713 1978 
L 1791 1978 
L 1791 909 
L 3903 909 
L 3903 0 
L 588 0 
L 588 4666 
z
" transform="scale(0.015625)"/>
     </defs>
     <use xlink:href="#DejaVuSans-Bold-28"/>
     <use xlink:href="#DejaVuSans-Bold-61" transform="translate(45.703125 0)"/>
     <use xlink:href="#DejaVuSans-Bold-29" transform="translate(113.183594 0)"/>
     <use xlink:href="#DejaVuSans-Bold-20" transform="translate(158.886719 0)"/>
     <use xlink:href="#DejaVuSans-Bold-52" transform="translate(193.701172 0)"/>
     <use xlink:href="#DejaVuSans-Bold-42" transform="translate(270.703125 0)"/>
     <use xlink:href="#DejaVuSans-Bold-42" transform="translate(346.923828 0)"/>
     <use xlink:href="#DejaVuSans-Bold-46" transform="translate(423.144531 0)"/>
     <use xlink:href="#DejaVuSans-Bold-20" transform="translate(491.455078 0)"/>
     <use xlink:href="#DejaVuSans-Bold-d7" transform="translate(526.269531 0)"/>
     <use xlink:href="#DejaVuSans-Bold-20" transform="translate(610.058594 0)"/>
     <use xlink:href="#DejaVuSans-Bold-52" transform="translate(644.873047 0)"/>
     <use xlink:href="#DejaVuSans-Bold-65" transform="translate(721.875 0)"/>
     <use xlink:href="#DejaVuSans-Bold-6c" transform="translate(789.697266 0)"/>
     <use xlink:href="#DejaVuSans-Bold-2d" transform="translate(823.974609 0)"/>
     <use xlink:href="#DejaVuSans-Bold-43" transform="translate(865.478516 0)"/>
     <use xlink:href="#DejaVuSans-Bold-49" transform="translate(938.867188 0)"/>
     <use xlink:href="#DejaVuSans-Bold-44" transform="translate(976.074219 0)"/>
     <use xlink:href="#DejaVuSans-Bold-45" transform="translate(1059.082031 0)"/>
     <use xlink:href="#DejaVuSans-Bold-72" transform="translate(1127.392578 0)"/>
    </g>
   </g>
   <g id="text_25">
    <g id="patch_56">
     <path d="M 483.167356 118.565284 
L 623.809231 118.565284 
Q 631.009231 118.565284 631.009231 111.365284 
L 631.009231 99.751534 
Q 631.009231 92.551534 623.809231 92.551534 
L 483.167356 92.551534 
Q 475.967356 92.551534 475.967356 99.751534 
L 475.967356 111.365284 
Q 475.967356 118.565284 483.167356 118.565284 
z
" style="fill: #ffffff; opacity: 0.9; stroke: #000000; stroke-linejoin: miter"/>
    </g>
    <!-- (b) RBSL × Rel-CIDEr -->
    <g transform="translate(483.167356 108.869659) scale(0.12 -0.12)">
     <defs>
      <path id="DejaVuSans-Bold-62" d="M 2400 722 
Q 2759 722 2948 984 
Q 3138 1247 3138 1747 
Q 3138 2247 2948 2509 
Q 2759 2772 2400 2772 
Q 2041 2772 1848 2508 
Q 1656 2244 1656 1747 
Q 1656 1250 1848 986 
Q 2041 722 2400 722 
z
M 1656 2988 
Q 1888 3294 2169 3439 
Q 2450 3584 2816 3584 
Q 3463 3584 3878 3070 
Q 4294 2556 4294 1747 
Q 4294 938 3878 423 
Q 3463 -91 2816 -91 
Q 2450 -91 2169 54 
Q 1888 200 1656 506 
L 1656 0 
L 538 0 
L 538 4863 
L 1656 4863 
L 1656 2988 
z
" transform="scale(0.015625)"/>
      <path id="DejaVuSans-Bold-4c" d="M 588 4666 
L 1791 4666 
L 1791 909 
L 3903 909 
L 3903 0 
L 588 0 
L 588 4666 
z
" transform="scale(0.015625)"/>
     </defs>
     <use xlink:href="#DejaVuSans-Bold-28"/>
     <use xlink:href="#DejaVuSans-Bold-62" transform="translate(45.703125 0)"/>
     <use xlink:href="#DejaVuSans-Bold-29" transform="translate(117.285156 0)"/>
     <use xlink:href="#DejaVuSans-Bold-20" transform="translate(162.988281 0)"/>
     <use xlink:href="#DejaVuSans-Bold-52" transform="translate(197.802734 0)"/>
     <use xlink:href="#DejaVuSans-Bold-42" transform="translate(274.804688 0)"/>
     <use xlink:href="#DejaVuSans-Bold-53" transform="translate(351.025391 0)"/>
     <use xlink:href="#DejaVuSans-Bold-4c" transform="translate(423.046875 0)"/>
     <use xlink:href="#DejaVuSans-Bold-20" transform="translate(486.767578 0)"/>
     <use xlink:href="#DejaVuSans-Bold-d7" transform="translate(521.582031 0)"/>
     <use xlink:href="#DejaVuSans-Bold-20" transform="translate(605.371094 0)"/>
     <use xlink:href="#DejaVuSans-Bold-52" transform="translate(640.185547 0)"/>
     <use xlink:href="#DejaVuSans-Bold-65" transform="translate(717.1875 0)"/>
     <use xlink:href="#DejaVuSans-Bold-6c" transform="translate(785.009766 0)"/>
     <use xlink:href="#DejaVuSans-Bold-2d" transform="translate(819.287109 0)"/>
     <use xlink:href="#DejaVuSans-Bold-43" transform="translate(860.791016 0)"/>
     <use xlink:href="#DejaVuSans-Bold-49" transform="translate(934.179688 0)"/>
     <use xlink:href="#DejaVuSans-Bold-44" transform="translate(971.386719 0)"/>
     <use xlink:href="#DejaVuSans-Bold-45" transform="translate(1054.394531 0)"/>
     <use xlink:href="#DejaVuSans-Bold-72" transform="translate(1122.705078 0)"/>
    </g>
   </g>
   <g id="text_26">
    <g id="patch_57">
     <path d="M 202.072019 402.283466 
L 345.327644 402.283466 
Q 352.527644 402.283466 352.527644 395.083466 
L 352.527644 383.469716 
Q 352.527644 376.269716 345.327644 376.269716 
L 202.072019 376.269716 
Q 194.872019 376.269716 194.872019 383.469716 
L 194.872019 395.083466 
Q 194.872019 402.283466 202.072019 402.283466 
z
" style="fill: #ffffff; opacity: 0.9; stroke: #000000; stroke-linejoin: miter"/>
    </g>
    <!-- (d) RBBF × Rel-SPICE -->
    <g transform="translate(202.072019 392.587841) scale(0.12 -0.12)">
     <defs>
      <path id="DejaVuSans-Bold-50" d="M 588 4666 
L 2584 4666 
Q 3475 4666 3951 4270 
Q 4428 3875 4428 3144 
Q 4428 2409 3951 2014 
Q 3475 1619 2584 1619 
L 1791 1619 
L 1791 0 
L 588 0 
L 588 4666 
z
M 1791 3794 
L 1791 2491 
L 2456 2491 
Q 2806 2491 2997 2661 
Q 3188 2831 3188 3144 
Q 3188 3456 2997 3625 
Q 2806 3794 2456 3794 
L 1791 3794 
z
" transform="scale(0.015625)"/>
     </defs>
     <use xlink:href="#DejaVuSans-Bold-28"/>
     <use xlink:href="#DejaVuSans-Bold-64" transform="translate(45.703125 0)"/>
     <use xlink:href="#DejaVuSans-Bold-29" transform="translate(117.285156 0)"/>
     <use xlink:href="#DejaVuSans-Bold-20" transform="translate(162.988281 0)"/>
     <use xlink:href="#DejaVuSans-Bold-52" transform="translate(197.802734 0)"/>
     <use xlink:href="#DejaVuSans-Bold-42" transform="translate(274.804688 0)"/>
     <use xlink:href="#DejaVuSans-Bold-42" transform="translate(351.025391 0)"/>
     <use xlink:href="#DejaVuSans-Bold-46" transform="translate(427.246094 0)"/>
     <use xlink:href="#DejaVuSans-Bold-20" transform="translate(495.556641 0)"/>
     <use xlink:href="#DejaVuSans-Bold-d7" transform="translate(530.371094 0)"/>
     <use xlink:href="#DejaVuSans-Bold-20" transform="translate(614.160156 0)"/>
     <use xlink:href="#DejaVuSans-Bold-52" transform="translate(648.974609 0)"/>
     <use xlink:href="#DejaVuSans-Bold-65" transform="translate(725.976562 0)"/>
     <use xlink:href="#DejaVuSans-Bold-6c" transform="translate(793.798828 0)"/>
     <use xlink:href="#DejaVuSans-Bold-2d" transform="translate(828.076172 0)"/>
     <use xlink:href="#DejaVuSans-Bold-53" transform="translate(869.580078 0)"/>
     <use xlink:href="#DejaVuSans-Bold-50" transform="translate(941.601562 0)"/>
     <use xlink:href="#DejaVuSans-Bold-49" transform="translate(1014.892578 0)"/>
     <use xlink:href="#DejaVuSans-Bold-43" transform="translate(1052.099609 0)"/>
     <use xlink:href="#DejaVuSans-Bold-45" transform="translate(1125.488281 0)"/>
    </g>
   </g>
   <g id="text_27">
    <g id="patch_58">
     <path d="M 483.126106 402.283466 
L 623.850481 402.283466 
Q 631.050481 402.283466 631.050481 395.083466 
L 631.050481 383.469716 
Q 631.050481 376.269716 623.850481 376.269716 
L 483.126106 376.269716 
Q 475.926106 376.269716 475.926106 383.469716 
L 475.926106 395.083466 
Q 475.926106 402.283466 483.126106 402.283466 
z
" style="fill: #ffffff; opacity: 0.9; stroke: #000000; stroke-linejoin: miter"/>
    </g>
    <!-- (c) RBSL × Rel-SPICE -->
    <g transform="translate(483.126106 392.587841) scale(0.12 -0.12)">
     <use xlink:href="#DejaVuSans-Bold-28"/>
     <use xlink:href="#DejaVuSans-Bold-63" transform="translate(45.703125 0)"/>
     <use xlink:href="#DejaVuSans-Bold-29" transform="translate(104.980469 0)"/>
     <use xlink:href="#DejaVuSans-Bold-20" transform="translate(150.683594 0)"/>
     <use xlink:href="#DejaVuSans-Bold-52" transform="translate(185.498047 0)"/>
     <use xlink:href="#DejaVuSans-Bold-42" transform="translate(262.5 0)"/>
     <use xlink:href="#DejaVuSans-Bold-53" transform="translate(338.720703 0)"/>
     <use xlink:href="#DejaVuSans-Bold-4c" transform="translate(410.742188 0)"/>
     <use xlink:href="#DejaVuSans-Bold-20" transform="translate(474.462891 0)"/>
     <use xlink:href="#DejaVuSans-Bold-d7" transform="translate(509.277344 0)"/>
     <use xlink:href="#DejaVuSans-Bold-20" transform="translate(593.066406 0)"/>
     <use xlink:href="#DejaVuSans-Bold-52" transform="translate(627.880859 0)"/>
     <use xlink:href="#DejaVuSans-Bold-65" transform="translate(704.882812 0)"/>
     <use xlink:href="#DejaVuSans-Bold-6c" transform="translate(772.705078 0)"/>
     <use xlink:href="#DejaVuSans-Bold-2d" transform="translate(806.982422 0)"/>
     <use xlink:href="#DejaVuSans-Bold-53" transform="translate(848.486328 0)"/>
     <use xlink:href="#DejaVuSans-Bold-50" transform="translate(920.507812 0)"/>
     <use xlink:href="#DejaVuSans-Bold-49" transform="translate(993.798828 0)"/>
     <use xlink:href="#DejaVuSans-Bold-43" transform="translate(1031.005859 0)"/>
     <use xlink:href="#DejaVuSans-Bold-45" transform="translate(1104.394531 0)"/>
    </g>
   </g>
   <g id="legend_1">
    <g id="patch_59">
     <path d="M 654.512656 80.449375 
L 769.619062 80.449375 
Q 771.819062 80.449375 771.819062 78.249375 
L 771.819062 47.0575 
Q 771.819062 44.8575 769.619062 44.8575 
L 654.512656 44.8575 
Q 652.312656 44.8575 652.312656 47.0575 
L 652.312656 78.249375 
Q 652.312656 80.449375 654.512656 80.449375 
z
" style="fill: #ffffff; opacity: 0.95; stroke: #cccccc; stroke-linejoin: miter"/>
    </g>
    <g id="patch_60">
     <path d="M 656.712656 57.615781 
L 678.712656 57.615781 
L 678.712656 49.915781 
L 656.712656 49.915781 
z
" style="fill: #2e5c8a; opacity: 0.8; stroke: #00008b; stroke-linejoin: miter"/>
    </g>
    <g id="text_28">
     <!-- BCM (Ours) -->
     <g transform="translate(687.512656 57.615781) scale(0.11 -0.11)">
      <defs>
       <path id="DejaVuSans-42" d="M 1259 2228 
L 1259 519 
L 2272 519 
Q 2781 519 3026 730 
Q 3272 941 3272 1375 
Q 3272 1813 3026 2020 
Q 2781 2228 2272 2228 
L 1259 2228 
z
M 1259 4147 
L 1259 2741 
L 2194 2741 
Q 2656 2741 2882 2914 
Q 3109 3088 3109 3444 
Q 3109 3797 2882 3972 
Q 2656 4147 2194 4147 
L 1259 4147 
z
M 628 4666 
L 2241 4666 
Q 2963 4666 3353 4366 
Q 3744 4066 3744 3513 
Q 3744 3084 3544 2831 
Q 3344 2578 2956 2516 
Q 3422 2416 3680 2098 
Q 3938 1781 3938 1306 
Q 3938 681 3513 340 
Q 3088 0 2303 0 
L 628 0 
L 628 4666 
z
" transform="scale(0.015625)"/>
       <path id="DejaVuSans-43" d="M 4122 4306 
L 4122 3641 
Q 3803 3938 3442 4084 
Q 3081 4231 2675 4231 
Q 1875 4231 1450 3742 
Q 1025 3253 1025 2328 
Q 1025 1406 1450 917 
Q 1875 428 2675 428 
Q 3081 428 3442 575 
Q 3803 722 4122 1019 
L 4122 359 
Q 3791 134 3420 21 
Q 3050 -91 2638 -91 
Q 1578 -91 968 557 
Q 359 1206 359 2328 
Q 359 3453 968 4101 
Q 1578 4750 2638 4750 
Q 3056 4750 3426 4639 
Q 3797 4528 4122 4306 
z
" transform="scale(0.015625)"/>
       <path id="DejaVuSans-4d" d="M 628 4666 
L 1569 4666 
L 2759 1491 
L 3956 4666 
L 4897 4666 
L 4897 0 
L 4281 0 
L 4281 4097 
L 3078 897 
L 2444 897 
L 1241 4097 
L 1241 0 
L 628 0 
L 628 4666 
z
" transform="scale(0.015625)"/>
       <path id="DejaVuSans-20" transform="scale(0.015625)"/>
       <path id="DejaVuSans-28" d="M 1984 4856 
Q 1566 4138 1362 3434 
Q 1159 2731 1159 2009 
Q 1159 1288 1364 580 
Q 1569 -128 1984 -844 
L 1484 -844 
Q 1016 -109 783 600 
Q 550 1309 550 2009 
Q 550 2706 781 3412 
Q 1013 4119 1484 4856 
L 1984 4856 
z
" transform="scale(0.015625)"/>
       <path id="DejaVuSans-4f" d="M 2522 4238 
Q 1834 4238 1429 3725 
Q 1025 3213 1025 2328 
Q 1025 1447 1429 934 
Q 1834 422 2522 422 
Q 3209 422 3611 934 
Q 4013 1447 4013 2328 
Q 4013 3213 3611 3725 
Q 3209 4238 2522 4238 
z
M 2522 4750 
Q 3503 4750 4090 4092 
Q 4678 3434 4678 2328 
Q 4678 1225 4090 567 
Q 3503 -91 2522 -91 
Q 1538 -91 948 565 
Q 359 1222 359 2328 
Q 359 3434 948 4092 
Q 1538 4750 2522 4750 
z
" transform="scale(0.015625)"/>
       <path id="DejaVuSans-75" d="M 544 1381 
L 544 3500 
L 1119 3500 
L 1119 1403 
Q 1119 906 1312 657 
Q 1506 409 1894 409 
Q 2359 409 2629 706 
Q 2900 1003 2900 1516 
L 2900 3500 
L 3475 3500 
L 3475 0 
L 2900 0 
L 2900 538 
Q 2691 219 2414 64 
Q 2138 -91 1772 -91 
Q 1169 -91 856 284 
Q 544 659 544 1381 
z
M 1991 3584 
L 1991 3584 
z
" transform="scale(0.015625)"/>
       <path id="DejaVuSans-72" d="M 2631 2963 
Q 2534 3019 2420 3045 
Q 2306 3072 2169 3072 
Q 1681 3072 1420 2755 
Q 1159 2438 1159 1844 
L 1159 0 
L 581 0 
L 581 3500 
L 1159 3500 
L 1159 2956 
Q 1341 3275 1631 3429 
Q 1922 3584 2338 3584 
Q 2397 3584 2469 3576 
Q 2541 3569 2628 3553 
L 2631 2963 
z
" transform="scale(0.015625)"/>
       <path id="DejaVuSans-73" d="M 2834 3397 
L 2834 2853 
Q 2591 2978 2328 3040 
Q 2066 3103 1784 3103 
Q 1356 3103 1142 2972 
Q 928 2841 928 2578 
Q 928 2378 1081 2264 
Q 1234 2150 1697 2047 
L 1894 2003 
Q 2506 1872 2764 1633 
Q 3022 1394 3022 966 
Q 3022 478 2636 193 
Q 2250 -91 1575 -91 
Q 1294 -91 989 -36 
Q 684 19 347 128 
L 347 722 
Q 666 556 975 473 
Q 1284 391 1588 391 
Q 1994 391 2212 530 
Q 2431 669 2431 922 
Q 2431 1156 2273 1281 
Q 2116 1406 1581 1522 
L 1381 1569 
Q 847 1681 609 1914 
Q 372 2147 372 2553 
Q 372 3047 722 3315 
Q 1072 3584 1716 3584 
Q 2034 3584 2315 3537 
Q 2597 3491 2834 3397 
z
" transform="scale(0.015625)"/>
       <path id="DejaVuSans-29" d="M 513 4856 
L 1013 4856 
Q 1481 4119 1714 3412 
Q 1947 2706 1947 2009 
Q 1947 1309 1714 600 
Q 1481 -109 1013 -844 
L 513 -844 
Q 928 -128 1133 580 
Q 1338 1288 1338 2009 
Q 1338 2731 1133 3434 
Q 928 4138 513 4856 
z
" transform="scale(0.015625)"/>
      </defs>
      <use xlink:href="#DejaVuSans-42"/>
      <use xlink:href="#DejaVuSans-43" transform="translate(66.853516 0)"/>
      <use xlink:href="#DejaVuSans-4d" transform="translate(136.677734 0)"/>
      <use xlink:href="#DejaVuSans-20" transform="translate(222.957031 0)"/>
      <use xlink:href="#DejaVuSans-28" transform="translate(254.744141 0)"/>
      <use xlink:href="#DejaVuSans-4f" transform="translate(293.757812 0)"/>
      <use xlink:href="#DejaVuSans-75" transform="translate(372.46875 0)"/>
      <use xlink:href="#DejaVuSans-72" transform="translate(435.847656 0)"/>
      <use xlink:href="#DejaVuSans-73" transform="translate(476.960938 0)"/>
      <use xlink:href="#DejaVuSans-29" transform="translate(529.060547 0)"/>
     </g>
    </g>
    <g id="patch_61">
     <path d="M 656.712656 73.761719 
L 678.712656 73.761719 
L 678.712656 66.061719 
L 656.712656 66.061719 
z
" style="fill: #e67e22; opacity: 0.8; stroke: #ff8c00; stroke-linejoin: miter"/>
    </g>
    <g id="text_29">
     <!-- Avg (w/o BCM) -->
     <g transform="translate(687.512656 73.761719) scale(0.11 -0.11)">
      <defs>
       <path id="DejaVuSans-41" d="M 2188 4044 
L 1331 1722 
L 3047 1722 
L 2188 4044 
z
M 1831 4666 
L 2547 4666 
L 4325 0 
L 3669 0 
L 3244 1197 
L 1141 1197 
L 716 0 
L 50 0 
L 1831 4666 
z
" transform="scale(0.015625)"/>
       <path id="DejaVuSans-76" d="M 191 3500 
L 800 3500 
L 1894 563 
L 2988 3500 
L 3597 3500 
L 2284 0 
L 1503 0 
L 191 3500 
z
" transform="scale(0.015625)"/>
       <path id="DejaVuSans-67" d="M 2906 1791 
Q 2906 2416 2648 2759 
Q 2391 3103 1925 3103 
Q 1463 3103 1205 2759 
Q 947 2416 947 1791 
Q 947 1169 1205 825 
Q 1463 481 1925 481 
Q 2391 481 2648 825 
Q 2906 1169 2906 1791 
z
M 3481 434 
Q 3481 -459 3084 -895 
Q 2688 -1331 1869 -1331 
Q 1566 -1331 1297 -1286 
Q 1028 -1241 775 -1147 
L 775 -588 
Q 1028 -725 1275 -790 
Q 1522 -856 1778 -856 
Q 2344 -856 2625 -561 
Q 2906 -266 2906 331 
L 2906 616 
Q 2728 306 2450 153 
Q 2172 0 1784 0 
Q 1141 0 747 490 
Q 353 981 353 1791 
Q 353 2603 747 3093 
Q 1141 3584 1784 3584 
Q 2172 3584 2450 3431 
Q 2728 3278 2906 2969 
L 2906 3500 
L 3481 3500 
L 3481 434 
z
" transform="scale(0.015625)"/>
       <path id="DejaVuSans-77" d="M 269 3500 
L 844 3500 
L 1563 769 
L 2278 3500 
L 2956 3500 
L 3675 769 
L 4391 3500 
L 4966 3500 
L 4050 0 
L 3372 0 
L 2619 2869 
L 1863 0 
L 1184 0 
L 269 3500 
z
" transform="scale(0.015625)"/>
       <path id="DejaVuSans-2f" d="M 1625 4666 
L 2156 4666 
L 531 -594 
L 0 -594 
L 1625 4666 
z
" transform="scale(0.015625)"/>
       <path id="DejaVuSans-6f" d="M 1959 3097 
Q 1497 3097 1228 2736 
Q 959 2375 959 1747 
Q 959 1119 1226 758 
Q 1494 397 1959 397 
Q 2419 397 2687 759 
Q 2956 1122 2956 1747 
Q 2956 2369 2687 2733 
Q 2419 3097 1959 3097 
z
M 1959 3584 
Q 2709 3584 3137 3096 
Q 3566 2609 3566 1747 
Q 3566 888 3137 398 
Q 2709 -91 1959 -91 
Q 1206 -91 779 398 
Q 353 888 353 1747 
Q 353 2609 779 3096 
Q 1206 3584 1959 3584 
z
" transform="scale(0.015625)"/>
      </defs>
      <use xlink:href="#DejaVuSans-41"/>
      <use xlink:href="#DejaVuSans-76" transform="translate(62.533203 0)"/>
      <use xlink:href="#DejaVuSans-67" transform="translate(121.712891 0)"/>
      <use xlink:href="#DejaVuSans-20" transform="translate(185.189453 0)"/>
      <use xlink:href="#DejaVuSans-28" transform="translate(216.976562 0)"/>
      <use xlink:href="#DejaVuSans-77" transform="translate(255.990234 0)"/>
      <use xlink:href="#DejaVuSans-2f" transform="translate(337.777344 0)"/>
      <use xlink:href="#DejaVuSans-6f" transform="translate(371.46875 0)"/>
      <use xlink:href="#DejaVuSans-20" transform="translate(432.650391 0)"/>
      <use xlink:href="#DejaVuSans-42" transform="translate(464.4375 0)"/>
      <use xlink:href="#DejaVuSans-43" transform="translate(531.291016 0)"/>
      <use xlink:href="#DejaVuSans-4d" transform="translate(601.115234 0)"/>
      <use xlink:href="#DejaVuSans-29" transform="translate(687.394531 0)"/>
     </g>
    </g>
   </g>
  </g>
 </g>
 <defs>
  <clipPath id="pe00c4d79db">
   <rect x="49.869063" y="39.3575" width="727.45" height="416.12"/>
  </clipPath>
 </defs>
</svg>
